<?plantuml 1.2026.2?><svg xmlns="http://www.w3.org/2000/svg" xmlns:xlink="http://www.w3.org/1999/xlink" contentStyleType="text/css" data-diagram-type="SEQUENCE" height="1091px" preserveAspectRatio="none" style="width:1459px;height:1091px;background:#FFFFFF;" version="1.1" viewBox="0 0 1459 1091" width="1459px" zoomAndPan="magnify"><title>Edit Transaction (ListTransaction -&gt; TransactionService.edit_transaction)</title><defs/><g><text fill="#000000" font-family="sans-serif" font-size="14" font-weight="bold" lengthAdjust="spacing" textLength="488.9541" x="486.2451" y="29.5332">Edit Transaction (ListTransaction -&gt; TransactionService.edit_transaction)</text><rect fill="none" height="719.7578" style="stroke:#000000;stroke-width:1.5;" width="1442.4443" x="10" y="272.625"/><rect fill="none" height="398.4063" style="stroke:#000000;stroke-width:1.5;" width="994.5161" x="447.9282" y="556.625"/><g class="participant-lifeline" data-entity-uid="part1" data-qualified-name="User" id="part1-lifeline"><g><title>User</title><rect fill="#000000" fill-opacity="0.00000" height="888.1641" width="8" x="33.7793" y="121.2188"/><line style="stroke:#181818;stroke-width:0.5;stroke-dasharray:5,5;" x1="37" x2="37" y1="121.2188" y2="1009.3828"/></g></g><g class="participant-lifeline" data-entity-uid="part2" data-qualified-name="UI" id="part2-lifeline"><g><title>ListTransaction .ui.frmListTransaction.py.</title><rect fill="#000000" fill-opacity="0.00000" height="888.1641" width="8" x="196.9341" y="121.2188"/><line style="stroke:#181818;stroke-width:0.5;stroke-dasharray:5,5;" x1="200.5586" x2="200.5586" y1="121.2188" y2="1009.3828"/></g></g><g class="participant-lifeline" data-entity-uid="part3" data-qualified-name="TS" id="part3-lifeline"><g><title>TransactionService</title><rect fill="#000000" fill-opacity="0.00000" height="888.1641" width="8" x="520.8418" y="121.2188"/><line style="stroke:#181818;stroke-width:0.5;stroke-dasharray:5,5;" x1="523.9282" x2="523.9282" y1="121.2188" y2="1009.3828"/></g></g><g class="participant-lifeline" data-entity-uid="part4" data-qualified-name="TR" id="part4-lifeline"><g><title>TransactionRepo</title><rect fill="#000000" fill-opacity="0.00000" height="888.1641" width="8" x="835.3423" y="121.2188"/><line style="stroke:#181818;stroke-width:0.5;stroke-dasharray:5,5;" x1="839.0356" x2="839.0356" y1="121.2188" y2="1009.3828"/></g></g><g class="participant-lifeline" data-entity-uid="part5" data-qualified-name="BS" id="part5-lifeline"><g><title>BudgetService</title><rect fill="#000000" fill-opacity="0.00000" height="888.1641" width="8" x="958.1763" y="121.2188"/><line style="stroke:#181818;stroke-width:0.5;stroke-dasharray:5,5;" x1="961.6489" x2="961.6489" y1="121.2188" y2="1009.3828"/></g></g><g class="participant-lifeline" data-entity-uid="part6" data-qualified-name="BR" id="part6-lifeline"><g><title>BudgetRepo</title><rect fill="#000000" fill-opacity="0.00000" height="888.1641" width="8" x="1140.4297" y="121.2188"/><line style="stroke:#181818;stroke-width:0.5;stroke-dasharray:5,5;" x1="1143.5093" x2="1143.5093" y1="121.2188" y2="1009.3828"/></g></g><g class="participant-lifeline" data-entity-uid="part7" data-qualified-name="DB" id="part7-lifeline"><g><title>SQLite .DatabaseConnection.</title><rect fill="#000000" fill-opacity="0.00000" height="888.1641" width="8" x="1332.0586" y="121.2188"/><line style="stroke:#181818;stroke-width:0.5;stroke-dasharray:5,5;" x1="1335.6729" x2="1335.6729" y1="121.2188" y2="1009.3828"/></g></g><g class="participant participant-head" data-entity-uid="part1" data-qualified-name="User" id="part1-head"><text fill="#000000" font-family="sans-serif" font-size="14" lengthAdjust="spacing" textLength="29.5586" x="20" y="118.1426">User</text><ellipse cx="37.7793" cy="52.1094" fill="#E2E2F0" rx="8" ry="8" style="stroke:#181818;stroke-width:0.5;"/><path d="M37.7793,60.1094 L37.7793,87.1094 M24.7793,68.1094 L50.7793,68.1094 M37.7793,87.1094 L24.7793,102.1094 M37.7793,87.1094 L50.7793,102.1094" fill="none" style="stroke:#181818;stroke-width:0.5;"/></g><g class="participant participant-tail" data-entity-uid="part1" data-qualified-name="User" id="part1-tail"><text fill="#000000" font-family="sans-serif" font-size="14" lengthAdjust="spacing" textLength="29.5586" x="20" y="1022.916">User</text><ellipse cx="37.7793" cy="1034.4922" fill="#E2E2F0" rx="8" ry="8" style="stroke:#181818;stroke-width:0.5;"/><path d="M37.7793,1042.4922 L37.7793,1069.4922 M24.7793,1050.4922 L50.7793,1050.4922 M37.7793,1069.4922 L24.7793,1084.4922 M37.7793,1069.4922 L50.7793,1084.4922" fill="none" style="stroke:#181818;stroke-width:0.5;"/></g><g class="participant participant-head" data-entity-uid="part2" data-qualified-name="UI" id="part2-head"><rect fill="#E2E2F0" height="31.6094" rx="2.5" ry="2.5" style="stroke:#181818;stroke-width:0.5;" width="270.751" x="65.5586" y="88.6094"/><text fill="#000000" font-family="sans-serif" font-size="14" lengthAdjust="spacing" textLength="256.751" x="72.5586" y="110.1426">ListTransaction (ui/frmListTransaction.py)</text></g><g class="participant participant-tail" data-entity-uid="part2" data-qualified-name="UI" id="part2-tail"><rect fill="#E2E2F0" height="31.6094" rx="2.5" ry="2.5" style="stroke:#181818;stroke-width:0.5;" width="270.751" x="65.5586" y="1008.3828"/><text fill="#000000" font-family="sans-serif" font-size="14" lengthAdjust="spacing" textLength="256.751" x="72.5586" y="1029.916">ListTransaction (ui/frmListTransaction.py)</text></g><g class="participant participant-head" data-entity-uid="part3" data-qualified-name="TS" id="part3-head"><rect fill="#E2E2F0" height="31.6094" rx="2.5" ry="2.5" style="stroke:#181818;stroke-width:0.5;" width="133.8271" x="457.9282" y="88.6094"/><text fill="#000000" font-family="sans-serif" font-size="14" lengthAdjust="spacing" textLength="119.8271" x="464.9282" y="110.1426">TransactionService</text></g><g class="participant participant-tail" data-entity-uid="part3" data-qualified-name="TS" id="part3-tail"><rect fill="#E2E2F0" height="31.6094" rx="2.5" ry="2.5" style="stroke:#181818;stroke-width:0.5;" width="133.8271" x="457.9282" y="1008.3828"/><text fill="#000000" font-family="sans-serif" font-size="14" lengthAdjust="spacing" textLength="119.8271" x="464.9282" y="1029.916">TransactionService</text></g><g class="participant participant-head" data-entity-uid="part4" data-qualified-name="TR" id="part4-head"><rect fill="#E2E2F0" height="31.6094" rx="2.5" ry="2.5" style="stroke:#181818;stroke-width:0.5;" width="120.6133" x="779.0356" y="88.6094"/><text fill="#000000" font-family="sans-serif" font-size="14" lengthAdjust="spacing" textLength="106.6133" x="786.0356" y="110.1426">TransactionRepo</text></g><g class="participant participant-tail" data-entity-uid="part4" data-qualified-name="TR" id="part4-tail"><rect fill="#E2E2F0" height="31.6094" rx="2.5" ry="2.5" style="stroke:#181818;stroke-width:0.5;" width="120.6133" x="779.0356" y="1008.3828"/><text fill="#000000" font-family="sans-serif" font-size="14" lengthAdjust="spacing" textLength="106.6133" x="786.0356" y="1029.916">TransactionRepo</text></g><g class="participant participant-head" data-entity-uid="part5" data-qualified-name="BS" id="part5-head"><rect fill="#E2E2F0" height="31.6094" rx="2.5" ry="2.5" style="stroke:#181818;stroke-width:0.5;" width="105.0547" x="909.6489" y="88.6094"/><text fill="#000000" font-family="sans-serif" font-size="14" lengthAdjust="spacing" textLength="91.0547" x="916.6489" y="110.1426">BudgetService</text></g><g class="participant participant-tail" data-entity-uid="part5" data-qualified-name="BS" id="part5-tail"><rect fill="#E2E2F0" height="31.6094" rx="2.5" ry="2.5" style="stroke:#181818;stroke-width:0.5;" width="105.0547" x="909.6489" y="1008.3828"/><text fill="#000000" font-family="sans-serif" font-size="14" lengthAdjust="spacing" textLength="91.0547" x="916.6489" y="1029.916">BudgetService</text></g><g class="participant participant-head" data-entity-uid="part6" data-qualified-name="BR" id="part6-head"><rect fill="#E2E2F0" height="31.6094" rx="2.5" ry="2.5" style="stroke:#181818;stroke-width:0.5;" width="91.8408" x="1098.5093" y="88.6094"/><text fill="#000000" font-family="sans-serif" font-size="14" lengthAdjust="spacing" textLength="77.8408" x="1105.5093" y="110.1426">BudgetRepo</text></g><g class="participant participant-tail" data-entity-uid="part6" data-qualified-name="BR" id="part6-tail"><rect fill="#E2E2F0" height="31.6094" rx="2.5" ry="2.5" style="stroke:#181818;stroke-width:0.5;" width="91.8408" x="1098.5093" y="1008.3828"/><text fill="#000000" font-family="sans-serif" font-size="14" lengthAdjust="spacing" textLength="77.8408" x="1105.5093" y="1029.916">BudgetRepo</text></g><g class="participant participant-head" data-entity-uid="part7" data-qualified-name="DB" id="part7-head"><text fill="#000000" font-family="sans-serif" font-size="14" lengthAdjust="spacing" textLength="186.7715" x="1239.6729" y="118.1426">SQLite (DatabaseConnection)</text><path d="M1318.0586,67.6094 C1318.0586,57.6094 1336.0586,57.6094 1336.0586,57.6094 C1336.0586,57.6094 1354.0586,57.6094 1354.0586,67.6094 L1354.0586,93.6094 C1354.0586,103.6094 1336.0586,103.6094 1336.0586,103.6094 C1336.0586,103.6094 1318.0586,103.6094 1318.0586,93.6094 L1318.0586,67.6094" fill="#E2E2F0" style="stroke:#181818;stroke-width:0.5;"/><path d="M1318.0586,67.6094 C1318.0586,77.6094 1336.0586,77.6094 1336.0586,77.6094 C1336.0586,77.6094 1354.0586,77.6094 1354.0586,67.6094" fill="none" style="stroke:#181818;stroke-width:0.5;"/></g><g class="participant participant-tail" data-entity-uid="part7" data-qualified-name="DB" id="part7-tail"><text fill="#000000" font-family="sans-serif" font-size="14" lengthAdjust="spacing" textLength="186.7715" x="1239.6729" y="1022.916">SQLite (DatabaseConnection)</text><path d="M1318.0586,1035.9922 C1318.0586,1025.9922 1336.0586,1025.9922 1336.0586,1025.9922 C1336.0586,1025.9922 1354.0586,1025.9922 1354.0586,1035.9922 L1354.0586,1061.9922 C1354.0586,1071.9922 1336.0586,1071.9922 1336.0586,1071.9922 C1336.0586,1071.9922 1318.0586,1071.9922 1318.0586,1061.9922 L1318.0586,1035.9922" fill="#E2E2F0" style="stroke:#181818;stroke-width:0.5;"/><path d="M1318.0586,1035.9922 C1318.0586,1045.9922 1336.0586,1045.9922 1336.0586,1045.9922 C1336.0586,1045.9922 1354.0586,1045.9922 1354.0586,1035.9922" fill="none" style="stroke:#181818;stroke-width:0.5;"/></g><g class="message" data-entity-1="part1" data-entity-2="part2" id="msg1"><polygon fill="#181818" points="188.9341,149.5703,198.9341,153.5703,188.9341,157.5703,192.9341,153.5703" style="stroke:#181818;stroke-width:1;"/><line style="stroke:#181818;stroke-width:1;" x1="37.7793" x2="194.9341" y1="153.5703" y2="153.5703"/><text fill="#000000" font-family="sans-serif" font-size="13" lengthAdjust="spacing" textLength="116.1748" x="44.7793" y="148.7139">Context menu "Edit"</text></g><g class="message" data-entity-1="part2" data-entity-2="part2" id="msg2"><line style="stroke:#181818;stroke-width:1;" x1="200.9341" x2="242.9341" y1="183.9219" y2="183.9219"/><line style="stroke:#181818;stroke-width:1;" x1="242.9341" x2="242.9341" y1="183.9219" y2="196.9219"/><line style="stroke:#181818;stroke-width:1;" x1="201.9341" x2="242.9341" y1="196.9219" y2="196.9219"/><polygon fill="#181818" points="211.9341,192.9219,201.9341,196.9219,211.9341,200.9219,207.9341,196.9219" style="stroke:#181818;stroke-width:1;"/><text fill="#000000" font-family="sans-serif" font-size="13" lengthAdjust="spacing" textLength="114.8926" x="207.9341" y="179.0654">prompt new amount</text></g><g class="message" data-entity-1="part2" data-entity-2="part3" id="msg3"><polygon fill="#181818" points="512.8418,223.2734,522.8418,227.2734,512.8418,231.2734,516.8418,227.2734" style="stroke:#181818;stroke-width:1;"/><line style="stroke:#181818;stroke-width:1;" x1="200.9341" x2="518.8418" y1="227.2734" y2="227.2734"/><text fill="#000000" font-family="sans-serif" font-size="13" lengthAdjust="spacing" textLength="299.9077" x="207.9341" y="222.417">get_transaction_warning(old_amount, new_amount)</text></g><g class="message" data-entity-1="part3" data-entity-2="part2" id="msg4"><polygon fill="#181818" points="211.9341,253.625,201.9341,257.625,211.9341,261.625,207.9341,257.625" style="stroke:#181818;stroke-width:1;"/><line style="stroke:#181818;stroke-width:1;stroke-dasharray:2,2;" x1="205.9341" x2="523.8418" y1="257.625" y2="257.625"/><text fill="#000000" font-family="sans-serif" font-size="13" lengthAdjust="spacing" textLength="110.5635" x="217.9341" y="252.7686">warning? (optional)</text></g><path d="M10,272.625 L70.1709,272.625 L70.1709,280.9766 L60.1709,290.9766 L10,290.9766 L10,272.625" fill="#EEEEEE" style="stroke:#000000;stroke-width:1.5;"/><rect fill="none" height="719.7578" style="stroke:#000000;stroke-width:1.5;" width="1442.4443" x="10" y="272.625"/><text fill="#000000" font-family="sans-serif" font-size="13" font-weight="bold" lengthAdjust="spacing" textLength="15.1709" x="25" y="287.1201">alt</text><text fill="#000000" font-family="sans-serif" font-size="11" font-weight="bold" lengthAdjust="spacing" textLength="73.9814" x="85.1709" y="286.0439">[user cancels]</text><g class="message" data-entity-1="part2" data-entity-2="part1" id="msg5"><polygon fill="#181818" points="48.7793,309.3281,38.7793,313.3281,48.7793,317.3281,44.7793,313.3281" style="stroke:#181818;stroke-width:1;"/><line style="stroke:#181818;stroke-width:1;stroke-dasharray:2,2;" x1="42.7793" x2="199.9341" y1="313.3281" y2="313.3281"/><text fill="#000000" font-family="sans-serif" font-size="13" lengthAdjust="spacing" textLength="24.5718" x="54.7793" y="308.4717">stop</text></g><line style="stroke:#000000;stroke-width:1;stroke-dasharray:2,2;" x1="10" x2="1452.4443" y1="322.3281" y2="322.3281"/><text fill="#000000" font-family="sans-serif" font-size="11" font-weight="bold" lengthAdjust="spacing" textLength="53.1577" x="15" y="333.7471">[continue]</text><g class="message" data-entity-1="part2" data-entity-2="part3" id="msg6"><polygon fill="#181818" points="512.8418,355.5156,522.8418,359.5156,512.8418,363.5156,516.8418,359.5156" style="stroke:#181818;stroke-width:1;"/><line style="stroke:#181818;stroke-width:1;" x1="200.9341" x2="518.8418" y1="359.5156" y2="359.5156"/><text fill="#000000" font-family="sans-serif" font-size="13" lengthAdjust="spacing" textLength="271.6987" x="207.9341" y="354.6592">edit_transaction(tid, new_amount, month, year)</text></g><g class="message" data-entity-1="part3" data-entity-2="part4" id="msg7"><polygon fill="#181818" points="827.3423,385.8672,837.3423,389.8672,827.3423,393.8672,831.3423,389.8672" style="stroke:#181818;stroke-width:1;"/><line style="stroke:#181818;stroke-width:1;" x1="524.8418" x2="833.3423" y1="389.8672" y2="389.8672"/><text fill="#000000" font-family="sans-serif" font-size="13" lengthAdjust="spacing" textLength="149.5889" x="531.8418" y="385.0107">get_transaction_by_id(tid)</text></g><g class="message" data-entity-1="part4" data-entity-2="part7" id="msg8"><polygon fill="#181818" points="1324.0586,416.2188,1334.0586,420.2188,1324.0586,424.2188,1328.0586,420.2188" style="stroke:#181818;stroke-width:1;"/><line style="stroke:#181818;stroke-width:1;" x1="839.3423" x2="1330.0586" y1="420.2188" y2="420.2188"/><text fill="#000000" font-family="sans-serif" font-size="13" lengthAdjust="spacing" textLength="189.2998" x="846.3423" y="415.3623">execute(SELECT transactions...)</text></g><g class="message" data-entity-1="part7" data-entity-2="part4" id="msg9"><polygon fill="#181818" points="850.3423,446.5703,840.3423,450.5703,850.3423,454.5703,846.3423,450.5703" style="stroke:#181818;stroke-width:1;"/><line style="stroke:#181818;stroke-width:1;stroke-dasharray:2,2;" x1="844.3423" x2="1335.0586" y1="450.5703" y2="450.5703"/><text fill="#000000" font-family="sans-serif" font-size="13" lengthAdjust="spacing" textLength="20.9473" x="856.3423" y="445.7139">row</text></g><g class="message" data-entity-1="part4" data-entity-2="part3" id="msg10"><polygon fill="#181818" points="535.8418,476.9219,525.8418,480.9219,535.8418,484.9219,531.8418,480.9219" style="stroke:#181818;stroke-width:1;"/><line style="stroke:#181818;stroke-width:1;stroke-dasharray:2,2;" x1="529.8418" x2="838.3423" y1="480.9219" y2="480.9219"/><text fill="#000000" font-family="sans-serif" font-size="13" lengthAdjust="spacing" textLength="67.9199" x="541.8418" y="476.0654">Transaction</text></g><g class="message" data-entity-1="part3" data-entity-2="part4" id="msg11"><polygon fill="#181818" points="827.3423,507.2734,837.3423,511.2734,827.3423,515.2734,831.3423,511.2734" style="stroke:#181818;stroke-width:1;"/><line style="stroke:#181818;stroke-width:1;" x1="524.8418" x2="833.3423" y1="511.2734" y2="511.2734"/><text fill="#000000" font-family="sans-serif" font-size="13" lengthAdjust="spacing" textLength="290.5005" x="531.8418" y="506.417">update_transaction(tid, new_amount, month, year)</text></g><g class="message" data-entity-1="part4" data-entity-2="part7" id="msg12"><polygon fill="#181818" points="1324.0586,537.625,1334.0586,541.625,1324.0586,545.625,1328.0586,541.625" style="stroke:#181818;stroke-width:1;"/><line style="stroke:#181818;stroke-width:1;" x1="839.3423" x2="1330.0586" y1="541.625" y2="541.625"/><text fill="#000000" font-family="sans-serif" font-size="13" lengthAdjust="spacing" textLength="191.458" x="846.3423" y="536.7686">execute(UPDATE transactions...)</text></g><path d="M447.9282,556.625 L508.0991,556.625 L508.0991,564.9766 L498.0991,574.9766 L447.9282,574.9766 L447.9282,556.625" fill="#EEEEEE" style="stroke:#000000;stroke-width:1.5;"/><rect fill="none" height="398.4063" style="stroke:#000000;stroke-width:1.5;" width="994.5161" x="447.9282" y="556.625"/><text fill="#000000" font-family="sans-serif" font-size="13" font-weight="bold" lengthAdjust="spacing" textLength="15.1709" x="462.9282" y="571.1201">alt</text><text fill="#000000" font-family="sans-serif" font-size="11" font-weight="bold" lengthAdjust="spacing" textLength="101.4653" x="523.0991" y="570.0439">[amount increased]</text><g class="message" data-entity-1="part3" data-entity-2="part5" id="msg13"><polygon fill="#181818" points="950.1763,593.3281,960.1763,597.3281,950.1763,601.3281,954.1763,597.3281" style="stroke:#181818;stroke-width:1;"/><line style="stroke:#181818;stroke-width:1;" x1="524.8418" x2="956.1763" y1="597.3281" y2="597.3281"/><text fill="#000000" font-family="sans-serif" font-size="13" lengthAdjust="spacing" textLength="158.2534" x="531.8418" y="592.4717">check_budget(month, year)</text></g><g class="message" data-entity-1="part5" data-entity-2="part6" id="msg14"><polygon fill="#181818" points="1132.4297,623.6797,1142.4297,627.6797,1132.4297,631.6797,1136.4297,627.6797" style="stroke:#181818;stroke-width:1;"/><line style="stroke:#181818;stroke-width:1;" x1="962.1763" x2="1138.4297" y1="627.6797" y2="627.6797"/><text fill="#000000" font-family="sans-serif" font-size="13" lengthAdjust="spacing" textLength="158.2534" x="969.1763" y="622.8232">check_budget(month, year)</text></g><g class="message" data-entity-1="part6" data-entity-2="part7" id="msg15"><polygon fill="#181818" points="1324.0586,654.0313,1334.0586,658.0313,1324.0586,662.0313,1328.0586,658.0313" style="stroke:#181818;stroke-width:1;"/><line style="stroke:#181818;stroke-width:1;" x1="1144.4297" x2="1330.0586" y1="658.0313" y2="658.0313"/><text fill="#000000" font-family="sans-serif" font-size="13" lengthAdjust="spacing" textLength="165.4707" x="1151.4297" y="653.1748">execute(SELECT budgets...)</text></g><g class="message" data-entity-1="part7" data-entity-2="part6" id="msg16"><polygon fill="#181818" points="1155.4297,684.3828,1145.4297,688.3828,1155.4297,692.3828,1151.4297,688.3828" style="stroke:#181818;stroke-width:1;"/><line style="stroke:#181818;stroke-width:1;stroke-dasharray:2,2;" x1="1149.4297" x2="1335.0586" y1="688.3828" y2="688.3828"/><text fill="#000000" font-family="sans-serif" font-size="13" lengthAdjust="spacing" textLength="20.9473" x="1161.4297" y="683.5264">row</text></g><g class="message" data-entity-1="part6" data-entity-2="part5" id="msg17"><polygon fill="#181818" points="973.1763,714.7344,963.1763,718.7344,973.1763,722.7344,969.1763,718.7344" style="stroke:#181818;stroke-width:1;"/><line style="stroke:#181818;stroke-width:1;stroke-dasharray:2,2;" x1="967.1763" x2="1143.4297" y1="718.7344" y2="718.7344"/><text fill="#000000" font-family="sans-serif" font-size="13" lengthAdjust="spacing" textLength="41.2026" x="979.1763" y="713.8779">Budget</text></g><g class="message" data-entity-1="part5" data-entity-2="part3" id="msg18"><polygon fill="#181818" points="535.8418,745.0859,525.8418,749.0859,535.8418,753.0859,531.8418,749.0859" style="stroke:#181818;stroke-width:1;"/><line style="stroke:#181818;stroke-width:1;stroke-dasharray:2,2;" x1="529.8418" x2="961.1763" y1="749.0859" y2="749.0859"/><text fill="#000000" font-family="sans-serif" font-size="13" lengthAdjust="spacing" textLength="41.2026" x="541.8418" y="744.2295">Budget</text></g><g class="message" data-entity-1="part3" data-entity-2="part5" id="msg19"><polygon fill="#181818" points="950.1763,775.4375,960.1763,779.4375,950.1763,783.4375,954.1763,779.4375" style="stroke:#181818;stroke-width:1;"/><line style="stroke:#181818;stroke-width:1;" x1="524.8418" x2="956.1763" y1="779.4375" y2="779.4375"/><text fill="#000000" font-family="sans-serif" font-size="13" lengthAdjust="spacing" textLength="260.8696" x="531.8418" y="774.5811">deduct_from_budget(difference, month, year)</text></g><g class="message" data-entity-1="part5" data-entity-2="part6" id="msg20"><polygon fill="#181818" points="1132.4297,805.7891,1142.4297,809.7891,1132.4297,813.7891,1136.4297,809.7891" style="stroke:#181818;stroke-width:1;"/><line style="stroke:#181818;stroke-width:1;" x1="962.1763" x2="1138.4297" y1="809.7891" y2="809.7891"/><text fill="#000000" font-family="sans-serif" font-size="13" lengthAdjust="spacing" textLength="138.7471" x="969.1763" y="804.9326">deduct_from_budget(...)</text></g><g class="message" data-entity-1="part6" data-entity-2="part7" id="msg21"><polygon fill="#181818" points="1324.0586,836.1406,1334.0586,840.1406,1324.0586,844.1406,1328.0586,840.1406" style="stroke:#181818;stroke-width:1;"/><line style="stroke:#181818;stroke-width:1;" x1="1144.4297" x2="1330.0586" y1="840.1406" y2="840.1406"/><text fill="#000000" font-family="sans-serif" font-size="13" lengthAdjust="spacing" textLength="167.6289" x="1151.4297" y="835.2842">execute(UPDATE budgets...)</text></g><line style="stroke:#000000;stroke-width:1;stroke-dasharray:2,2;" x1="447.9282" x2="1442.4443" y1="849.1406" y2="849.1406"/><text fill="#000000" font-family="sans-serif" font-size="11" font-weight="bold" lengthAdjust="spacing" textLength="104.5269" x="452.9282" y="860.5596">[amount decreased]</text><g class="message" data-entity-1="part3" data-entity-2="part5" id="msg22"><polygon fill="#181818" points="950.1763,882.3281,960.1763,886.3281,950.1763,890.3281,954.1763,886.3281" style="stroke:#181818;stroke-width:1;"/><line style="stroke:#181818;stroke-width:1;" x1="524.8418" x2="956.1763" y1="886.3281" y2="886.3281"/><text fill="#000000" font-family="sans-serif" font-size="13" lengthAdjust="spacing" textLength="257.9878" x="531.8418" y="881.4717">add_to_budget(abs(difference), month, year)</text></g><g class="message" data-entity-1="part5" data-entity-2="part6" id="msg23"><polygon fill="#181818" points="1132.4297,912.6797,1142.4297,916.6797,1132.4297,920.6797,1136.4297,916.6797" style="stroke:#181818;stroke-width:1;"/><line style="stroke:#181818;stroke-width:1;" x1="962.1763" x2="1138.4297" y1="916.6797" y2="916.6797"/><text fill="#000000" font-family="sans-serif" font-size="13" lengthAdjust="spacing" textLength="106.2471" x="969.1763" y="911.8232">add_to_budget(...)</text></g><g class="message" data-entity-1="part6" data-entity-2="part7" id="msg24"><polygon fill="#181818" points="1324.0586,943.0313,1334.0586,947.0313,1324.0586,951.0313,1328.0586,947.0313" style="stroke:#181818;stroke-width:1;"/><line style="stroke:#181818;stroke-width:1;" x1="1144.4297" x2="1330.0586" y1="947.0313" y2="947.0313"/><text fill="#000000" font-family="sans-serif" font-size="13" lengthAdjust="spacing" textLength="167.6289" x="1151.4297" y="942.1748">execute(UPDATE budgets...)</text></g><g class="message" data-entity-1="part2" data-entity-2="part1" id="msg25"><polygon fill="#181818" points="48.7793,980.3828,38.7793,984.3828,48.7793,988.3828,44.7793,984.3828" style="stroke:#181818;stroke-width:1;"/><line style="stroke:#181818;stroke-width:1;stroke-dasharray:2,2;" x1="42.7793" x2="199.9341" y1="984.3828" y2="984.3828"/><text fill="#000000" font-family="sans-serif" font-size="13" lengthAdjust="spacing" textLength="131.3647" x="54.7793" y="979.5264">"Transaction updated!"</text></g><?plantuml-src bPHDZvim48Rl_XLJJY0bzBw7LcMJmqevj43EoB4dkrR1HcPeDl--DXzPauzMUqCpppj-_J90Ycg4hLG4fUMwuuAKqH3lL4TXOVqjx1Te_oY1AJfTHH_rX37tO2piExIivPQKK2tN1D7rmBXNNu-skIgdxJc9W7UmVrdARmyViB9uYENOcf79bqpMorUaS4fMt2Ck0xASIKxym3k4gFYrKuGGRwRAiz4QnyiFy2PZpD_U9xP_WITm0E4xGOEwXyWd7J7NcDkjDKrBeF44l36zfgbP5gxfN8JnLYTkjTAliQbbDT8hhvoU4-P4wtdmn7w7sBHUpEk4yPgWz-O4rmBhZe5d1uclFa57fcMkWI2SRQLxd939qFKBZqd9qC8A6gTxMy4PkKsSrZjoslpEPGxdIaa_OE1opsqoVyOxYfumBhQxxNC9WQHBqzJ33blFKwqvJVBPOx03REcWRzrxnC_vl_Mr_xdvKMvlVJdQvpiE0gM5HRSVqfLd4vct9zvG_AuEmuh5LwU1HpoO_nzy6DYecBEwf9Lzf3MgPqFZjbzEdsCCoe5xYR8NL1tTrixMf3eUqQ9Rg9lq5lUv8xrup1x6lBpDi9fJmX8V9CobhCZCP_135rXC_krnAVsyFIrlFgdmdpHjeFmICO_-1G00?></g></svg>