<?plantuml 1.2026.2?><svg xmlns="http://www.w3.org/2000/svg" xmlns:xlink="http://www.w3.org/1999/xlink" contentStyleType="text/css" data-diagram-type="SEQUENCE" height="892px" preserveAspectRatio="none" style="width:1015px;height:892px;background:#FFFFFF;" version="1.1" viewBox="0 0 1015 892" width="1015px" zoomAndPan="magnify"><title>Add Budget (save_budget)</title><defs/><g><text fill="#000000" font-family="sans-serif" font-size="14" font-weight="bold" lengthAdjust="spacing" textLength="178.1172" x="419.5044" y="29.5332">Add Budget (save_budget)</text><rect fill="none" height="385.8906" style="stroke:#000000;stroke-width:1.5;" width="998.126" x="10" y="407.0313"/><rect fill="none" height="185.9453" style="stroke:#000000;stroke-width:1.5;" width="978.126" x="20" y="493.0859"/><g class="participant-lifeline" data-entity-uid="part1" data-qualified-name="User" id="part1-lifeline"><g><title>User</title><rect fill="#000000" fill-opacity="0.00000" height="688.7031" width="8" x="43.7793" y="121.2188"/><line style="stroke:#181818;stroke-width:0.5;stroke-dasharray:5,5;" x1="47" x2="47" y1="121.2188" y2="809.9219"/></g></g><g class="participant-lifeline" data-entity-uid="part2" data-qualified-name="UI" id="part2-lifeline"><g><title>AddBudget .ui.frmAddBudget.py.</title><rect fill="#000000" fill-opacity="0.00000" height="688.7031" width="8" x="181.2856" y="121.2188"/><line style="stroke:#181818;stroke-width:0.5;stroke-dasharray:5,5;" x1="184.5586" x2="184.5586" y1="121.2188" y2="809.9219"/></g></g><g class="participant-lifeline" data-entity-uid="part3" data-qualified-name="BS" id="part3-lifeline"><g><title>BudgetService</title><rect fill="#000000" fill-opacity="0.00000" height="688.7031" width="8" x="461.1025" y="121.2188"/><line style="stroke:#181818;stroke-width:0.5;stroke-dasharray:5,5;" x1="464.5752" x2="464.5752" y1="121.2188" y2="809.9219"/></g></g><g class="participant-lifeline" data-entity-uid="part4" data-qualified-name="BR" id="part4-lifeline"><g><title>BudgetRepo</title><rect fill="#000000" fill-opacity="0.00000" height="688.7031" width="8" x="696.1113" y="121.2188"/><line style="stroke:#181818;stroke-width:0.5;stroke-dasharray:5,5;" x1="699.1909" x2="699.1909" y1="121.2188" y2="809.9219"/></g></g><g class="participant-lifeline" data-entity-uid="part5" data-qualified-name="DB" id="part5-lifeline"><g><title>SQLite .DatabaseConnection.</title><rect fill="#000000" fill-opacity="0.00000" height="688.7031" width="8" x="887.7402" y="121.2188"/><line style="stroke:#181818;stroke-width:0.5;stroke-dasharray:5,5;" x1="891.3545" x2="891.3545" y1="121.2188" y2="809.9219"/></g></g><g class="participant participant-head" data-entity-uid="part1" data-qualified-name="User" id="part1-head"><text fill="#000000" font-family="sans-serif" font-size="14" lengthAdjust="spacing" textLength="29.5586" x="30" y="118.1426">User</text><ellipse cx="47.7793" cy="52.1094" fill="#E2E2F0" rx="8" ry="8" style="stroke:#181818;stroke-width:0.5;"/><path d="M47.7793,60.1094 L47.7793,87.1094 M34.7793,68.1094 L60.7793,68.1094 M47.7793,87.1094 L34.7793,102.1094 M47.7793,87.1094 L60.7793,102.1094" fill="none" style="stroke:#181818;stroke-width:0.5;"/></g><g class="participant participant-tail" data-entity-uid="part1" data-qualified-name="User" id="part1-tail"><text fill="#000000" font-family="sans-serif" font-size="14" lengthAdjust="spacing" textLength="29.5586" x="30" y="823.4551">User</text><ellipse cx="47.7793" cy="835.0313" fill="#E2E2F0" rx="8" ry="8" style="stroke:#181818;stroke-width:0.5;"/><path d="M47.7793,843.0313 L47.7793,870.0313 M34.7793,851.0313 L60.7793,851.0313 M47.7793,870.0313 L34.7793,885.0313 M47.7793,870.0313 L60.7793,885.0313" fill="none" style="stroke:#181818;stroke-width:0.5;"/></g><g class="participant participant-head" data-entity-uid="part2" data-qualified-name="UI" id="part2-head"><rect fill="#E2E2F0" height="31.6094" rx="2.5" ry="2.5" style="stroke:#181818;stroke-width:0.5;" width="219.4541" x="75.5586" y="88.6094"/><text fill="#000000" font-family="sans-serif" font-size="14" lengthAdjust="spacing" textLength="205.4541" x="82.5586" y="110.1426">AddBudget (ui/frmAddBudget.py)</text></g><g class="participant participant-tail" data-entity-uid="part2" data-qualified-name="UI" id="part2-tail"><rect fill="#E2E2F0" height="31.6094" rx="2.5" ry="2.5" style="stroke:#181818;stroke-width:0.5;" width="219.4541" x="75.5586" y="808.9219"/><text fill="#000000" font-family="sans-serif" font-size="14" lengthAdjust="spacing" textLength="205.4541" x="82.5586" y="830.4551">AddBudget (ui/frmAddBudget.py)</text></g><g class="participant participant-head" data-entity-uid="part3" data-qualified-name="BS" id="part3-head"><rect fill="#E2E2F0" height="31.6094" rx="2.5" ry="2.5" style="stroke:#181818;stroke-width:0.5;" width="105.0547" x="412.5752" y="88.6094"/><text fill="#000000" font-family="sans-serif" font-size="14" lengthAdjust="spacing" textLength="91.0547" x="419.5752" y="110.1426">BudgetService</text></g><g class="participant participant-tail" data-entity-uid="part3" data-qualified-name="BS" id="part3-tail"><rect fill="#E2E2F0" height="31.6094" rx="2.5" ry="2.5" style="stroke:#181818;stroke-width:0.5;" width="105.0547" x="412.5752" y="808.9219"/><text fill="#000000" font-family="sans-serif" font-size="14" lengthAdjust="spacing" textLength="91.0547" x="419.5752" y="830.4551">BudgetService</text></g><g class="participant participant-head" data-entity-uid="part4" data-qualified-name="BR" id="part4-head"><rect fill="#E2E2F0" height="31.6094" rx="2.5" ry="2.5" style="stroke:#181818;stroke-width:0.5;" width="91.8408" x="654.1909" y="88.6094"/><text fill="#000000" font-family="sans-serif" font-size="14" lengthAdjust="spacing" textLength="77.8408" x="661.1909" y="110.1426">BudgetRepo</text></g><g class="participant participant-tail" data-entity-uid="part4" data-qualified-name="BR" id="part4-tail"><rect fill="#E2E2F0" height="31.6094" rx="2.5" ry="2.5" style="stroke:#181818;stroke-width:0.5;" width="91.8408" x="654.1909" y="808.9219"/><text fill="#000000" font-family="sans-serif" font-size="14" lengthAdjust="spacing" textLength="77.8408" x="661.1909" y="830.4551">BudgetRepo</text></g><g class="participant participant-head" data-entity-uid="part5" data-qualified-name="DB" id="part5-head"><text fill="#000000" font-family="sans-serif" font-size="14" lengthAdjust="spacing" textLength="186.7715" x="795.3545" y="118.1426">SQLite (DatabaseConnection)</text><path d="M873.7402,67.6094 C873.7402,57.6094 891.7402,57.6094 891.7402,57.6094 C891.7402,57.6094 909.7402,57.6094 909.7402,67.6094 L909.7402,93.6094 C909.7402,103.6094 891.7402,103.6094 891.7402,103.6094 C891.7402,103.6094 873.7402,103.6094 873.7402,93.6094 L873.7402,67.6094" fill="#E2E2F0" style="stroke:#181818;stroke-width:0.5;"/><path d="M873.7402,67.6094 C873.7402,77.6094 891.7402,77.6094 891.7402,77.6094 C891.7402,77.6094 909.7402,77.6094 909.7402,67.6094" fill="none" style="stroke:#181818;stroke-width:0.5;"/></g><g class="participant participant-tail" data-entity-uid="part5" data-qualified-name="DB" id="part5-tail"><text fill="#000000" font-family="sans-serif" font-size="14" lengthAdjust="spacing" textLength="186.7715" x="795.3545" y="823.4551">SQLite (DatabaseConnection)</text><path d="M873.7402,836.5313 C873.7402,826.5313 891.7402,826.5313 891.7402,826.5313 C891.7402,826.5313 909.7402,826.5313 909.7402,836.5313 L909.7402,862.5313 C909.7402,872.5313 891.7402,872.5313 891.7402,872.5313 C891.7402,872.5313 873.7402,872.5313 873.7402,862.5313 L873.7402,836.5313" fill="#E2E2F0" style="stroke:#181818;stroke-width:0.5;"/><path d="M873.7402,836.5313 C873.7402,846.5313 891.7402,846.5313 891.7402,846.5313 C891.7402,846.5313 909.7402,846.5313 909.7402,836.5313" fill="none" style="stroke:#181818;stroke-width:0.5;"/></g><g class="message" data-entity-1="part1" data-entity-2="part2" id="msg1"><polygon fill="#181818" points="173.2856,149.5703,183.2856,153.5703,173.2856,157.5703,177.2856,153.5703" style="stroke:#181818;stroke-width:1;"/><line style="stroke:#181818;stroke-width:1;" x1="47.7793" x2="179.2856" y1="153.5703" y2="153.5703"/><text fill="#000000" font-family="sans-serif" font-size="13" lengthAdjust="spacing" textLength="70.6367" x="54.7793" y="148.7139">Click "Save"</text></g><g class="message" data-entity-1="part2" data-entity-2="part2" id="msg2"><line style="stroke:#181818;stroke-width:1;" x1="185.2856" x2="227.2856" y1="183.9219" y2="183.9219"/><line style="stroke:#181818;stroke-width:1;" x1="227.2856" x2="227.2856" y1="183.9219" y2="196.9219"/><line style="stroke:#181818;stroke-width:1;" x1="186.2856" x2="227.2856" y1="196.9219" y2="196.9219"/><polygon fill="#181818" points="196.2856,192.9219,186.2856,196.9219,196.2856,200.9219,192.2856,196.9219" style="stroke:#181818;stroke-width:1;"/><text fill="#000000" font-family="sans-serif" font-size="13" lengthAdjust="spacing" textLength="203.7788" x="192.2856" y="179.0654">parse/validate amount, month, year</text></g><g class="message" data-entity-1="part2" data-entity-2="part3" id="msg3"><polygon fill="#181818" points="453.1025,223.2734,463.1025,227.2734,453.1025,231.2734,457.1025,227.2734" style="stroke:#181818;stroke-width:1;"/><line style="stroke:#181818;stroke-width:1;" x1="185.2856" x2="459.1025" y1="227.2734" y2="227.2734"/><text fill="#000000" font-family="sans-serif" font-size="13" lengthAdjust="spacing" textLength="211.0088" x="192.2856" y="222.417">create_budget(amount, month, year)</text></g><g class="message" data-entity-1="part3" data-entity-2="part3" id="msg4"><line style="stroke:#181818;stroke-width:1;" x1="465.1025" x2="507.1025" y1="257.625" y2="257.625"/><line style="stroke:#181818;stroke-width:1;" x1="507.1025" x2="507.1025" y1="257.625" y2="270.625"/><line style="stroke:#181818;stroke-width:1;" x1="466.1025" x2="507.1025" y1="270.625" y2="270.625"/><polygon fill="#181818" points="476.1025,266.625,466.1025,270.625,476.1025,274.625,472.1025,270.625" style="stroke:#181818;stroke-width:1;"/><text fill="#000000" font-family="sans-serif" font-size="13" lengthAdjust="spacing" textLength="111.2935" x="472.1025" y="252.7686">validate_budget(...)</text></g><g class="message" data-entity-1="part3" data-entity-2="part4" id="msg5"><polygon fill="#181818" points="688.1113,296.9766,698.1113,300.9766,688.1113,304.9766,692.1113,300.9766" style="stroke:#181818;stroke-width:1;"/><line style="stroke:#181818;stroke-width:1;" x1="465.1025" x2="694.1113" y1="300.9766" y2="300.9766"/><text fill="#000000" font-family="sans-serif" font-size="13" lengthAdjust="spacing" textLength="158.2534" x="472.1025" y="296.1201">check_budget(month, year)</text></g><g class="message" data-entity-1="part4" data-entity-2="part5" id="msg6"><polygon fill="#181818" points="879.7402,327.3281,889.7402,331.3281,879.7402,335.3281,883.7402,331.3281" style="stroke:#181818;stroke-width:1;"/><line style="stroke:#181818;stroke-width:1;" x1="700.1113" x2="885.7402" y1="331.3281" y2="331.3281"/><text fill="#000000" font-family="sans-serif" font-size="13" lengthAdjust="spacing" textLength="165.4707" x="707.1113" y="326.4717">execute(SELECT budgets...)</text></g><g class="message" data-entity-1="part5" data-entity-2="part4" id="msg7"><polygon fill="#181818" points="711.1113,357.6797,701.1113,361.6797,711.1113,365.6797,707.1113,361.6797" style="stroke:#181818;stroke-width:1;"/><line style="stroke:#181818;stroke-width:1;stroke-dasharray:2,2;" x1="705.1113" x2="890.7402" y1="361.6797" y2="361.6797"/><text fill="#000000" font-family="sans-serif" font-size="13" lengthAdjust="spacing" textLength="55.6372" x="717.1113" y="356.8232">row/None</text></g><g class="message" data-entity-1="part4" data-entity-2="part3" id="msg8"><polygon fill="#181818" points="476.1025,388.0313,466.1025,392.0313,476.1025,396.0313,472.1025,392.0313" style="stroke:#181818;stroke-width:1;"/><line style="stroke:#181818;stroke-width:1;stroke-dasharray:2,2;" x1="470.1025" x2="699.1113" y1="392.0313" y2="392.0313"/><text fill="#000000" font-family="sans-serif" font-size="13" lengthAdjust="spacing" textLength="41.2026" x="482.1025" y="387.1748">Budget</text></g><path d="M10,407.0313 L70.1709,407.0313 L70.1709,415.3828 L60.1709,425.3828 L10,425.3828 L10,407.0313" fill="#EEEEEE" style="stroke:#000000;stroke-width:1.5;"/><rect fill="none" height="385.8906" style="stroke:#000000;stroke-width:1.5;" width="998.126" x="10" y="407.0313"/><text fill="#000000" font-family="sans-serif" font-size="13" font-weight="bold" lengthAdjust="spacing" textLength="15.1709" x="25" y="421.5264">alt</text><text fill="#000000" font-family="sans-serif" font-size="11" font-weight="bold" lengthAdjust="spacing" textLength="78.23" x="85.1709" y="420.4502">[budget exists]</text><g class="message" data-entity-1="part3" data-entity-2="part2" id="msg9"><polygon fill="#181818" points="196.2856,443.7344,186.2856,447.7344,196.2856,451.7344,192.2856,447.7344" style="stroke:#181818;stroke-width:1;"/><line style="stroke:#181818;stroke-width:1;stroke-dasharray:2,2;" x1="190.2856" x2="464.1025" y1="447.7344" y2="447.7344"/><text fill="#000000" font-family="sans-serif" font-size="13" lengthAdjust="spacing" textLength="123.2207" x="202.2856" y="442.8779">{exists=True, budget}</text></g><g class="message" data-entity-1="part2" data-entity-2="part1" id="msg10"><polygon fill="#181818" points="58.7793,474.0859,48.7793,478.0859,58.7793,482.0859,54.7793,478.0859" style="stroke:#181818;stroke-width:1;"/><line style="stroke:#181818;stroke-width:1;" x1="52.7793" x2="184.2856" y1="478.0859" y2="478.0859"/><text fill="#000000" font-family="sans-serif" font-size="13" lengthAdjust="spacing" textLength="93.2217" x="64.7793" y="473.2295">confirm update?</text></g><path d="M20,493.0859 L80.1709,493.0859 L80.1709,501.4375 L70.1709,511.4375 L20,511.4375 L20,493.0859" fill="#EEEEEE" style="stroke:#000000;stroke-width:1.5;"/><rect fill="none" height="185.9453" style="stroke:#000000;stroke-width:1.5;" width="978.126" x="20" y="493.0859"/><text fill="#000000" font-family="sans-serif" font-size="13" font-weight="bold" lengthAdjust="spacing" textLength="15.1709" x="35" y="507.5811">alt</text><text fill="#000000" font-family="sans-serif" font-size="11" font-weight="bold" lengthAdjust="spacing" textLength="80.0723" x="95.1709" y="506.5049">[user confirms]</text><g class="message" data-entity-1="part2" data-entity-2="part3" id="msg11"><polygon fill="#181818" points="453.1025,529.7891,463.1025,533.7891,453.1025,537.7891,457.1025,533.7891" style="stroke:#181818;stroke-width:1;"/><line style="stroke:#181818;stroke-width:1;" x1="185.2856" x2="459.1025" y1="533.7891" y2="533.7891"/><text fill="#000000" font-family="sans-serif" font-size="13" lengthAdjust="spacing" textLength="255.8169" x="192.2856" y="528.9326">increase_budget_total(amount, month, year)</text></g><g class="message" data-entity-1="part3" data-entity-2="part4" id="msg12"><polygon fill="#181818" points="688.1113,560.1406,698.1113,564.1406,688.1113,568.1406,692.1113,564.1406" style="stroke:#181818;stroke-width:1;"/><line style="stroke:#181818;stroke-width:1;" x1="465.1025" x2="694.1113" y1="564.1406" y2="564.1406"/><text fill="#000000" font-family="sans-serif" font-size="13" lengthAdjust="spacing" textLength="147.4243" x="472.1025" y="559.2842">increase_budget_total(...)</text></g><g class="message" data-entity-1="part4" data-entity-2="part5" id="msg13"><polygon fill="#181818" points="879.7402,590.4922,889.7402,594.4922,879.7402,598.4922,883.7402,594.4922" style="stroke:#181818;stroke-width:1;"/><line style="stroke:#181818;stroke-width:1;" x1="700.1113" x2="885.7402" y1="594.4922" y2="594.4922"/><text fill="#000000" font-family="sans-serif" font-size="13" lengthAdjust="spacing" textLength="167.6289" x="707.1113" y="589.6357">execute(UPDATE budgets...)</text></g><g class="message" data-entity-1="part2" data-entity-2="part1" id="msg14"><polygon fill="#181818" points="58.7793,620.8438,48.7793,624.8438,58.7793,628.8438,54.7793,624.8438" style="stroke:#181818;stroke-width:1;"/><line style="stroke:#181818;stroke-width:1;stroke-dasharray:2,2;" x1="52.7793" x2="184.2856" y1="624.8438" y2="624.8438"/><text fill="#000000" font-family="sans-serif" font-size="13" lengthAdjust="spacing" textLength="104.6475" x="64.7793" y="619.9873">"Budget updated!"</text></g><line style="stroke:#000000;stroke-width:1;stroke-dasharray:2,2;" x1="20" x2="998.126" y1="633.8438" y2="633.8438"/><text fill="#000000" font-family="sans-serif" font-size="11" font-weight="bold" lengthAdjust="spacing" textLength="73.9814" x="25" y="645.2627">[user cancels]</text><g class="message" data-entity-1="part2" data-entity-2="part1" id="msg15"><polygon fill="#181818" points="58.7793,667.0313,48.7793,671.0313,58.7793,675.0313,54.7793,671.0313" style="stroke:#181818;stroke-width:1;"/><line style="stroke:#181818;stroke-width:1;stroke-dasharray:2,2;" x1="52.7793" x2="184.2856" y1="671.0313" y2="671.0313"/><text fill="#000000" font-family="sans-serif" font-size="13" lengthAdjust="spacing" textLength="24.5718" x="64.7793" y="666.1748">stop</text></g><line style="stroke:#000000;stroke-width:1;stroke-dasharray:2,2;" x1="10" x2="1008.126" y1="687.0313" y2="687.0313"/><text fill="#000000" font-family="sans-serif" font-size="11" font-weight="bold" lengthAdjust="spacing" textLength="68.4331" x="15" y="698.4502">[new budget]</text><g class="message" data-entity-1="part3" data-entity-2="part4" id="msg16"><polygon fill="#181818" points="688.1113,720.2188,698.1113,724.2188,688.1113,728.2188,692.1113,724.2188" style="stroke:#181818;stroke-width:1;"/><line style="stroke:#181818;stroke-width:1;" x1="465.1025" x2="694.1113" y1="724.2188" y2="724.2188"/><text fill="#000000" font-family="sans-serif" font-size="13" lengthAdjust="spacing" textLength="211.0088" x="472.1025" y="719.3623">create_budget(amount, month, year)</text></g><g class="message" data-entity-1="part4" data-entity-2="part5" id="msg17"><polygon fill="#181818" points="879.7402,750.5703,889.7402,754.5703,879.7402,758.5703,883.7402,754.5703" style="stroke:#181818;stroke-width:1;"/><line style="stroke:#181818;stroke-width:1;" x1="700.1113" x2="885.7402" y1="754.5703" y2="754.5703"/><text fill="#000000" font-family="sans-serif" font-size="13" lengthAdjust="spacing" textLength="162.5698" x="707.1113" y="749.7139">execute(INSERT budgets...)</text></g><g class="message" data-entity-1="part2" data-entity-2="part1" id="msg18"><polygon fill="#181818" points="58.7793,780.9219,48.7793,784.9219,58.7793,788.9219,54.7793,784.9219" style="stroke:#181818;stroke-width:1;"/><line style="stroke:#181818;stroke-width:1;stroke-dasharray:2,2;" x1="52.7793" x2="184.2856" y1="784.9219" y2="784.9219"/><text fill="#000000" font-family="sans-serif" font-size="13" lengthAdjust="spacing" textLength="92.3457" x="64.7793" y="780.0654">"Budget saved!"</text></g><?plantuml-src ZPDFJyCm3CNl-HIcfqtQdpiI8BhjC6b2q6vd558F8hgaIjm1Gdntd3O11ZrmhFrxzlDRHffgXEkgWhoj7f5WvEKHxn-wZx4GKf5riFFeH2CTQQKRQGWoLYH1g-TxT_Wgp9gtSGRImsvzAkdR9RgZLjWHUJb45DZOlbs8If9ya1uXA-yscX16orXPM6DGaRQctxRCXGWsONh9c-4S5hLMpwpZSpB1bLJdZHxdHrbh7euW3xOrD863DVGqWJUKBj9voRHoo5JCOpG0ZmLpYKvJ4p-RpRxwHPZsXEevDK-7505QvWpXAwgMS5IkDgl55dhQTwEuFqspd7sPtrY3dJGPw1FadwscAEHnsfCN481f2k6zhrviNOkJI7um4tCAER9RQ_RQ7Q1jmarNt0vZsz2ChJ0sYRhzseJ0V0hWdYp9UZYseFmHpR2okxeZ_-QpkrrURrSd-IGttpV4DnLlgCuoPh3c1zMV8OtYhm6T9zi4r5IYmms-n4tYnFO_tiUW-VLDkIgslymFMmz_o60yUFa4?></g></svg>