<?plantuml 1.2026.2?><svg xmlns="http://www.w3.org/2000/svg" xmlns:xlink="http://www.w3.org/1999/xlink" contentStyleType="text/css" data-diagram-type="CLASS" height="1044px" preserveAspectRatio="none" style="width:3250px;height:1044px;background:#FFFFFF;" version="1.1" viewBox="0 0 3250 1044" width="3250px" zoomAndPan="magnify"><defs/><g><!--cluster models--><g class="cluster" data-qualified-name="models" data-source-line="4" id="ent0002"><path d="M1540.5,839 L1590.5137,839 A3.75,3.75 0 0 1 1593.0137,841.5 L1600.0137,862.6094 L2023.5,862.6094 A2.5,2.5 0 0 1 2026,865.1094 L2026,1034.5 A2.5,2.5 0 0 1 2023.5,1037 L1540.5,1037 A2.5,2.5 0 0 1 1538,1034.5 L1538,841.5 A2.5,2.5 0 0 1 1540.5,839" fill="none" style="stroke:#000000;stroke-width:1.5;"/><line style="stroke:#000000;stroke-width:1.5;" x1="1538" x2="1600.0137" y1="862.6094" y2="862.6094"/><text fill="#000000" font-family="sans-serif" font-size="14" font-weight="bold" lengthAdjust="spacing" textLength="49.0137" x="1542" y="855.5332">models</text></g><!--cluster database--><g class="cluster" data-qualified-name="database" data-source-line="31" id="ent0006"><path d="M2052.5,874.5 L2114.1963,874.5 A3.75,3.75 0 0 1 2116.6963,877 L2123.6963,898.1094 L2345.5,898.1094 A2.5,2.5 0 0 1 2348,900.6094 L2348,999 A2.5,2.5 0 0 1 2345.5,1001.5 L2052.5,1001.5 A2.5,2.5 0 0 1 2050,999 L2050,877 A2.5,2.5 0 0 1 2052.5,874.5" fill="none" style="stroke:#000000;stroke-width:1.5;"/><line style="stroke:#000000;stroke-width:1.5;" x1="2050" x2="2123.6963" y1="898.1094" y2="898.1094"/><text fill="#000000" font-family="sans-serif" font-size="14" font-weight="bold" lengthAdjust="spacing" textLength="60.6963" x="2054" y="891.0332">database</text></g><!--cluster repository (interfaces)--><g class="cluster" data-qualified-name="repository .interfaces." data-source-line="38" id="ent0008"><path d="M8.5,422 L157.3203,422 A3.75,3.75 0 0 1 159.8203,424.5 L166.8203,445.6094 L1732.5,445.6094 A2.5,2.5 0 0 1 1735,448.1094 L1735,669.5 A2.5,2.5 0 0 1 1732.5,672 L8.5,672 A2.5,2.5 0 0 1 6,669.5 L6,424.5 A2.5,2.5 0 0 1 8.5,422" fill="none" style="stroke:#000000;stroke-width:1.5;"/><line style="stroke:#000000;stroke-width:1.5;" x1="6" x2="166.8203" y1="445.6094" y2="445.6094"/><text fill="#000000" font-family="sans-serif" font-size="14" font-weight="bold" lengthAdjust="spacing" textLength="147.8203" x="10" y="438.5332">repository (interfaces)</text></g><!--cluster repository (implementations)--><g class="cluster" data-qualified-name="repository .implementations." data-source-line="72" id="ent0013"><path d="M1687.5,705 L1881.417,705 A3.75,3.75 0 0 1 1883.917,707.5 L1890.917,728.6094 L2260.5,728.6094 A2.5,2.5 0 0 1 2263,731.1094 L2263,786.5 A2.5,2.5 0 0 1 2260.5,789 L1687.5,789 A2.5,2.5 0 0 1 1685,786.5 L1685,707.5 A2.5,2.5 0 0 1 1687.5,705" fill="none" style="stroke:#000000;stroke-width:1.5;"/><line style="stroke:#000000;stroke-width:1.5;" x1="1685" x2="1890.917" y1="728.6094" y2="728.6094"/><text fill="#000000" font-family="sans-serif" font-size="14" font-weight="bold" lengthAdjust="spacing" textLength="192.917" x="1689" y="721.5332">repository (implementations)</text></g><!--cluster services (interfaces)--><g class="cluster" data-qualified-name="services .interfaces." data-source-line="79" id="ent0018"><path d="M862.5,6 L998.9131,6 A3.75,3.75 0 0 1 1001.4131,8.5 L1008.4131,29.6094 L2628.5,29.6094 A2.5,2.5 0 0 1 2631,32.1094 L2631,271.5 A2.5,2.5 0 0 1 2628.5,274 L862.5,274 A2.5,2.5 0 0 1 860,271.5 L860,8.5 A2.5,2.5 0 0 1 862.5,6" fill="none" style="stroke:#000000;stroke-width:1.5;"/><line style="stroke:#000000;stroke-width:1.5;" x1="860" x2="1008.4131" y1="29.6094" y2="29.6094"/><text fill="#000000" font-family="sans-serif" font-size="14" font-weight="bold" lengthAdjust="spacing" textLength="135.4131" x="864" y="22.5332">services (interfaces)</text></g><!--cluster services (implementations)--><g class="cluster" data-qualified-name="services .implementations." data-source-line="128" id="ent0024"><path d="M1761.5,307 L1943.0098,307 A3.75,3.75 0 0 1 1945.5098,309.5 L1952.5098,330.6094 L2411.5,330.6094 A2.5,2.5 0 0 1 2414,333.1094 L2414,586.5 A2.5,2.5 0 0 1 2411.5,589 L1761.5,589 A2.5,2.5 0 0 1 1759,586.5 L1759,309.5 A2.5,2.5 0 0 1 1761.5,307" fill="none" style="stroke:#000000;stroke-width:1.5;"/><line style="stroke:#000000;stroke-width:1.5;" x1="1759" x2="1952.5098" y1="330.6094" y2="330.6094"/><text fill="#000000" font-family="sans-serif" font-size="14" font-weight="bold" lengthAdjust="spacing" textLength="180.5098" x="1763" y="323.5332">services (implementations)</text></g><!--cluster ui--><g class="cluster" data-qualified-name="ui" data-source-line="136" id="ent0030"><path d="M2657.5,98 L2670.9414,98 A3.75,3.75 0 0 1 2673.4414,100.5 L2680.4414,121.6094 L3240.5,121.6094 A2.5,2.5 0 0 1 3243,124.1094 L3243,179.5 A2.5,2.5 0 0 1 3240.5,182 L2657.5,182 A2.5,2.5 0 0 1 2655,179.5 L2655,100.5 A2.5,2.5 0 0 1 2657.5,98" fill="none" style="stroke:#000000;stroke-width:1.5;"/><line style="stroke:#000000;stroke-width:1.5;" x1="2655" x2="2680.4414" y1="121.6094" y2="121.6094"/><text fill="#000000" font-family="sans-serif" font-size="14" font-weight="bold" lengthAdjust="spacing" textLength="12.4414" x="2659" y="114.5332">ui</text></g><!--class Transaction--><g class="entity" data-qualified-name="models.Transaction" data-source-line="5" id="ent0003"><rect fill="#F1F1F1" height="128.0469" rx="2.5" ry="2.5" style="stroke:#181818;stroke-width:0.5;" width="105.1445" x="1741.5" y="884"/><ellipse cx="1756.5" cy="900" fill="#ADD1B2" rx="11" ry="11" style="stroke:#181818;stroke-width:1;"/><path d="M1759.2656,895.875 Q1759.4219,895.6563 1759.6094,895.5469 Q1759.7969,895.4375 1760.0156,895.4375 Q1760.3906,895.4375 1760.625,895.7031 Q1760.8594,895.9531 1760.8594,896.5625 L1760.8594,898.0156 Q1760.8594,898.625 1760.625,898.8906 Q1760.3906,899.1563 1760.0156,899.1563 Q1759.6719,899.1563 1759.4688,898.9531 Q1759.2656,898.7656 1759.1563,898.25 Q1759.1094,897.8906 1758.9219,897.7031 Q1758.5938,897.3281 1757.9844,897.1094 Q1757.375,896.8906 1756.75,896.8906 Q1755.9844,896.8906 1755.3438,897.2188 Q1754.7188,897.5469 1754.2188,898.2969 Q1753.7344,899.0469 1753.7344,900.0781 L1753.7344,901.1719 Q1753.7344,902.4063 1754.625,903.2344 Q1755.5156,904.0469 1757.1094,904.0469 Q1758.0469,904.0469 1758.7031,903.7969 Q1759.0938,903.6406 1759.5156,903.2031 Q1759.7813,902.9375 1759.9219,902.8594 Q1760.0781,902.7813 1760.2813,902.7813 Q1760.6094,902.7813 1760.8594,903.0469 Q1761.125,903.2969 1761.125,903.6406 Q1761.125,903.9844 1760.7813,904.3906 Q1760.2813,904.9688 1759.4844,905.2969 Q1758.4063,905.75 1757.1094,905.75 Q1755.5938,905.75 1754.3906,905.125 Q1753.4063,904.625 1752.7188,903.5625 Q1752.0313,902.4844 1752.0313,901.2031 L1752.0313,900.0469 Q1752.0313,898.7188 1752.6406,897.5781 Q1753.2656,896.4219 1754.3594,895.8125 Q1755.4531,895.1875 1756.6875,895.1875 Q1757.4219,895.1875 1758.0625,895.3594 Q1758.7188,895.5156 1759.2656,895.875 Z " fill="#000000"/><text fill="#000000" font-family="sans-serif" font-size="14" lengthAdjust="spacing" textLength="73.1445" x="1770.5" y="905.7285">Transaction</text><line style="stroke:#181818;stroke-width:0.5;" x1="1742.5" x2="1845.6445" y1="916" y2="916"/><text fill="#000000" font-family="sans-serif" font-size="14" lengthAdjust="spacing" textLength="49.4238" x="1747.5" y="934.5332">+id: int?</text><text fill="#000000" font-family="sans-serif" font-size="14" lengthAdjust="spacing" textLength="89.1133" x="1747.5" y="952.1426">+amount: float</text><text fill="#000000" font-family="sans-serif" font-size="14" lengthAdjust="spacing" textLength="85.2031" x="1747.5" y="969.752">+category: str</text><text fill="#000000" font-family="sans-serif" font-size="14" lengthAdjust="spacing" textLength="69.6514" x="1747.5" y="987.3613">+month: int</text><text fill="#000000" font-family="sans-serif" font-size="14" lengthAdjust="spacing" textLength="57.9756" x="1747.5" y="1004.9707">+year: int</text></g><!--class Budget--><g class="entity" data-qualified-name="models.Budget" data-source-line="13" id="ent0004"><rect fill="#F1F1F1" height="128.0469" rx="2.5" ry="2.5" style="stroke:#181818;stroke-width:0.5;" width="127.5752" x="1882" y="884"/><ellipse cx="1920.0414" cy="900" fill="#ADD1B2" rx="11" ry="11" style="stroke:#181818;stroke-width:1;"/><path d="M1922.807,895.875 Q1922.9633,895.6563 1923.1508,895.5469 Q1923.3383,895.4375 1923.557,895.4375 Q1923.932,895.4375 1924.1664,895.7031 Q1924.4008,895.9531 1924.4008,896.5625 L1924.4008,898.0156 Q1924.4008,898.625 1924.1664,898.8906 Q1923.932,899.1563 1923.557,899.1563 Q1923.2133,899.1563 1923.0102,898.9531 Q1922.807,898.7656 1922.6977,898.25 Q1922.6508,897.8906 1922.4633,897.7031 Q1922.1352,897.3281 1921.5258,897.1094 Q1920.9164,896.8906 1920.2914,896.8906 Q1919.5258,896.8906 1918.8852,897.2188 Q1918.2602,897.5469 1917.7602,898.2969 Q1917.2758,899.0469 1917.2758,900.0781 L1917.2758,901.1719 Q1917.2758,902.4063 1918.1664,903.2344 Q1919.057,904.0469 1920.6508,904.0469 Q1921.5883,904.0469 1922.2445,903.7969 Q1922.6352,903.6406 1923.057,903.2031 Q1923.3227,902.9375 1923.4633,902.8594 Q1923.6195,902.7813 1923.8227,902.7813 Q1924.1508,902.7813 1924.4008,903.0469 Q1924.6664,903.2969 1924.6664,903.6406 Q1924.6664,903.9844 1924.3227,904.3906 Q1923.8227,904.9688 1923.0258,905.2969 Q1921.9477,905.75 1920.6508,905.75 Q1919.1352,905.75 1917.932,905.125 Q1916.9477,904.625 1916.2602,903.5625 Q1915.5727,902.4844 1915.5727,901.2031 L1915.5727,900.0469 Q1915.5727,898.7188 1916.182,897.5781 Q1916.807,896.4219 1917.9008,895.8125 Q1918.9945,895.1875 1920.2289,895.1875 Q1920.9633,895.1875 1921.6039,895.3594 Q1922.2602,895.5156 1922.807,895.875 Z " fill="#000000"/><text fill="#000000" font-family="sans-serif" font-size="14" lengthAdjust="spacing" textLength="44.3721" x="1939.1617" y="905.7285">Budget</text><line style="stroke:#181818;stroke-width:0.5;" x1="1883" x2="2008.5752" y1="916" y2="916"/><text fill="#000000" font-family="sans-serif" font-size="14" lengthAdjust="spacing" textLength="49.4238" x="1888" y="934.5332">+id: int?</text><text fill="#000000" font-family="sans-serif" font-size="14" lengthAdjust="spacing" textLength="89.1133" x="1888" y="952.1426">+amount: float</text><text fill="#000000" font-family="sans-serif" font-size="14" lengthAdjust="spacing" textLength="115.5752" x="1888" y="969.752">+totalamount: float</text><text fill="#000000" font-family="sans-serif" font-size="14" lengthAdjust="spacing" textLength="69.6514" x="1888" y="987.3613">+month: int</text><text fill="#000000" font-family="sans-serif" font-size="14" lengthAdjust="spacing" textLength="57.9756" x="1888" y="1004.9707">+year: int</text></g><!--class Goal--><g class="entity" data-qualified-name="models.Goal" data-source-line="21" id="ent0005"><rect fill="#F1F1F1" height="145.6563" rx="2.5" ry="2.5" style="stroke:#181818;stroke-width:0.5;" width="151.6924" x="1554" y="875"/><ellipse cx="1610.8101" cy="891" fill="#ADD1B2" rx="11" ry="11" style="stroke:#181818;stroke-width:1;"/><path d="M1613.5757,886.875 Q1613.7319,886.6563 1613.9194,886.5469 Q1614.1069,886.4375 1614.3257,886.4375 Q1614.7007,886.4375 1614.9351,886.7031 Q1615.1694,886.9531 1615.1694,887.5625 L1615.1694,889.0156 Q1615.1694,889.625 1614.9351,889.8906 Q1614.7007,890.1563 1614.3257,890.1563 Q1613.9819,890.1563 1613.7788,889.9531 Q1613.5757,889.7656 1613.4663,889.25 Q1613.4194,888.8906 1613.2319,888.7031 Q1612.9038,888.3281 1612.2944,888.1094 Q1611.6851,887.8906 1611.0601,887.8906 Q1610.2944,887.8906 1609.6538,888.2188 Q1609.0288,888.5469 1608.5288,889.2969 Q1608.0444,890.0469 1608.0444,891.0781 L1608.0444,892.1719 Q1608.0444,893.4063 1608.9351,894.2344 Q1609.8257,895.0469 1611.4194,895.0469 Q1612.3569,895.0469 1613.0132,894.7969 Q1613.4038,894.6406 1613.8257,894.2031 Q1614.0913,893.9375 1614.2319,893.8594 Q1614.3882,893.7813 1614.5913,893.7813 Q1614.9194,893.7813 1615.1694,894.0469 Q1615.4351,894.2969 1615.4351,894.6406 Q1615.4351,894.9844 1615.0913,895.3906 Q1614.5913,895.9688 1613.7944,896.2969 Q1612.7163,896.75 1611.4194,896.75 Q1609.9038,896.75 1608.7007,896.125 Q1607.7163,895.625 1607.0288,894.5625 Q1606.3413,893.4844 1606.3413,892.2031 L1606.3413,891.0469 Q1606.3413,889.7188 1606.9507,888.5781 Q1607.5757,887.4219 1608.6694,886.8125 Q1609.7632,886.1875 1610.9976,886.1875 Q1611.7319,886.1875 1612.3726,886.3594 Q1613.0288,886.5156 1613.5757,886.875 Z " fill="#000000"/><text fill="#000000" font-family="sans-serif" font-size="14" lengthAdjust="spacing" textLength="29.5723" x="1631.3101" y="896.7285">Goal</text><line style="stroke:#181818;stroke-width:0.5;" x1="1555" x2="1704.6924" y1="907" y2="907"/><text fill="#000000" font-family="sans-serif" font-size="14" lengthAdjust="spacing" textLength="49.4238" x="1560" y="925.5332">+id: int?</text><text fill="#000000" font-family="sans-serif" font-size="14" lengthAdjust="spacing" textLength="66.5273" x="1560" y="943.1426">+name: str</text><text fill="#000000" font-family="sans-serif" font-size="14" lengthAdjust="spacing" textLength="132.6992" x="1560" y="960.752">+target_amount: float</text><text fill="#000000" font-family="sans-serif" font-size="14" lengthAdjust="spacing" textLength="134.2578" x="1560" y="978.3613">+saved_amount: float</text><text fill="#000000" font-family="sans-serif" font-size="14" lengthAdjust="spacing" textLength="139.6924" x="1560" y="995.9707">+progress_percent: int</text><text fill="#000000" font-family="sans-serif" font-size="14" lengthAdjust="spacing" textLength="117.127" x="1560" y="1013.5801">+is_complete: bool</text></g><!--class DatabaseConnection--><g class="entity" data-qualified-name="database.DatabaseConnection" data-source-line="32" id="ent0007"><rect fill="#F1F1F1" height="75.2188" rx="2.5" ry="2.5" style="stroke:#181818;stroke-width:0.5;" width="265.292" x="2066.5" y="910.5"/><ellipse cx="2129.5171" cy="926.5" fill="#ADD1B2" rx="11" ry="11" style="stroke:#181818;stroke-width:1;"/><path d="M2132.2827,922.375 Q2132.439,922.1563 2132.6265,922.0469 Q2132.814,921.9375 2133.0327,921.9375 Q2133.4077,921.9375 2133.6421,922.2031 Q2133.8765,922.4531 2133.8765,923.0625 L2133.8765,924.5156 Q2133.8765,925.125 2133.6421,925.3906 Q2133.4077,925.6563 2133.0327,925.6563 Q2132.689,925.6563 2132.4858,925.4531 Q2132.2827,925.2656 2132.1733,924.75 Q2132.1265,924.3906 2131.939,924.2031 Q2131.6108,923.8281 2131.0015,923.6094 Q2130.3921,923.3906 2129.7671,923.3906 Q2129.0015,923.3906 2128.3608,923.7188 Q2127.7358,924.0469 2127.2358,924.7969 Q2126.7515,925.5469 2126.7515,926.5781 L2126.7515,927.6719 Q2126.7515,928.9063 2127.6421,929.7344 Q2128.5327,930.5469 2130.1265,930.5469 Q2131.064,930.5469 2131.7202,930.2969 Q2132.1108,930.1406 2132.5327,929.7031 Q2132.7983,929.4375 2132.939,929.3594 Q2133.0952,929.2813 2133.2983,929.2813 Q2133.6265,929.2813 2133.8765,929.5469 Q2134.1421,929.7969 2134.1421,930.1406 Q2134.1421,930.4844 2133.7983,930.8906 Q2133.2983,931.4688 2132.5015,931.7969 Q2131.4233,932.25 2130.1265,932.25 Q2128.6108,932.25 2127.4077,931.625 Q2126.4233,931.125 2125.7358,930.0625 Q2125.0483,928.9844 2125.0483,927.7031 L2125.0483,926.5469 Q2125.0483,925.2188 2125.6577,924.0781 Q2126.2827,922.9219 2127.3765,922.3125 Q2128.4702,921.6875 2129.7046,921.6875 Q2130.439,921.6875 2131.0796,921.8594 Q2131.7358,922.0156 2132.2827,922.375 Z " fill="#000000"/><text fill="#000000" font-family="sans-serif" font-size="14" lengthAdjust="spacing" textLength="130.7578" x="2150.0171" y="932.2285">DatabaseConnection</text><line style="stroke:#181818;stroke-width:0.5;" x1="2067.5" x2="2330.792" y1="942.5" y2="942.5"/><text fill="#000000" font-family="sans-serif" font-size="14" lengthAdjust="spacing" textLength="253.292" x="2072.5" y="961.0332">+execute(query, params=(), fetch=None)</text><text fill="#000000" font-family="sans-serif" font-size="14" lengthAdjust="spacing" textLength="133.4307" x="2072.5" y="978.6426">+executescript(script)</text></g><!--class ITransactionRepo--><g class="entity" data-qualified-name="repository .interfaces..ITransactionRepo" data-source-line="39" id="ent0009"><rect fill="#F1F1F1" height="145.6563" rx="2.5" ry="2.5" style="stroke:#181818;stroke-width:0.5;" width="472.3389" x="505" y="484"/><ellipse cx="681.668" cy="500" fill="#B4A7E5" rx="11" ry="11" style="stroke:#181818;stroke-width:1;"/><path d="M682.6211,496.6406 L682.6211,503.2969 L684.3398,503.2969 Q684.9492,503.2969 685.2148,503.5313 Q685.4805,503.7656 685.4805,504.1563 Q685.4805,504.5313 685.2148,504.7656 Q684.9492,505 684.3398,505 L679.1992,505 Q678.5898,505 678.3242,504.7656 Q678.0586,504.5313 678.0586,504.1406 Q678.0586,503.7656 678.3242,503.5313 Q678.5898,503.2969 679.1992,503.2969 L680.918,503.2969 L680.918,496.6406 L679.1992,496.6406 Q678.5898,496.6406 678.3242,496.4063 Q678.0586,496.1719 678.0586,495.7813 Q678.0586,495.4063 678.3242,495.1719 Q678.5898,494.9375 679.1992,494.9375 L684.3398,494.9375 Q684.9492,494.9375 685.2148,495.1719 Q685.4805,495.4063 685.4805,495.7813 Q685.4805,496.1719 685.2148,496.4063 Q684.9492,496.6406 684.3398,496.6406 L682.6211,496.6406 Z " fill="#000000"/><text fill="#000000" font-family="sans-serif" font-size="14" font-style="italic" lengthAdjust="spacing" textLength="110.5029" x="702.168" y="505.7285">ITransactionRepo</text><line style="stroke:#181818;stroke-width:0.5;" x1="506" x2="976.3389" y1="516" y2="516"/><text fill="#000000" font-family="sans-serif" font-size="14" lengthAdjust="spacing" textLength="266.5332" x="511" y="534.5332">+add_transaction(transaction: Transaction)</text><text fill="#000000" font-family="sans-serif" font-size="14" lengthAdjust="spacing" textLength="120.2305" x="511" y="552.1426">+get_transactions()</text><text fill="#000000" font-family="sans-serif" font-size="14" lengthAdjust="spacing" textLength="264.2158" x="511" y="569.752">+get_transaction_by_id(transaction_id: int)</text><text fill="#000000" font-family="sans-serif" font-size="14" lengthAdjust="spacing" textLength="263.4229" x="511" y="587.3613">+get_transactions_by_month(month, year)</text><text fill="#000000" font-family="sans-serif" font-size="14" lengthAdjust="spacing" textLength="460.3389" x="511" y="604.9707">+update_transaction(transaction_id, new_amount, new_month, new_year)</text><text fill="#000000" font-family="sans-serif" font-size="14" lengthAdjust="spacing" textLength="241.6436" x="511" y="622.5801">+delete_transaction(transaction_id: int)</text></g><!--class IBudgetRepo--><g class="entity" data-qualified-name="repository .interfaces..IBudgetRepo" data-source-line="48" id="ent0010"><rect fill="#F1F1F1" height="198.4844" rx="2.5" ry="2.5" style="stroke:#181818;stroke-width:0.5;" width="407.7324" x="1012" y="458"/><ellipse cx="1170.751" cy="474" fill="#B4A7E5" rx="11" ry="11" style="stroke:#181818;stroke-width:1;"/><path d="M1171.7041,470.6406 L1171.7041,477.2969 L1173.4229,477.2969 Q1174.0322,477.2969 1174.2979,477.5313 Q1174.5635,477.7656 1174.5635,478.1563 Q1174.5635,478.5313 1174.2979,478.7656 Q1174.0322,479 1173.4229,479 L1168.2822,479 Q1167.6729,479 1167.4072,478.7656 Q1167.1416,478.5313 1167.1416,478.1406 Q1167.1416,477.7656 1167.4072,477.5313 Q1167.6729,477.2969 1168.2822,477.2969 L1170.001,477.2969 L1170.001,470.6406 L1168.2822,470.6406 Q1167.6729,470.6406 1167.4072,470.4063 Q1167.1416,470.1719 1167.1416,469.7813 Q1167.1416,469.4063 1167.4072,469.1719 Q1167.6729,468.9375 1168.2822,468.9375 L1173.4229,468.9375 Q1174.0322,468.9375 1174.2979,469.1719 Q1174.5635,469.4063 1174.5635,469.7813 Q1174.5635,470.1719 1174.2979,470.4063 Q1174.0322,470.6406 1173.4229,470.6406 L1171.7041,470.6406 Z " fill="#000000"/><text fill="#000000" font-family="sans-serif" font-size="14" font-style="italic" lengthAdjust="spacing" textLength="81.7305" x="1191.251" y="479.7285">IBudgetRepo</text><line style="stroke:#181818;stroke-width:0.5;" x1="1013" x2="1418.7324" y1="490" y2="490"/><text fill="#000000" font-family="sans-serif" font-size="14" lengthAdjust="spacing" textLength="314.7881" x="1018" y="508.5332">+create_budget(amount: float, month: int, year: int)</text><text fill="#000000" font-family="sans-serif" font-size="14" lengthAdjust="spacing" textLength="223.7334" x="1018" y="526.1426">+check_budget(month: int, year: int)</text><text fill="#000000" font-family="sans-serif" font-size="14" lengthAdjust="spacing" textLength="395.7324" x="1018" y="543.752">+deduct_from_budget(amount_spent: float, month: int, year: int)</text><text fill="#000000" font-family="sans-serif" font-size="14" lengthAdjust="spacing" textLength="263.4502" x="1018" y="561.3613">+get_budget_balance(month: int, year: int)</text><text fill="#000000" font-family="sans-serif" font-size="14" lengthAdjust="spacing" textLength="239.3262" x="1018" y="578.9707">+add_to_budget(amount, month, year)</text><text fill="#000000" font-family="sans-serif" font-size="14" lengthAdjust="spacing" textLength="206.623" x="1018" y="596.5801">+get_budget(month: int, year: int)</text><text fill="#000000" font-family="sans-serif" font-size="14" lengthAdjust="spacing" textLength="283.7119" x="1018" y="614.1895">+update_budget(budget_id: int, amount: float)</text><text fill="#000000" font-family="sans-serif" font-size="14" lengthAdjust="spacing" textLength="190.3193" x="1018" y="631.7988">+delete_budget(budget_id: int)</text><text fill="#000000" font-family="sans-serif" font-size="14" lengthAdjust="spacing" textLength="283.6709" x="1018" y="649.4082">+increase_budget_total(amount, month, year)</text></g><!--class IGoalRepo--><g class="entity" data-qualified-name="repository .interfaces..IGoalRepo" data-source-line="60" id="ent0011"><rect fill="#F1F1F1" height="110.4375" rx="2.5" ry="2.5" style="stroke:#181818;stroke-width:0.5;" width="447.8047" x="22" y="502"/><ellipse cx="208.187" cy="518" fill="#B4A7E5" rx="11" ry="11" style="stroke:#181818;stroke-width:1;"/><path d="M209.1401,514.6406 L209.1401,521.2969 L210.8589,521.2969 Q211.4683,521.2969 211.7339,521.5313 Q211.9995,521.7656 211.9995,522.1563 Q211.9995,522.5313 211.7339,522.7656 Q211.4683,523 210.8589,523 L205.7183,523 Q205.1089,523 204.8433,522.7656 Q204.5776,522.5313 204.5776,522.1406 Q204.5776,521.7656 204.8433,521.5313 Q205.1089,521.2969 205.7183,521.2969 L207.437,521.2969 L207.437,514.6406 L205.7183,514.6406 Q205.1089,514.6406 204.8433,514.4063 Q204.5776,514.1719 204.5776,513.7813 Q204.5776,513.4063 204.8433,513.1719 Q205.1089,512.9375 205.7183,512.9375 L210.8589,512.9375 Q211.4683,512.9375 211.7339,513.1719 Q211.9995,513.4063 211.9995,513.7813 Q211.9995,514.1719 211.7339,514.4063 Q211.4683,514.6406 210.8589,514.6406 L209.1401,514.6406 Z " fill="#000000"/><text fill="#000000" font-family="sans-serif" font-size="14" font-style="italic" lengthAdjust="spacing" textLength="66.9307" x="228.687" y="523.7285">IGoalRepo</text><line style="stroke:#181818;stroke-width:0.5;" x1="23" x2="468.8047" y1="534" y2="534"/><text fill="#000000" font-family="sans-serif" font-size="14" lengthAdjust="spacing" textLength="435.8047" x="28" y="552.5332">+create_goal(name: str, target_amount: float, initial_saved: float = 0.0)</text><text fill="#000000" font-family="sans-serif" font-size="14" lengthAdjust="spacing" textLength="100.0098" x="28" y="570.1426">+get_all_goals()</text><text fill="#000000" font-family="sans-serif" font-size="14" lengthAdjust="spacing" textLength="252.5469" x="28" y="587.752">+add_savings(goal_id: int, amount: float)</text><text fill="#000000" font-family="sans-serif" font-size="14" lengthAdjust="spacing" textLength="157.6162" x="28" y="605.3613">+delete_goal(goal_id: int)</text></g><!--class IUserRepo--><g class="entity" data-qualified-name="repository .interfaces..IUserRepo" data-source-line="67" id="ent0012"><rect fill="#F1F1F1" height="57.6094" rx="2.5" ry="2.5" style="stroke:#181818;stroke-width:0.5;" width="263.7061" x="1455" y="528"/><ellipse cx="1549.1445" cy="544" fill="#B4A7E5" rx="11" ry="11" style="stroke:#181818;stroke-width:1;"/><path d="M1550.0977,540.6406 L1550.0977,547.2969 L1551.8164,547.2969 Q1552.4258,547.2969 1552.6914,547.5313 Q1552.957,547.7656 1552.957,548.1563 Q1552.957,548.5313 1552.6914,548.7656 Q1552.4258,549 1551.8164,549 L1546.6758,549 Q1546.0664,549 1545.8008,548.7656 Q1545.5352,548.5313 1545.5352,548.1406 Q1545.5352,547.7656 1545.8008,547.5313 Q1546.0664,547.2969 1546.6758,547.2969 L1548.3945,547.2969 L1548.3945,540.6406 L1546.6758,540.6406 Q1546.0664,540.6406 1545.8008,540.4063 Q1545.5352,540.1719 1545.5352,539.7813 Q1545.5352,539.4063 1545.8008,539.1719 Q1546.0664,538.9375 1546.6758,538.9375 L1551.8164,538.9375 Q1552.4258,538.9375 1552.6914,539.1719 Q1552.957,539.4063 1552.957,539.7813 Q1552.957,540.1719 1552.6914,540.4063 Q1552.4258,540.6406 1551.8164,540.6406 L1550.0977,540.6406 Z " fill="#000000"/><text fill="#000000" font-family="sans-serif" font-size="14" font-style="italic" lengthAdjust="spacing" textLength="66.917" x="1569.6445" y="549.7285">IUserRepo</text><line style="stroke:#181818;stroke-width:0.5;" x1="1456" x2="1717.7061" y1="560" y2="560"/><text fill="#000000" font-family="sans-serif" font-size="14" lengthAdjust="spacing" textLength="251.7061" x="1461" y="578.5332">+find_user(username: str, password: str)</text></g><!--class TransactionRepo--><g class="entity" data-qualified-name="repository .implementations..TransactionRepo" data-source-line="73" id="ent0014"><rect fill="#F1F1F1" height="32" rx="2.5" ry="2.5" style="stroke:#181818;stroke-width:0.5;" width="138.6133" x="1831.5" y="741"/><ellipse cx="1846.5" cy="757" fill="#ADD1B2" rx="11" ry="11" style="stroke:#181818;stroke-width:1;"/><path d="M1849.2656,752.875 Q1849.4219,752.6563 1849.6094,752.5469 Q1849.7969,752.4375 1850.0156,752.4375 Q1850.3906,752.4375 1850.625,752.7031 Q1850.8594,752.9531 1850.8594,753.5625 L1850.8594,755.0156 Q1850.8594,755.625 1850.625,755.8906 Q1850.3906,756.1563 1850.0156,756.1563 Q1849.6719,756.1563 1849.4688,755.9531 Q1849.2656,755.7656 1849.1563,755.25 Q1849.1094,754.8906 1848.9219,754.7031 Q1848.5938,754.3281 1847.9844,754.1094 Q1847.375,753.8906 1846.75,753.8906 Q1845.9844,753.8906 1845.3438,754.2188 Q1844.7188,754.5469 1844.2188,755.2969 Q1843.7344,756.0469 1843.7344,757.0781 L1843.7344,758.1719 Q1843.7344,759.4063 1844.625,760.2344 Q1845.5156,761.0469 1847.1094,761.0469 Q1848.0469,761.0469 1848.7031,760.7969 Q1849.0938,760.6406 1849.5156,760.2031 Q1849.7813,759.9375 1849.9219,759.8594 Q1850.0781,759.7813 1850.2813,759.7813 Q1850.6094,759.7813 1850.8594,760.0469 Q1851.125,760.2969 1851.125,760.6406 Q1851.125,760.9844 1850.7813,761.3906 Q1850.2813,761.9688 1849.4844,762.2969 Q1848.4063,762.75 1847.1094,762.75 Q1845.5938,762.75 1844.3906,762.125 Q1843.4063,761.625 1842.7188,760.5625 Q1842.0313,759.4844 1842.0313,758.2031 L1842.0313,757.0469 Q1842.0313,755.7188 1842.6406,754.5781 Q1843.2656,753.4219 1844.3594,752.8125 Q1845.4531,752.1875 1846.6875,752.1875 Q1847.4219,752.1875 1848.0625,752.3594 Q1848.7188,752.5156 1849.2656,752.875 Z " fill="#000000"/><text fill="#000000" font-family="sans-serif" font-size="14" lengthAdjust="spacing" textLength="106.6133" x="1860.5" y="762.7285">TransactionRepo</text></g><!--class BudgetRepo--><g class="entity" data-qualified-name="repository .implementations..BudgetRepo" data-source-line="74" id="ent0015"><rect fill="#F1F1F1" height="32" rx="2.5" ry="2.5" style="stroke:#181818;stroke-width:0.5;" width="109.8408" x="2006" y="741"/><ellipse cx="2021" cy="757" fill="#ADD1B2" rx="11" ry="11" style="stroke:#181818;stroke-width:1;"/><path d="M2023.7656,752.875 Q2023.9219,752.6563 2024.1094,752.5469 Q2024.2969,752.4375 2024.5156,752.4375 Q2024.8906,752.4375 2025.125,752.7031 Q2025.3594,752.9531 2025.3594,753.5625 L2025.3594,755.0156 Q2025.3594,755.625 2025.125,755.8906 Q2024.8906,756.1563 2024.5156,756.1563 Q2024.1719,756.1563 2023.9688,755.9531 Q2023.7656,755.7656 2023.6563,755.25 Q2023.6094,754.8906 2023.4219,754.7031 Q2023.0938,754.3281 2022.4844,754.1094 Q2021.875,753.8906 2021.25,753.8906 Q2020.4844,753.8906 2019.8438,754.2188 Q2019.2188,754.5469 2018.7188,755.2969 Q2018.2344,756.0469 2018.2344,757.0781 L2018.2344,758.1719 Q2018.2344,759.4063 2019.125,760.2344 Q2020.0156,761.0469 2021.6094,761.0469 Q2022.5469,761.0469 2023.2031,760.7969 Q2023.5938,760.6406 2024.0156,760.2031 Q2024.2813,759.9375 2024.4219,759.8594 Q2024.5781,759.7813 2024.7813,759.7813 Q2025.1094,759.7813 2025.3594,760.0469 Q2025.625,760.2969 2025.625,760.6406 Q2025.625,760.9844 2025.2813,761.3906 Q2024.7813,761.9688 2023.9844,762.2969 Q2022.9063,762.75 2021.6094,762.75 Q2020.0938,762.75 2018.8906,762.125 Q2017.9063,761.625 2017.2188,760.5625 Q2016.5313,759.4844 2016.5313,758.2031 L2016.5313,757.0469 Q2016.5313,755.7188 2017.1406,754.5781 Q2017.7656,753.4219 2018.8594,752.8125 Q2019.9531,752.1875 2021.1875,752.1875 Q2021.9219,752.1875 2022.5625,752.3594 Q2023.2188,752.5156 2023.7656,752.875 Z " fill="#000000"/><text fill="#000000" font-family="sans-serif" font-size="14" lengthAdjust="spacing" textLength="77.8408" x="2035" y="762.7285">BudgetRepo</text></g><!--class GoalRepo--><g class="entity" data-qualified-name="repository .implementations..GoalRepo" data-source-line="75" id="ent0016"><rect fill="#F1F1F1" height="32" rx="2.5" ry="2.5" style="stroke:#181818;stroke-width:0.5;" width="95.041" x="1701.5" y="741"/><ellipse cx="1716.5" cy="757" fill="#ADD1B2" rx="11" ry="11" style="stroke:#181818;stroke-width:1;"/><path d="M1719.2656,752.875 Q1719.4219,752.6563 1719.6094,752.5469 Q1719.7969,752.4375 1720.0156,752.4375 Q1720.3906,752.4375 1720.625,752.7031 Q1720.8594,752.9531 1720.8594,753.5625 L1720.8594,755.0156 Q1720.8594,755.625 1720.625,755.8906 Q1720.3906,756.1563 1720.0156,756.1563 Q1719.6719,756.1563 1719.4688,755.9531 Q1719.2656,755.7656 1719.1563,755.25 Q1719.1094,754.8906 1718.9219,754.7031 Q1718.5938,754.3281 1717.9844,754.1094 Q1717.375,753.8906 1716.75,753.8906 Q1715.9844,753.8906 1715.3438,754.2188 Q1714.7188,754.5469 1714.2188,755.2969 Q1713.7344,756.0469 1713.7344,757.0781 L1713.7344,758.1719 Q1713.7344,759.4063 1714.625,760.2344 Q1715.5156,761.0469 1717.1094,761.0469 Q1718.0469,761.0469 1718.7031,760.7969 Q1719.0938,760.6406 1719.5156,760.2031 Q1719.7813,759.9375 1719.9219,759.8594 Q1720.0781,759.7813 1720.2813,759.7813 Q1720.6094,759.7813 1720.8594,760.0469 Q1721.125,760.2969 1721.125,760.6406 Q1721.125,760.9844 1720.7813,761.3906 Q1720.2813,761.9688 1719.4844,762.2969 Q1718.4063,762.75 1717.1094,762.75 Q1715.5938,762.75 1714.3906,762.125 Q1713.4063,761.625 1712.7188,760.5625 Q1712.0313,759.4844 1712.0313,758.2031 L1712.0313,757.0469 Q1712.0313,755.7188 1712.6406,754.5781 Q1713.2656,753.4219 1714.3594,752.8125 Q1715.4531,752.1875 1716.6875,752.1875 Q1717.4219,752.1875 1718.0625,752.3594 Q1718.7188,752.5156 1719.2656,752.875 Z " fill="#000000"/><text fill="#000000" font-family="sans-serif" font-size="14" lengthAdjust="spacing" textLength="63.041" x="1730.5" y="762.7285">GoalRepo</text></g><!--class UserRepo--><g class="entity" data-qualified-name="repository .implementations..UserRepo" data-source-line="76" id="ent0017"><rect fill="#F1F1F1" height="32" rx="2.5" ry="2.5" style="stroke:#181818;stroke-width:0.5;" width="95.0273" x="2151.5" y="741"/><ellipse cx="2166.5" cy="757" fill="#ADD1B2" rx="11" ry="11" style="stroke:#181818;stroke-width:1;"/><path d="M2169.2656,752.875 Q2169.4219,752.6563 2169.6094,752.5469 Q2169.7969,752.4375 2170.0156,752.4375 Q2170.3906,752.4375 2170.625,752.7031 Q2170.8594,752.9531 2170.8594,753.5625 L2170.8594,755.0156 Q2170.8594,755.625 2170.625,755.8906 Q2170.3906,756.1563 2170.0156,756.1563 Q2169.6719,756.1563 2169.4688,755.9531 Q2169.2656,755.7656 2169.1563,755.25 Q2169.1094,754.8906 2168.9219,754.7031 Q2168.5938,754.3281 2167.9844,754.1094 Q2167.375,753.8906 2166.75,753.8906 Q2165.9844,753.8906 2165.3438,754.2188 Q2164.7188,754.5469 2164.2188,755.2969 Q2163.7344,756.0469 2163.7344,757.0781 L2163.7344,758.1719 Q2163.7344,759.4063 2164.625,760.2344 Q2165.5156,761.0469 2167.1094,761.0469 Q2168.0469,761.0469 2168.7031,760.7969 Q2169.0938,760.6406 2169.5156,760.2031 Q2169.7813,759.9375 2169.9219,759.8594 Q2170.0781,759.7813 2170.2813,759.7813 Q2170.6094,759.7813 2170.8594,760.0469 Q2171.125,760.2969 2171.125,760.6406 Q2171.125,760.9844 2170.7813,761.3906 Q2170.2813,761.9688 2169.4844,762.2969 Q2168.4063,762.75 2167.1094,762.75 Q2165.5938,762.75 2164.3906,762.125 Q2163.4063,761.625 2162.7188,760.5625 Q2162.0313,759.4844 2162.0313,758.2031 L2162.0313,757.0469 Q2162.0313,755.7188 2162.6406,754.5781 Q2163.2656,753.4219 2164.3594,752.8125 Q2165.4531,752.1875 2166.6875,752.1875 Q2167.4219,752.1875 2168.0625,752.3594 Q2168.7188,752.5156 2169.2656,752.875 Z " fill="#000000"/><text fill="#000000" font-family="sans-serif" font-size="14" lengthAdjust="spacing" textLength="63.0273" x="2180.5" y="762.7285">UserRepo</text></g><!--class ITransactionService--><g class="entity" data-qualified-name="services .interfaces..ITransactionService" data-source-line="80" id="ent0019"><rect fill="#F1F1F1" height="180.875" rx="2.5" ry="2.5" style="stroke:#181818;stroke-width:0.5;" width="371.9326" x="1656" y="59.5"/><ellipse cx="1775.8579" cy="75.5" fill="#B4A7E5" rx="11" ry="11" style="stroke:#181818;stroke-width:1;"/><path d="M1776.811,72.1406 L1776.811,78.7969 L1778.5298,78.7969 Q1779.1392,78.7969 1779.4048,79.0313 Q1779.6704,79.2656 1779.6704,79.6563 Q1779.6704,80.0313 1779.4048,80.2656 Q1779.1392,80.5 1778.5298,80.5 L1773.3892,80.5 Q1772.7798,80.5 1772.5142,80.2656 Q1772.2485,80.0313 1772.2485,79.6406 Q1772.2485,79.2656 1772.5142,79.0313 Q1772.7798,78.7969 1773.3892,78.7969 L1775.1079,78.7969 L1775.1079,72.1406 L1773.3892,72.1406 Q1772.7798,72.1406 1772.5142,71.9063 Q1772.2485,71.6719 1772.2485,71.2813 Q1772.2485,70.9063 1772.5142,70.6719 Q1772.7798,70.4375 1773.3892,70.4375 L1778.5298,70.4375 Q1779.1392,70.4375 1779.4048,70.6719 Q1779.6704,70.9063 1779.6704,71.2813 Q1779.6704,71.6719 1779.4048,71.9063 Q1779.1392,72.1406 1778.5298,72.1406 L1776.811,72.1406 Z " fill="#000000"/><text fill="#000000" font-family="sans-serif" font-size="14" font-style="italic" lengthAdjust="spacing" textLength="123.7168" x="1796.3579" y="81.2285">ITransactionService</text><line style="stroke:#181818;stroke-width:0.5;" x1="1657" x2="2026.9326" y1="91.5" y2="91.5"/><text fill="#000000" font-family="sans-serif" font-size="14" lengthAdjust="spacing" textLength="311.6914" x="1662" y="110.0332">+get_budget_warning(amount_trans, month, year)</text><text fill="#000000" font-family="sans-serif" font-size="14" lengthAdjust="spacing" textLength="345.9121" x="1662" y="127.6426">+add_transaction(amount_trans, category, month, year)</text><text fill="#000000" font-family="sans-serif" font-size="14" lengthAdjust="spacing" textLength="359.9326" x="1662" y="145.252">+validate_transaction(amount_trans, month, year, budget)</text><text fill="#000000" font-family="sans-serif" font-size="14" lengthAdjust="spacing" textLength="218.3193" x="1662" y="162.8613">+get_budget_balance(month, year)</text><text fill="#000000" font-family="sans-serif" font-size="14" lengthAdjust="spacing" textLength="120.2305" x="1662" y="180.4707">+get_transactions()</text><text fill="#000000" font-family="sans-serif" font-size="14" lengthAdjust="spacing" textLength="300.7744" x="1662" y="198.0801">+edit_transaction(tid, new_amount, month, year)</text><text fill="#000000" font-family="sans-serif" font-size="14" lengthAdjust="spacing" textLength="219.0781" x="1662" y="215.6895">+delete_transaction(transaction_id)</text><text fill="#000000" font-family="sans-serif" font-size="14" lengthAdjust="spacing" textLength="331.1533" x="1662" y="233.2988">+get_transaction_warning(old_amount, new_amount)</text></g><!--class IBudgetService--><g class="entity" data-qualified-name="services .interfaces..IBudgetService" data-source-line="91" id="ent0020"><rect fill="#F1F1F1" height="198.4844" rx="2.5" ry="2.5" style="stroke:#181818;stroke-width:0.5;" width="326.7881" x="2287.5" y="51"/><ellipse cx="2399.1719" cy="67" fill="#B4A7E5" rx="11" ry="11" style="stroke:#181818;stroke-width:1;"/><path d="M2400.125,63.6406 L2400.125,70.2969 L2401.8438,70.2969 Q2402.4531,70.2969 2402.7188,70.5313 Q2402.9844,70.7656 2402.9844,71.1563 Q2402.9844,71.5313 2402.7188,71.7656 Q2402.4531,72 2401.8438,72 L2396.7031,72 Q2396.0938,72 2395.8281,71.7656 Q2395.5625,71.5313 2395.5625,71.1406 Q2395.5625,70.7656 2395.8281,70.5313 Q2396.0938,70.2969 2396.7031,70.2969 L2398.4219,70.2969 L2398.4219,63.6406 L2396.7031,63.6406 Q2396.0938,63.6406 2395.8281,63.4063 Q2395.5625,63.1719 2395.5625,62.7813 Q2395.5625,62.4063 2395.8281,62.1719 Q2396.0938,61.9375 2396.7031,61.9375 L2401.8438,61.9375 Q2402.4531,61.9375 2402.7188,62.1719 Q2402.9844,62.4063 2402.9844,62.7813 Q2402.9844,63.1719 2402.7188,63.4063 Q2402.4531,63.6406 2401.8438,63.6406 L2400.125,63.6406 Z " fill="#000000"/><text fill="#000000" font-family="sans-serif" font-size="14" font-style="italic" lengthAdjust="spacing" textLength="94.9443" x="2419.6719" y="72.7285">IBudgetService</text><line style="stroke:#181818;stroke-width:0.5;" x1="2288.5" x2="2613.2881" y1="83" y2="83"/><text fill="#000000" font-family="sans-serif" font-size="14" lengthAdjust="spacing" textLength="314.7881" x="2293.5" y="101.5332">+create_budget(amount: float, month: int, year: int)</text><text fill="#000000" font-family="sans-serif" font-size="14" lengthAdjust="spacing" textLength="244.7607" x="2293.5" y="119.1426">+validate_budget(amount, month, year)</text><text fill="#000000" font-family="sans-serif" font-size="14" lengthAdjust="spacing" textLength="178.6025" x="2293.5" y="136.752">+check_budget(month, year)</text><text fill="#000000" font-family="sans-serif" font-size="14" lengthAdjust="spacing" textLength="308.5674" x="2293.5" y="154.3613">+deduct_from_budget(amount: float, month, year)</text><text fill="#000000" font-family="sans-serif" font-size="14" lengthAdjust="spacing" textLength="239.3262" x="2293.5" y="171.9707">+add_to_budget(amount, month, year)</text><text fill="#000000" font-family="sans-serif" font-size="14" lengthAdjust="spacing" textLength="218.3193" x="2293.5" y="189.5801">+get_budget_balance(month, year)</text><text fill="#000000" font-family="sans-serif" font-size="14" lengthAdjust="spacing" textLength="167.7539" x="2293.5" y="207.1895">+delete_budget(budget_id)</text><text fill="#000000" font-family="sans-serif" font-size="14" lengthAdjust="spacing" textLength="226.9053" x="2293.5" y="224.7988">+update_budget(budget_id, amount)</text><text fill="#000000" font-family="sans-serif" font-size="14" lengthAdjust="spacing" textLength="283.6709" x="2293.5" y="242.4082">+increase_budget_total(amount, month, year)</text></g><!--class IGoalService--><g class="entity" data-qualified-name="services .interfaces..IGoalService" data-source-line="103" id="ent0021"><rect fill="#F1F1F1" height="110.4375" rx="2.5" ry="2.5" style="stroke:#181818;stroke-width:0.5;" width="432.2529" x="876" y="95"/><ellipse cx="1047.8042" cy="111" fill="#B4A7E5" rx="11" ry="11" style="stroke:#181818;stroke-width:1;"/><path d="M1048.7573,107.6406 L1048.7573,114.2969 L1050.4761,114.2969 Q1051.0854,114.2969 1051.3511,114.5313 Q1051.6167,114.7656 1051.6167,115.1563 Q1051.6167,115.5313 1051.3511,115.7656 Q1051.0854,116 1050.4761,116 L1045.3354,116 Q1044.7261,116 1044.4604,115.7656 Q1044.1948,115.5313 1044.1948,115.1406 Q1044.1948,114.7656 1044.4604,114.5313 Q1044.7261,114.2969 1045.3354,114.2969 L1047.0542,114.2969 L1047.0542,107.6406 L1045.3354,107.6406 Q1044.7261,107.6406 1044.4604,107.4063 Q1044.1948,107.1719 1044.1948,106.7813 Q1044.1948,106.4063 1044.4604,106.1719 Q1044.7261,105.9375 1045.3354,105.9375 L1050.4761,105.9375 Q1051.0854,105.9375 1051.3511,106.1719 Q1051.6167,106.4063 1051.6167,106.7813 Q1051.6167,107.1719 1051.3511,107.4063 Q1051.0854,107.6406 1050.4761,107.6406 L1048.7573,107.6406 Z " fill="#000000"/><text fill="#000000" font-family="sans-serif" font-size="14" font-style="italic" lengthAdjust="spacing" textLength="80.1445" x="1068.3042" y="116.7285">IGoalService</text><line style="stroke:#181818;stroke-width:0.5;" x1="877" x2="1307.2529" y1="127" y2="127"/><text fill="#000000" font-family="sans-serif" font-size="14" lengthAdjust="spacing" textLength="420.2529" x="882" y="145.5332">+add_goal(name: str, target_amount: float, initial_saved: float = 0.0)</text><text fill="#000000" font-family="sans-serif" font-size="14" lengthAdjust="spacing" textLength="100.0098" x="882" y="163.1426">+get_all_goals()</text><text fill="#000000" font-family="sans-serif" font-size="14" lengthAdjust="spacing" textLength="252.5469" x="882" y="180.752">+add_savings(goal_id: int, amount: float)</text><text fill="#000000" font-family="sans-serif" font-size="14" lengthAdjust="spacing" textLength="157.6162" x="882" y="198.3613">+delete_goal(goal_id: int)</text></g><!--class IUserService--><g class="entity" data-qualified-name="services .interfaces..IUserService" data-source-line="110" id="ent0022"><rect fill="#F1F1F1" height="57.6094" rx="2.5" ry="2.5" style="stroke:#181818;stroke-width:0.5;" width="189.0303" x="2063.5" y="121"/><ellipse cx="2113.6997" cy="137" fill="#B4A7E5" rx="11" ry="11" style="stroke:#181818;stroke-width:1;"/><path d="M2114.6528,133.6406 L2114.6528,140.2969 L2116.3716,140.2969 Q2116.981,140.2969 2117.2466,140.5313 Q2117.5122,140.7656 2117.5122,141.1563 Q2117.5122,141.5313 2117.2466,141.7656 Q2116.981,142 2116.3716,142 L2111.231,142 Q2110.6216,142 2110.356,141.7656 Q2110.0903,141.5313 2110.0903,141.1406 Q2110.0903,140.7656 2110.356,140.5313 Q2110.6216,140.2969 2111.231,140.2969 L2112.9497,140.2969 L2112.9497,133.6406 L2111.231,133.6406 Q2110.6216,133.6406 2110.356,133.4063 Q2110.0903,133.1719 2110.0903,132.7813 Q2110.0903,132.4063 2110.356,132.1719 Q2110.6216,131.9375 2111.231,131.9375 L2116.3716,131.9375 Q2116.981,131.9375 2117.2466,132.1719 Q2117.5122,132.4063 2117.5122,132.7813 Q2117.5122,133.1719 2117.2466,133.4063 Q2116.981,133.6406 2116.3716,133.6406 L2114.6528,133.6406 Z " fill="#000000"/><text fill="#000000" font-family="sans-serif" font-size="14" font-style="italic" lengthAdjust="spacing" textLength="80.1309" x="2134.1997" y="142.7285">IUserService</text><line style="stroke:#181818;stroke-width:0.5;" x1="2064.5" x2="2251.5303" y1="153" y2="153"/><text fill="#000000" font-family="sans-serif" font-size="14" lengthAdjust="spacing" textLength="177.0303" x="2069.5" y="171.5332">+login(username, password)</text></g><!--class IDashboardService--><g class="entity" data-qualified-name="services .interfaces..IDashboardService" data-source-line="114" id="ent0023"><rect fill="#F1F1F1" height="216.0938" rx="2.5" ry="2.5" style="stroke:#181818;stroke-width:0.5;" width="276.9746" x="1343.5" y="42"/><ellipse cx="1418.2065" cy="58" fill="#B4A7E5" rx="11" ry="11" style="stroke:#181818;stroke-width:1;"/><path d="M1419.1597,54.6406 L1419.1597,61.2969 L1420.8784,61.2969 Q1421.4878,61.2969 1421.7534,61.5313 Q1422.019,61.7656 1422.019,62.1563 Q1422.019,62.5313 1421.7534,62.7656 Q1421.4878,63 1420.8784,63 L1415.7378,63 Q1415.1284,63 1414.8628,62.7656 Q1414.5972,62.5313 1414.5972,62.1406 Q1414.5972,61.7656 1414.8628,61.5313 Q1415.1284,61.2969 1415.7378,61.2969 L1417.4565,61.2969 L1417.4565,54.6406 L1415.7378,54.6406 Q1415.1284,54.6406 1414.8628,54.4063 Q1414.5972,54.1719 1414.5972,53.7813 Q1414.5972,53.4063 1414.8628,53.1719 Q1415.1284,52.9375 1415.7378,52.9375 L1420.8784,52.9375 Q1421.4878,52.9375 1421.7534,53.1719 Q1422.019,53.4063 1422.019,53.7813 Q1422.019,54.1719 1421.7534,54.4063 Q1421.4878,54.6406 1420.8784,54.6406 L1419.1597,54.6406 Z " fill="#000000"/><text fill="#000000" font-family="sans-serif" font-size="14" font-style="italic" lengthAdjust="spacing" textLength="119.0615" x="1438.7065" y="63.7285">IDashboardService</text><line style="stroke:#181818;stroke-width:0.5;" x1="1344.5" x2="1619.4746" y1="74" y2="74"/><text fill="#000000" font-family="sans-serif" font-size="14" lengthAdjust="spacing" textLength="93.0029" x="1349.5" y="92.5332">+show_about()</text><text fill="#000000" font-family="sans-serif" font-size="14" lengthAdjust="spacing" textLength="90.6855" x="1349.5" y="110.1426">+open_guide()</text><text fill="#000000" font-family="sans-serif" font-size="14" lengthAdjust="spacing" textLength="156.0303" x="1349.5" y="127.752">+save_data(month, year)</text><text fill="#000000" font-family="sans-serif" font-size="14" lengthAdjust="spacing" textLength="165.3682" x="1349.5" y="145.3613">+export_data(month, year)</text><text fill="#000000" font-family="sans-serif" font-size="14" lengthAdjust="spacing" textLength="142.0234" x="1349.5" y="162.9707">+get_all_transactions()</text><text fill="#000000" font-family="sans-serif" font-size="14" lengthAdjust="spacing" textLength="264.9746" x="1349.5" y="180.5801">+get_transactions_for_month(month, year)</text><text fill="#000000" font-family="sans-serif" font-size="14" lengthAdjust="spacing" textLength="191.8438" x="1349.5" y="198.1895">+get_current_month_balance()</text><text fill="#000000" font-family="sans-serif" font-size="14" lengthAdjust="spacing" textLength="238.5332" x="1349.5" y="215.7988">+get_balance_for_month(month, year)</text><text fill="#000000" font-family="sans-serif" font-size="14" lengthAdjust="spacing" textLength="226.8369" x="1349.5" y="233.4082">+get_budget_summary(month, year)</text><text fill="#000000" font-family="sans-serif" font-size="14" lengthAdjust="spacing" textLength="247.0986" x="1349.5" y="251.0176">+get_budget_for_category(month, year)</text></g><!--class TransactionService--><g class="entity" data-qualified-name="services .implementations..TransactionService" data-source-line="129" id="ent0025"><rect fill="#F1F1F1" height="32" rx="2.5" ry="2.5" style="stroke:#181818;stroke-width:0.5;" width="151.8271" x="2103" y="343"/><ellipse cx="2118" cy="359" fill="#ADD1B2" rx="11" ry="11" style="stroke:#181818;stroke-width:1;"/><path d="M2120.7656,354.875 Q2120.9219,354.6563 2121.1094,354.5469 Q2121.2969,354.4375 2121.5156,354.4375 Q2121.8906,354.4375 2122.125,354.7031 Q2122.3594,354.9531 2122.3594,355.5625 L2122.3594,357.0156 Q2122.3594,357.625 2122.125,357.8906 Q2121.8906,358.1563 2121.5156,358.1563 Q2121.1719,358.1563 2120.9688,357.9531 Q2120.7656,357.7656 2120.6563,357.25 Q2120.6094,356.8906 2120.4219,356.7031 Q2120.0938,356.3281 2119.4844,356.1094 Q2118.875,355.8906 2118.25,355.8906 Q2117.4844,355.8906 2116.8438,356.2188 Q2116.2188,356.5469 2115.7188,357.2969 Q2115.2344,358.0469 2115.2344,359.0781 L2115.2344,360.1719 Q2115.2344,361.4063 2116.125,362.2344 Q2117.0156,363.0469 2118.6094,363.0469 Q2119.5469,363.0469 2120.2031,362.7969 Q2120.5938,362.6406 2121.0156,362.2031 Q2121.2813,361.9375 2121.4219,361.8594 Q2121.5781,361.7813 2121.7813,361.7813 Q2122.1094,361.7813 2122.3594,362.0469 Q2122.625,362.2969 2122.625,362.6406 Q2122.625,362.9844 2122.2813,363.3906 Q2121.7813,363.9688 2120.9844,364.2969 Q2119.9063,364.75 2118.6094,364.75 Q2117.0938,364.75 2115.8906,364.125 Q2114.9063,363.625 2114.2188,362.5625 Q2113.5313,361.4844 2113.5313,360.2031 L2113.5313,359.0469 Q2113.5313,357.7188 2114.1406,356.5781 Q2114.7656,355.4219 2115.8594,354.8125 Q2116.9531,354.1875 2118.1875,354.1875 Q2118.9219,354.1875 2119.5625,354.3594 Q2120.2188,354.5156 2120.7656,354.875 Z " fill="#000000"/><text fill="#000000" font-family="sans-serif" font-size="14" lengthAdjust="spacing" textLength="119.8271" x="2132" y="364.7285">TransactionService</text></g><!--class BudgetService--><g class="entity" data-qualified-name="services .implementations..BudgetService" data-source-line="130" id="ent0026"><rect fill="#F1F1F1" height="32" rx="2.5" ry="2.5" style="stroke:#181818;stroke-width:0.5;" width="123.0547" x="2263.5" y="541"/><ellipse cx="2278.5" cy="557" fill="#ADD1B2" rx="11" ry="11" style="stroke:#181818;stroke-width:1;"/><path d="M2281.2656,552.875 Q2281.4219,552.6563 2281.6094,552.5469 Q2281.7969,552.4375 2282.0156,552.4375 Q2282.3906,552.4375 2282.625,552.7031 Q2282.8594,552.9531 2282.8594,553.5625 L2282.8594,555.0156 Q2282.8594,555.625 2282.625,555.8906 Q2282.3906,556.1563 2282.0156,556.1563 Q2281.6719,556.1563 2281.4688,555.9531 Q2281.2656,555.7656 2281.1563,555.25 Q2281.1094,554.8906 2280.9219,554.7031 Q2280.5938,554.3281 2279.9844,554.1094 Q2279.375,553.8906 2278.75,553.8906 Q2277.9844,553.8906 2277.3438,554.2188 Q2276.7188,554.5469 2276.2188,555.2969 Q2275.7344,556.0469 2275.7344,557.0781 L2275.7344,558.1719 Q2275.7344,559.4063 2276.625,560.2344 Q2277.5156,561.0469 2279.1094,561.0469 Q2280.0469,561.0469 2280.7031,560.7969 Q2281.0938,560.6406 2281.5156,560.2031 Q2281.7813,559.9375 2281.9219,559.8594 Q2282.0781,559.7813 2282.2813,559.7813 Q2282.6094,559.7813 2282.8594,560.0469 Q2283.125,560.2969 2283.125,560.6406 Q2283.125,560.9844 2282.7813,561.3906 Q2282.2813,561.9688 2281.4844,562.2969 Q2280.4063,562.75 2279.1094,562.75 Q2277.5938,562.75 2276.3906,562.125 Q2275.4063,561.625 2274.7188,560.5625 Q2274.0313,559.4844 2274.0313,558.2031 L2274.0313,557.0469 Q2274.0313,555.7188 2274.6406,554.5781 Q2275.2656,553.4219 2276.3594,552.8125 Q2277.4531,552.1875 2278.6875,552.1875 Q2279.4219,552.1875 2280.0625,552.3594 Q2280.7188,552.5156 2281.2656,552.875 Z " fill="#000000"/><text fill="#000000" font-family="sans-serif" font-size="14" lengthAdjust="spacing" textLength="91.0547" x="2292.5" y="562.7285">BudgetService</text></g><!--class GoalService--><g class="entity" data-qualified-name="services .implementations..GoalService" data-source-line="131" id="ent0027"><rect fill="#F1F1F1" height="32" rx="2.5" ry="2.5" style="stroke:#181818;stroke-width:0.5;" width="108.2549" x="1775" y="343"/><ellipse cx="1790" cy="359" fill="#ADD1B2" rx="11" ry="11" style="stroke:#181818;stroke-width:1;"/><path d="M1792.7656,354.875 Q1792.9219,354.6563 1793.1094,354.5469 Q1793.2969,354.4375 1793.5156,354.4375 Q1793.8906,354.4375 1794.125,354.7031 Q1794.3594,354.9531 1794.3594,355.5625 L1794.3594,357.0156 Q1794.3594,357.625 1794.125,357.8906 Q1793.8906,358.1563 1793.5156,358.1563 Q1793.1719,358.1563 1792.9688,357.9531 Q1792.7656,357.7656 1792.6563,357.25 Q1792.6094,356.8906 1792.4219,356.7031 Q1792.0938,356.3281 1791.4844,356.1094 Q1790.875,355.8906 1790.25,355.8906 Q1789.4844,355.8906 1788.8438,356.2188 Q1788.2188,356.5469 1787.7188,357.2969 Q1787.2344,358.0469 1787.2344,359.0781 L1787.2344,360.1719 Q1787.2344,361.4063 1788.125,362.2344 Q1789.0156,363.0469 1790.6094,363.0469 Q1791.5469,363.0469 1792.2031,362.7969 Q1792.5938,362.6406 1793.0156,362.2031 Q1793.2813,361.9375 1793.4219,361.8594 Q1793.5781,361.7813 1793.7813,361.7813 Q1794.1094,361.7813 1794.3594,362.0469 Q1794.625,362.2969 1794.625,362.6406 Q1794.625,362.9844 1794.2813,363.3906 Q1793.7813,363.9688 1792.9844,364.2969 Q1791.9063,364.75 1790.6094,364.75 Q1789.0938,364.75 1787.8906,364.125 Q1786.9063,363.625 1786.2188,362.5625 Q1785.5313,361.4844 1785.5313,360.2031 L1785.5313,359.0469 Q1785.5313,357.7188 1786.1406,356.5781 Q1786.7656,355.4219 1787.8594,354.8125 Q1788.9531,354.1875 1790.1875,354.1875 Q1790.9219,354.1875 1791.5625,354.3594 Q1792.2188,354.5156 1792.7656,354.875 Z " fill="#000000"/><text fill="#000000" font-family="sans-serif" font-size="14" lengthAdjust="spacing" textLength="76.2549" x="1804" y="364.7285">GoalService</text></g><!--class UserService--><g class="entity" data-qualified-name="services .implementations..UserService" data-source-line="132" id="ent0028"><rect fill="#F1F1F1" height="32" rx="2.5" ry="2.5" style="stroke:#181818;stroke-width:0.5;" width="108.2412" x="2290" y="343"/><ellipse cx="2305" cy="359" fill="#ADD1B2" rx="11" ry="11" style="stroke:#181818;stroke-width:1;"/><path d="M2307.7656,354.875 Q2307.9219,354.6563 2308.1094,354.5469 Q2308.2969,354.4375 2308.5156,354.4375 Q2308.8906,354.4375 2309.125,354.7031 Q2309.3594,354.9531 2309.3594,355.5625 L2309.3594,357.0156 Q2309.3594,357.625 2309.125,357.8906 Q2308.8906,358.1563 2308.5156,358.1563 Q2308.1719,358.1563 2307.9688,357.9531 Q2307.7656,357.7656 2307.6563,357.25 Q2307.6094,356.8906 2307.4219,356.7031 Q2307.0938,356.3281 2306.4844,356.1094 Q2305.875,355.8906 2305.25,355.8906 Q2304.4844,355.8906 2303.8438,356.2188 Q2303.2188,356.5469 2302.7188,357.2969 Q2302.2344,358.0469 2302.2344,359.0781 L2302.2344,360.1719 Q2302.2344,361.4063 2303.125,362.2344 Q2304.0156,363.0469 2305.6094,363.0469 Q2306.5469,363.0469 2307.2031,362.7969 Q2307.5938,362.6406 2308.0156,362.2031 Q2308.2813,361.9375 2308.4219,361.8594 Q2308.5781,361.7813 2308.7813,361.7813 Q2309.1094,361.7813 2309.3594,362.0469 Q2309.625,362.2969 2309.625,362.6406 Q2309.625,362.9844 2309.2813,363.3906 Q2308.7813,363.9688 2307.9844,364.2969 Q2306.9063,364.75 2305.6094,364.75 Q2304.0938,364.75 2302.8906,364.125 Q2301.9063,363.625 2301.2188,362.5625 Q2300.5313,361.4844 2300.5313,360.2031 L2300.5313,359.0469 Q2300.5313,357.7188 2301.1406,356.5781 Q2301.7656,355.4219 2302.8594,354.8125 Q2303.9531,354.1875 2305.1875,354.1875 Q2305.9219,354.1875 2306.5625,354.3594 Q2307.2188,354.5156 2307.7656,354.875 Z " fill="#000000"/><text fill="#000000" font-family="sans-serif" font-size="14" lengthAdjust="spacing" textLength="76.2412" x="2319" y="364.7285">UserService</text></g><!--class DashBoardService--><g class="entity" data-qualified-name="services .implementations..DashBoardService" data-source-line="133" id="ent0029"><rect fill="#F1F1F1" height="32" rx="2.5" ry="2.5" style="stroke:#181818;stroke-width:0.5;" width="148.7236" x="1918.5" y="343"/><ellipse cx="1933.5" cy="359" fill="#ADD1B2" rx="11" ry="11" style="stroke:#181818;stroke-width:1;"/><path d="M1936.2656,354.875 Q1936.4219,354.6563 1936.6094,354.5469 Q1936.7969,354.4375 1937.0156,354.4375 Q1937.3906,354.4375 1937.625,354.7031 Q1937.8594,354.9531 1937.8594,355.5625 L1937.8594,357.0156 Q1937.8594,357.625 1937.625,357.8906 Q1937.3906,358.1563 1937.0156,358.1563 Q1936.6719,358.1563 1936.4688,357.9531 Q1936.2656,357.7656 1936.1563,357.25 Q1936.1094,356.8906 1935.9219,356.7031 Q1935.5938,356.3281 1934.9844,356.1094 Q1934.375,355.8906 1933.75,355.8906 Q1932.9844,355.8906 1932.3438,356.2188 Q1931.7188,356.5469 1931.2188,357.2969 Q1930.7344,358.0469 1930.7344,359.0781 L1930.7344,360.1719 Q1930.7344,361.4063 1931.625,362.2344 Q1932.5156,363.0469 1934.1094,363.0469 Q1935.0469,363.0469 1935.7031,362.7969 Q1936.0938,362.6406 1936.5156,362.2031 Q1936.7813,361.9375 1936.9219,361.8594 Q1937.0781,361.7813 1937.2813,361.7813 Q1937.6094,361.7813 1937.8594,362.0469 Q1938.125,362.2969 1938.125,362.6406 Q1938.125,362.9844 1937.7813,363.3906 Q1937.2813,363.9688 1936.4844,364.2969 Q1935.4063,364.75 1934.1094,364.75 Q1932.5938,364.75 1931.3906,364.125 Q1930.4063,363.625 1929.7188,362.5625 Q1929.0313,361.4844 1929.0313,360.2031 L1929.0313,359.0469 Q1929.0313,357.7188 1929.6406,356.5781 Q1930.2656,355.4219 1931.3594,354.8125 Q1932.4531,354.1875 1933.6875,354.1875 Q1934.4219,354.1875 1935.0625,354.3594 Q1935.7188,354.5156 1936.2656,354.875 Z " fill="#000000"/><text fill="#000000" font-family="sans-serif" font-size="14" lengthAdjust="spacing" textLength="116.7236" x="1947.5" y="364.7285">DashBoardService</text></g><!--class LoginScreen--><g class="entity" data-qualified-name="ui.LoginScreen" data-source-line="137" id="ent0031"><rect fill="#F1F1F1" height="32" rx="2.5" ry="2.5" style="stroke:#181818;stroke-width:0.5;" width="110.6133" x="2979.5" y="134"/><ellipse cx="2994.5" cy="150" fill="#ADD1B2" rx="11" ry="11" style="stroke:#181818;stroke-width:1;"/><path d="M2997.2656,145.875 Q2997.4219,145.6563 2997.6094,145.5469 Q2997.7969,145.4375 2998.0156,145.4375 Q2998.3906,145.4375 2998.625,145.7031 Q2998.8594,145.9531 2998.8594,146.5625 L2998.8594,148.0156 Q2998.8594,148.625 2998.625,148.8906 Q2998.3906,149.1563 2998.0156,149.1563 Q2997.6719,149.1563 2997.4688,148.9531 Q2997.2656,148.7656 2997.1563,148.25 Q2997.1094,147.8906 2996.9219,147.7031 Q2996.5938,147.3281 2995.9844,147.1094 Q2995.375,146.8906 2994.75,146.8906 Q2993.9844,146.8906 2993.3438,147.2188 Q2992.7188,147.5469 2992.2188,148.2969 Q2991.7344,149.0469 2991.7344,150.0781 L2991.7344,151.1719 Q2991.7344,152.4063 2992.625,153.2344 Q2993.5156,154.0469 2995.1094,154.0469 Q2996.0469,154.0469 2996.7031,153.7969 Q2997.0938,153.6406 2997.5156,153.2031 Q2997.7813,152.9375 2997.9219,152.8594 Q2998.0781,152.7813 2998.2813,152.7813 Q2998.6094,152.7813 2998.8594,153.0469 Q2999.125,153.2969 2999.125,153.6406 Q2999.125,153.9844 2998.7813,154.3906 Q2998.2813,154.9688 2997.4844,155.2969 Q2996.4063,155.75 2995.1094,155.75 Q2993.5938,155.75 2992.3906,155.125 Q2991.4063,154.625 2990.7188,153.5625 Q2990.0313,152.4844 2990.0313,151.2031 L2990.0313,150.0469 Q2990.0313,148.7188 2990.6406,147.5781 Q2991.2656,146.4219 2992.3594,145.8125 Q2993.4531,145.1875 2994.6875,145.1875 Q2995.4219,145.1875 2996.0625,145.3594 Q2996.7188,145.5156 2997.2656,145.875 Z " fill="#000000"/><text fill="#000000" font-family="sans-serif" font-size="14" lengthAdjust="spacing" textLength="78.6133" x="3008.5" y="155.7285">LoginScreen</text></g><!--class MainScreen--><g class="entity" data-qualified-name="ui.MainScreen" data-source-line="138" id="ent0032"><rect fill="#F1F1F1" height="32" rx="2.5" ry="2.5" style="stroke:#181818;stroke-width:0.5;" width="106.7031" x="2671.5" y="134"/><ellipse cx="2686.5" cy="150" fill="#ADD1B2" rx="11" ry="11" style="stroke:#181818;stroke-width:1;"/><path d="M2689.2656,145.875 Q2689.4219,145.6563 2689.6094,145.5469 Q2689.7969,145.4375 2690.0156,145.4375 Q2690.3906,145.4375 2690.625,145.7031 Q2690.8594,145.9531 2690.8594,146.5625 L2690.8594,148.0156 Q2690.8594,148.625 2690.625,148.8906 Q2690.3906,149.1563 2690.0156,149.1563 Q2689.6719,149.1563 2689.4688,148.9531 Q2689.2656,148.7656 2689.1563,148.25 Q2689.1094,147.8906 2688.9219,147.7031 Q2688.5938,147.3281 2687.9844,147.1094 Q2687.375,146.8906 2686.75,146.8906 Q2685.9844,146.8906 2685.3438,147.2188 Q2684.7188,147.5469 2684.2188,148.2969 Q2683.7344,149.0469 2683.7344,150.0781 L2683.7344,151.1719 Q2683.7344,152.4063 2684.625,153.2344 Q2685.5156,154.0469 2687.1094,154.0469 Q2688.0469,154.0469 2688.7031,153.7969 Q2689.0938,153.6406 2689.5156,153.2031 Q2689.7813,152.9375 2689.9219,152.8594 Q2690.0781,152.7813 2690.2813,152.7813 Q2690.6094,152.7813 2690.8594,153.0469 Q2691.125,153.2969 2691.125,153.6406 Q2691.125,153.9844 2690.7813,154.3906 Q2690.2813,154.9688 2689.4844,155.2969 Q2688.4063,155.75 2687.1094,155.75 Q2685.5938,155.75 2684.3906,155.125 Q2683.4063,154.625 2682.7188,153.5625 Q2682.0313,152.4844 2682.0313,151.2031 L2682.0313,150.0469 Q2682.0313,148.7188 2682.6406,147.5781 Q2683.2656,146.4219 2684.3594,145.8125 Q2685.4531,145.1875 2686.6875,145.1875 Q2687.4219,145.1875 2688.0625,145.3594 Q2688.7188,145.5156 2689.2656,145.875 Z " fill="#000000"/><text fill="#000000" font-family="sans-serif" font-size="14" lengthAdjust="spacing" textLength="74.7031" x="2700.5" y="155.7285">MainScreen</text></g><!--class AddTransaction--><g class="entity" data-qualified-name="ui.AddTransaction" data-source-line="139" id="ent0033"><rect fill="#F1F1F1" height="32" rx="2.5" ry="2.5" style="stroke:#181818;stroke-width:0.5;" width="130.0547" x="2814" y="134"/><ellipse cx="2829" cy="150" fill="#ADD1B2" rx="11" ry="11" style="stroke:#181818;stroke-width:1;"/><path d="M2831.7656,145.875 Q2831.9219,145.6563 2832.1094,145.5469 Q2832.2969,145.4375 2832.5156,145.4375 Q2832.8906,145.4375 2833.125,145.7031 Q2833.3594,145.9531 2833.3594,146.5625 L2833.3594,148.0156 Q2833.3594,148.625 2833.125,148.8906 Q2832.8906,149.1563 2832.5156,149.1563 Q2832.1719,149.1563 2831.9688,148.9531 Q2831.7656,148.7656 2831.6563,148.25 Q2831.6094,147.8906 2831.4219,147.7031 Q2831.0938,147.3281 2830.4844,147.1094 Q2829.875,146.8906 2829.25,146.8906 Q2828.4844,146.8906 2827.8438,147.2188 Q2827.2188,147.5469 2826.7188,148.2969 Q2826.2344,149.0469 2826.2344,150.0781 L2826.2344,151.1719 Q2826.2344,152.4063 2827.125,153.2344 Q2828.0156,154.0469 2829.6094,154.0469 Q2830.5469,154.0469 2831.2031,153.7969 Q2831.5938,153.6406 2832.0156,153.2031 Q2832.2813,152.9375 2832.4219,152.8594 Q2832.5781,152.7813 2832.7813,152.7813 Q2833.1094,152.7813 2833.3594,153.0469 Q2833.625,153.2969 2833.625,153.6406 Q2833.625,153.9844 2833.2813,154.3906 Q2832.7813,154.9688 2831.9844,155.2969 Q2830.9063,155.75 2829.6094,155.75 Q2828.0938,155.75 2826.8906,155.125 Q2825.9063,154.625 2825.2188,153.5625 Q2824.5313,152.4844 2824.5313,151.2031 L2824.5313,150.0469 Q2824.5313,148.7188 2825.1406,147.5781 Q2825.7656,146.4219 2826.8594,145.8125 Q2827.9531,145.1875 2829.1875,145.1875 Q2829.9219,145.1875 2830.5625,145.3594 Q2831.2188,145.5156 2831.7656,145.875 Z " fill="#000000"/><text fill="#000000" font-family="sans-serif" font-size="14" lengthAdjust="spacing" textLength="98.0547" x="2843" y="155.7285">AddTransaction</text></g><!--class AddBudget--><g class="entity" data-qualified-name="ui.AddBudget" data-source-line="140" id="ent0034"><rect fill="#F1F1F1" height="32" rx="2.5" ry="2.5" style="stroke:#181818;stroke-width:0.5;" width="101.2822" x="3125.5" y="134"/><ellipse cx="3140.5" cy="150" fill="#ADD1B2" rx="11" ry="11" style="stroke:#181818;stroke-width:1;"/><path d="M3143.2656,145.875 Q3143.4219,145.6563 3143.6094,145.5469 Q3143.7969,145.4375 3144.0156,145.4375 Q3144.3906,145.4375 3144.625,145.7031 Q3144.8594,145.9531 3144.8594,146.5625 L3144.8594,148.0156 Q3144.8594,148.625 3144.625,148.8906 Q3144.3906,149.1563 3144.0156,149.1563 Q3143.6719,149.1563 3143.4688,148.9531 Q3143.2656,148.7656 3143.1563,148.25 Q3143.1094,147.8906 3142.9219,147.7031 Q3142.5938,147.3281 3141.9844,147.1094 Q3141.375,146.8906 3140.75,146.8906 Q3139.9844,146.8906 3139.3438,147.2188 Q3138.7188,147.5469 3138.2188,148.2969 Q3137.7344,149.0469 3137.7344,150.0781 L3137.7344,151.1719 Q3137.7344,152.4063 3138.625,153.2344 Q3139.5156,154.0469 3141.1094,154.0469 Q3142.0469,154.0469 3142.7031,153.7969 Q3143.0938,153.6406 3143.5156,153.2031 Q3143.7813,152.9375 3143.9219,152.8594 Q3144.0781,152.7813 3144.2813,152.7813 Q3144.6094,152.7813 3144.8594,153.0469 Q3145.125,153.2969 3145.125,153.6406 Q3145.125,153.9844 3144.7813,154.3906 Q3144.2813,154.9688 3143.4844,155.2969 Q3142.4063,155.75 3141.1094,155.75 Q3139.5938,155.75 3138.3906,155.125 Q3137.4063,154.625 3136.7188,153.5625 Q3136.0313,152.4844 3136.0313,151.2031 L3136.0313,150.0469 Q3136.0313,148.7188 3136.6406,147.5781 Q3137.2656,146.4219 3138.3594,145.8125 Q3139.4531,145.1875 3140.6875,145.1875 Q3141.4219,145.1875 3142.0625,145.3594 Q3142.7188,145.5156 3143.2656,145.875 Z " fill="#000000"/><text fill="#000000" font-family="sans-serif" font-size="14" lengthAdjust="spacing" textLength="69.2822" x="3154.5" y="155.7285">AddBudget</text></g><!--reverse link ITransactionRepo to TransactionRepo--><g class="link" data-entity-1="ent0009" data-entity-2="ent0014" data-link-type="extension" data-source-line="144" id="lnk35"><path codeLine="144" d="M879.5869,638.1054 C919.8169,658.1754 949.54,669.35 994,680 C1082.63,701.22 1727.17,669.35 1814,697 C1841.65,705.81 1868.51,726.43 1884.9,740.8" fill="none" id="ITransactionRepo-backto-TransactionRepo" style="stroke:#181818;stroke-width:1;stroke-dasharray:7,7;"/><polygon fill="none" points="863.48,630.07,876.9084,643.4744,882.2654,632.7365,863.48,630.07" style="stroke:#181818;stroke-width:1;"/></g><!--reverse link IBudgetRepo to BudgetRepo--><g class="link" data-entity-1="ent0010" data-entity-2="ent0015" data-link-type="extension" data-source-line="145" id="lnk36"><path codeLine="145" d="M1389.14,663.4949 C1410.42,673.2249 1416.12,674.17 1438,680 C1484.28,692.34 1821.16,685.75 1869,688 C1921.98,690.49 1938.7,677.44 1988,697 C2011.93,706.49 2034.13,726.74 2047.62,740.85" fill="none" id="IBudgetRepo-backto-BudgetRepo" style="stroke:#181818;stroke-width:1;stroke-dasharray:7,7;"/><polygon fill="none" points="1372.77,656.01,1386.645,668.9516,1391.6349,658.0383,1372.77,656.01" style="stroke:#181818;stroke-width:1;"/></g><!--reverse link IGoalRepo to GoalRepo--><g class="link" data-entity-1="ent0011" data-entity-2="ent0016" data-link-type="extension" data-source-line="146" id="lnk37"><path codeLine="146" d="M347.158,620.9961 C391.748,646.3461 432.57,665.26 487,680 C722.44,743.74 1500.26,754.09 1701.26,755.71" fill="none" id="IGoalRepo-backto-GoalRepo" style="stroke:#181818;stroke-width:1;stroke-dasharray:7,7;"/><polygon fill="none" points="331.51,612.1,344.1926,626.2121,350.1234,615.7801,331.51,612.1" style="stroke:#181818;stroke-width:1;"/></g><!--reverse link IUserRepo to UserRepo--><g class="link" data-entity-1="ent0012" data-entity-2="ent0017" data-link-type="extension" data-source-line="147" id="lnk38"><path codeLine="147" d="M1628.5893,598.3376 C1660.4793,627.8576 1702.05,660.42 1759,680 C1798.44,693.56 2095.44,681.1 2134,697 C2156.4,706.24 2176.05,726.76 2187.72,740.99" fill="none" id="IUserRepo-backto-UserRepo" style="stroke:#181818;stroke-width:1;stroke-dasharray:7,7;"/><polygon fill="none" points="1615.38,586.11,1624.5134,602.7407,1632.6652,593.9345,1615.38,586.11" style="stroke:#181818;stroke-width:1;"/></g><!--reverse link ITransactionService to TransactionService--><g class="link" data-entity-1="ent0019" data-entity-2="ent0025" data-link-type="extension" data-source-line="149" id="lnk39"><path codeLine="149" d="M1990.1619,250.1151 C2013.4819,264.5951 2022.52,269.45 2046,282 C2062.68,290.91 2068.28,290.17 2085,299 C2110.56,312.49 2138.44,330.43 2157.14,342.97" fill="none" id="ITransactionService-backto-TransactionService" style="stroke:#181818;stroke-width:1;stroke-dasharray:7,7;"/><polygon fill="none" points="1974.87,240.62,1986.9969,255.2124,1993.3269,245.0178,1974.87,240.62" style="stroke:#181818;stroke-width:1;"/></g><!--reverse link IBudgetService to BudgetService--><g class="link" data-entity-1="ent0020" data-entity-2="ent0026" data-link-type="extension" data-source-line="150" id="lnk40"><path codeLine="150" d="M2440.0413,266.8474 C2434.8313,306.6074 2428.93,334.71 2416,375 C2395.16,439.97 2353.64,510.42 2334.76,540.73" fill="none" id="IBudgetService-backto-BudgetService" style="stroke:#181818;stroke-width:1;stroke-dasharray:7,7;"/><polygon fill="none" points="2442.38,249,2434.0922,266.0679,2445.9905,267.627,2442.38,249" style="stroke:#181818;stroke-width:1;"/></g><!--reverse link IGoalService to GoalService--><g class="link" data-entity-1="ent0021" data-entity-2="ent0027" data-link-type="extension" data-source-line="151" id="lnk41"><path codeLine="151" d="M1187.0055,214.6454 C1230.7455,241.8454 1271.72,263.4 1326,282 C1483.07,335.83 1680.71,351.58 1774.63,356.16" fill="none" id="IGoalService-backto-GoalService" style="stroke:#181818;stroke-width:1;stroke-dasharray:7,7;"/><polygon fill="none" points="1171.72,205.14,1183.8371,219.7406,1190.174,209.5502,1171.72,205.14" style="stroke:#181818;stroke-width:1;"/></g><!--reverse link IUserService to UserService--><g class="link" data-entity-1="ent0022" data-entity-2="ent0028" data-link-type="extension" data-source-line="152" id="lnk42"><path codeLine="152" d="M2192.59,192.8974 C2214.88,219.7374 2238.33,247.3 2270,282 C2289.74,303.63 2313.5,327.71 2328.68,342.85" fill="none" id="IUserService-backto-UserService" style="stroke:#181818;stroke-width:1;stroke-dasharray:7,7;"/><polygon fill="none" points="2181.09,179.05,2187.9742,196.7307,2197.2058,189.0641,2181.09,179.05" style="stroke:#181818;stroke-width:1;"/></g><!--reverse link IDashboardService to DashBoardService--><g class="link" data-entity-1="ent0023" data-entity-2="ent0029" data-link-type="extension" data-source-line="153" id="lnk43"><path codeLine="153" d="M1609.5705,268.2038 C1623.7605,277.5538 1623.67,275.88 1639,282 C1747.36,325.29 1790.14,262.57 1901,299 C1929.48,308.36 1957.85,328.64 1975.4,342.8" fill="none" id="IDashboardService-backto-DashBoardService" style="stroke:#181818;stroke-width:1;stroke-dasharray:7,7;"/><polygon fill="none" points="1594.54,258.3,1606.2692,273.2139,1612.8717,263.1936,1594.54,258.3" style="stroke:#181818;stroke-width:1;"/></g><!--link TransactionRepo to DatabaseConnection--><g class="link" data-entity-1="ent0014" data-entity-2="ent0007" data-link-type="dependency" data-source-line="156" id="lnk44"><path codeLine="156" d="M1928.11,773.19 C1953.63,787.63 1992.78,810.19 2026,831 C2066.91,856.63 2107.2496,883.6799 2141.2296,906.9499" fill="none" id="TransactionRepo-to-DatabaseConnection" style="stroke:#181818;stroke-width:1;"/><polygon fill="#181818" points="2146.18,910.34,2141.0144,901.9545,2142.0546,907.5149,2136.4942,908.5551,2146.18,910.34" style="stroke:#181818;stroke-width:1;"/><text fill="#000000" font-family="sans-serif" font-size="13" lengthAdjust="spacing" textLength="27.46" x="2013" y="819.4951">uses</text></g><!--link BudgetRepo to DatabaseConnection--><g class="link" data-entity-1="ent0015" data-entity-2="ent0007" data-link-type="dependency" data-source-line="157" id="lnk45"><path codeLine="157" d="M2072.06,773.15 C2093.61,802.67 2138.2519,863.8042 2168.6619,905.4542" fill="none" id="BudgetRepo-to-DatabaseConnection" style="stroke:#181818;stroke-width:1;"/><polygon fill="#181818" points="2172.2,910.3,2170.1234,900.6725,2169.2516,906.2618,2163.6623,905.39,2172.2,910.3" style="stroke:#181818;stroke-width:1;"/><text fill="#000000" font-family="sans-serif" font-size="13" lengthAdjust="spacing" textLength="27.46" x="2106" y="819.4951">uses</text></g><!--link GoalRepo to DatabaseConnection--><g class="link" data-entity-1="ent0016" data-entity-2="ent0007" data-link-type="dependency" data-source-line="158" id="lnk46"><path codeLine="158" d="M1769.99,773.17 C1782.27,781.37 1798.39,791.02 1814,797 C1870.65,818.71 1887.99,814.12 1948,823 C1982.47,828.1 1993.22,819.17 2026,831 C2075.15,848.74 2119.2657,879.6358 2152.4357,906.4758" fill="none" id="GoalRepo-to-DatabaseConnection" style="stroke:#181818;stroke-width:1;"/><polygon fill="#181818" points="2157.1,910.25,2152.6197,901.4792,2153.2131,907.1049,2147.5874,907.6983,2157.1,910.25" style="stroke:#181818;stroke-width:1;"/><text fill="#000000" font-family="sans-serif" font-size="13" lengthAdjust="spacing" textLength="27.46" x="1949" y="819.4951">uses</text></g><!--link UserRepo to DatabaseConnection--><g class="link" data-entity-1="ent0017" data-entity-2="ent0007" data-link-type="dependency" data-source-line="159" id="lnk47"><path codeLine="159" d="M2199,773.15 C2199,802.67 2199,862.65 2199,904.3" fill="none" id="UserRepo-to-DatabaseConnection" style="stroke:#181818;stroke-width:1;stroke-dasharray:7,7;"/><polygon fill="#181818" points="2199,910.3,2203,901.3,2199,905.3,2195,901.3,2199,910.3" style="stroke:#181818;stroke-width:1;"/><text fill="#000000" font-family="sans-serif" font-size="13" lengthAdjust="spacing" textLength="136.5635" x="2200" y="819.4951">uses (context manager)</text></g><!--link TransactionService to TransactionRepo--><g class="link" data-entity-1="ent0025" data-entity-2="ent0014" data-link-type="aggregation" data-source-line="161" id="lnk48"><path codeLine="161" d="M2165.1056,385.6003 C2139.3456,432.7403 2061.92,570.24 1975,680 C1957.05,702.67 1937.653,722.0118 1921.963,736.7518" fill="none" id="TransactionService-TransactionRepo" style="stroke:#181818;stroke-width:1;"/><polygon fill="none" points="2170.86,375.07,2164.4727,378.417,2165.1056,385.6003,2171.4929,382.2533,2170.86,375.07" style="stroke:#181818;stroke-width:1;"/><polygon fill="#181818" points="1917.59,740.86,1926.8882,737.613,1921.2341,737.4365,1921.4107,731.7824,1917.59,740.86" style="stroke:#181818;stroke-width:1;"/></g><!--link TransactionService to BudgetService--><g class="link" data-entity-1="ent0025" data-entity-2="ent0026" data-link-type="aggregation" data-source-line="162" id="lnk49"><path codeLine="162" d="M2197.3783,384.6737 C2224.5583,421.1637 2282.945,499.5488 2310.165,536.0788" fill="none" id="TransactionService-BudgetService" style="stroke:#181818;stroke-width:1;"/><polygon fill="none" points="2190.21,375.05,2190.5863,382.2513,2197.3783,384.6737,2197.0021,377.4724,2190.21,375.05" style="stroke:#181818;stroke-width:1;"/><polygon fill="#181818" points="2313.75,540.89,2311.5799,531.2832,2310.7625,536.8807,2305.165,536.0632,2313.75,540.89" style="stroke:#181818;stroke-width:1;"/></g><!--link BudgetService to BudgetRepo--><g class="link" data-entity-1="ent0026" data-entity-2="ent0015" data-link-type="aggregation" data-source-line="164" id="lnk50"><path codeLine="164" d="M2293.7381,580.0027 C2258.1281,605.1527 2194.52,650.57 2134,697 C2114.99,711.58 2098.3792,725.0529 2083.7292,737.1329" fill="none" id="BudgetService-BudgetRepo" style="stroke:#181818;stroke-width:1;"/><polygon fill="none" points="2303.54,573.08,2296.3315,573.2741,2293.7381,580.0027,2300.9466,579.8086,2303.54,573.08" style="stroke:#181818;stroke-width:1;"/><polygon fill="#181818" points="2079.1,740.95,2088.5886,738.3105,2082.9577,737.7691,2083.4991,732.1382,2079.1,740.95" style="stroke:#181818;stroke-width:1;"/></g><!--link GoalService to GoalRepo--><g class="link" data-entity-1="ent0027" data-entity-2="ent0016" data-link-type="aggregation" data-source-line="165" id="lnk51"><path codeLine="165" d="M1823.5843,386.8025 C1810.9143,449.5325 1765.9084,672.3089 1753.2284,735.0589" fill="none" id="GoalService-GoalRepo" style="stroke:#181818;stroke-width:1;"/><polygon fill="none" points="1825.96,375.04,1820.8513,380.1293,1823.5843,386.8025,1828.693,381.7132,1825.96,375.04" style="stroke:#181818;stroke-width:1;"/><polygon fill="#181818" points="1752.04,740.94,1757.7434,732.9106,1753.0303,736.0391,1749.9019,731.326,1752.04,740.94" style="stroke:#181818;stroke-width:1;"/></g><!--link UserService to UserRepo--><g class="link" data-entity-1="ent0028" data-entity-2="ent0017" data-link-type="aggregation" data-source-line="166" id="lnk52"><path codeLine="166" d="M2286.5986,379.9158 C2267.6686,388.3958 2258.32,396.07 2246,414 C2173.04,520.21 2188.6548,683.307 2195.7948,734.727" fill="none" id="UserService-UserRepo" style="stroke:#181818;stroke-width:1;"/><polygon fill="none" points="2297.55,375.01,2290.439,373.8125,2286.5986,379.9158,2293.7096,381.1134,2297.55,375.01" style="stroke:#181818;stroke-width:1;"/><polygon fill="#181818" points="2196.62,740.67,2199.3442,731.2054,2195.9323,735.7175,2191.4202,732.3057,2196.62,740.67" style="stroke:#181818;stroke-width:1;"/></g><!--link DashBoardService to TransactionRepo--><g class="link" data-entity-1="ent0029" data-entity-2="ent0014" data-link-type="aggregation" data-source-line="167" id="lnk53"><path codeLine="167" d="M1986.7933,386.7284 C1972.2133,449.4584 1920.4379,672.3457 1905.8579,735.0957" fill="none" id="DashBoardService-TransactionRepo" style="stroke:#181818;stroke-width:1;"/><polygon fill="none" points="1989.51,375.04,1984.2555,379.9787,1986.7933,386.7284,1992.0478,381.7898,1989.51,375.04" style="stroke:#181818;stroke-width:1;"/><polygon fill="#181818" points="1904.5,740.94,1910.4331,733.0788,1905.6316,736.0697,1902.6407,731.2682,1904.5,740.94" style="stroke:#181818;stroke-width:1;"/></g><!--link DashBoardService to BudgetRepo--><g class="link" data-entity-1="ent0029" data-entity-2="ent0015" data-link-type="aggregation" data-source-line="168" id="lnk54"><path codeLine="168" d="M1997.6105,386.867 C2008.3805,449.597 2046.625,672.2765 2057.395,735.0265" fill="none" id="DashBoardService-BudgetRepo" style="stroke:#181818;stroke-width:1;"/><polygon fill="none" points="1995.58,375.04,1992.653,381.6303,1997.6105,386.867,2000.5376,380.2766,1995.58,375.04" style="stroke:#181818;stroke-width:1;"/><polygon fill="#181818" points="2058.41,740.94,2060.8299,731.3931,2057.5642,736.0121,2052.9452,732.7463,2058.41,740.94" style="stroke:#181818;stroke-width:1;"/></g><!--link TransactionRepo to Transaction--><g class="link" data-entity-1="ent0014" data-entity-2="ent0003" data-link-type="dependency" data-source-line="170" id="lnk55"><path codeLine="170" d="M1892.42,773.15 C1878.94,796.97 1854.9561,839.3287 1832.6661,878.6987" fill="none" id="TransactionRepo-to-Transaction" style="stroke:#181818;stroke-width:1;stroke-dasharray:7,7;"/><polygon fill="#181818" points="1829.71,883.92,1837.625,878.0589,1832.1734,879.569,1830.6633,874.1174,1829.71,883.92" style="stroke:#181818;stroke-width:1;"/></g><!--link BudgetRepo to Budget--><g class="link" data-entity-1="ent0015" data-entity-2="ent0004" data-link-type="dependency" data-source-line="171" id="lnk56"><path codeLine="171" d="M2032.62,773.18 C2019.92,781.2 2005.67,792.06 1996,805 C1978.71,828.14 1968.7324,852.0036 1961.0324,878.1936" fill="none" id="BudgetRepo-to-Budget" style="stroke:#181818;stroke-width:1;stroke-dasharray:7,7;"/><polygon fill="#181818" points="1959.34,883.95,1965.7162,876.4437,1960.7503,879.153,1958.041,874.1872,1959.34,883.95" style="stroke:#181818;stroke-width:1;"/></g><!--link GoalRepo to Goal--><g class="link" data-entity-1="ent0016" data-entity-2="ent0005" data-link-type="dependency" data-source-line="172" id="lnk57"><path codeLine="172" d="M1739.46,773.15 C1725.62,795.13 1702.2371,832.2727 1678.7371,869.5927" fill="none" id="GoalRepo-to-Goal" style="stroke:#181818;stroke-width:1;stroke-dasharray:7,7;"/><polygon fill="#181818" points="1675.54,874.67,1683.7205,869.1855,1678.2042,870.4389,1676.9508,864.9227,1675.54,874.67" style="stroke:#181818;stroke-width:1;"/></g><!--link LoginScreen to UserService--><g class="link" data-entity-1="ent0031" data-entity-2="ent0028" data-link-type="dependency" data-source-line="175" id="lnk58"><path codeLine="175" d="M3031.65,166.05 C3024.45,194.41 3004.58,255.31 2962,282 C2948.89,290.22 2838.39,288.47 2823,290 C2668.17,305.42 2492.5091,333.1478 2403.9791,347.8378" fill="none" id="LoginScreen-to-UserService" style="stroke:#181818;stroke-width:1;"/><polygon fill="#181818" points="2398.06,348.82,2407.5934,351.2928,2402.9926,348.0015,2406.2838,343.4007,2398.06,348.82" style="stroke:#181818;stroke-width:1;"/></g><!--link MainScreen to DashBoardService--><g class="link" data-entity-1="ent0032" data-entity-2="ent0029" data-link-type="dependency" data-source-line="176" id="lnk59"><path codeLine="176" d="M2719.39,166.28 C2707.89,195.03 2678.67,256.58 2631,282 C2577.54,310.5 2143.91,281.2 2086,299 C2056.94,307.93 2032.7612,324.752 2015.0812,339.082" fill="none" id="MainScreen-to-DashBoardService" style="stroke:#181818;stroke-width:1;"/><polygon fill="#181818" points="2010.42,342.86,2019.9305,340.3005,2014.3043,339.7117,2014.8931,334.0855,2010.42,342.86" style="stroke:#181818;stroke-width:1;"/></g><!--link AddTransaction to TransactionService--><g class="link" data-entity-1="ent0033" data-entity-2="ent0025" data-link-type="dependency" data-source-line="177" id="lnk60"><path codeLine="177" d="M2874.59,166.21 C2865.38,194.85 2841.11,256.21 2796,282 C2745.52,310.85 2328.6,282.01 2273,299 C2243.7,307.95 2219.2252,324.7918 2201.3252,339.1118" fill="none" id="AddTransaction-to-TransactionService" style="stroke:#181818;stroke-width:1;"/><polygon fill="#181818" points="2196.64,342.86,2206.1666,340.3612,2200.5443,339.7365,2201.169,334.1143,2196.64,342.86" style="stroke:#181818;stroke-width:1;"/></g><!--link AddBudget to BudgetService--><g class="link" data-entity-1="ent0034" data-entity-2="ent0026" data-link-type="dependency" data-source-line="178" id="lnk61"><path codeLine="178" d="M3172.11,166.27 C3164.42,193.39 3144.79,250.11 3108,282 C2888.74,472.11 2535.4972,531.9843 2392.4972,549.1643" fill="none" id="AddBudget-to-BudgetService" style="stroke:#181818;stroke-width:1;"/><polygon fill="#181818" points="2386.54,549.88,2395.9529,552.7779,2391.5043,549.2836,2394.9986,544.835,2386.54,549.88" style="stroke:#181818;stroke-width:1;"/></g><?plantuml-src rLXDZzis4BthLn2vH4PjOyz6jqK-W6A1f8TiSnPeSMmJAv4gIUskq-Q_bwH8cgG-x1QzvEArXiEPuNipZ_AUA044RQVEg8Ls3q8Myeco3WlSehh1KhvJIj1zh-2XvkoHVWDqLnGThf_m4T2RbXDev1lqLu46T_I7m4pYMb7Eh1MXdoZP8ShKhyCJRddFr0uT6exLOAgnWYCNvnsIIWocbZDrijk6vpDWuH-_5o7R-vuSGTsSI765cmdxZTb-uxYPpiLm2r7r2WjTLZMHIU9d85CBdU170L9M7OWQp6AeXiggvctNWD8vzfmtjghl4Gq4Axp74c8YFZhR1yuO97p0AzIQqFBF7iHvZIpPyhvShT41L7sw_vqpM2MkiXQqK-NmPpLABw3ZaYhD82frrI0Ek0Qv6ge91lGGzSONlSNNWmcfr6MfZBxludvoDHba8nTPJjkh_RcY90vMESvcufWDjX5A-xb6fWkSRzzfY66kIXruZHYyE5w7xow8-He5qkC2Yu52XRRl8l26LezngmMOelPseKnwQeqkBJqS93vvVOBwoUzRSYH0-bfL1y7RD4qbExWncO5vs5ljzV2n6XPJscRWQJQN867a4dOnd2FEURew7Cfhb62MCZIvmxbGPg2NtgcoiZ9NQywZ4P495e_QN0OPMQCf2LdhE5HHt5HMHfmLtQExxLq42suQ6ovCXi5Kxw3iA4kpS1C0jg3OU-emNoM8-307oaZLQsDfFgBZT5gINhWWzl6AWXYfQtLxOJkMgvdRnQJDxe74v74E1bzhabZRdgaMgvk5wt7Ou0ySTVSB5an3x2V4ZlLKv-Pob_hxkt1gvpDkw4Y7PjEjqL3ObJaSJTMKjWAXAXMjNFB6iQvAtOnkUnnvGn917RxFIsF6p7zMnu3oLGqQwsW6m8nwfcMCc-DVoTy2cpDIjYoDNXJ-BwtBQ347_76rBZjCmu-K1QcxgDpKzezOdlOS2vB5a2UkUtlFU-MFmFNTMXrx_MhkBGQ2ohpaJP0ChnqNQcxLOtJ32vEi3bpClW4PvxeNGklou1FwBkx8mNGraEibsRSj5kTb9nFBYs8vwhSPBR_j2d5CPBT8ResQEBbBSfiX-7r4S59RJ-CQFfc-UTI31IpOFkEHwHqXKRMnUQZKP7YBDfiD-W9QjBuDfusEBrTcjHYzUF_yztOxkalZDqph45sgbxSMknBkriiBWBM7AxQOkZBph1wdJB-ZtC4Z5f9GGLYD9pFK4LP7WsTTHcmv93zm0OY07a42hAQwcmo2EO2RpIzJFx1sI6k1B28Wbnq3gijk0UJjTi4DbVeNke9NXLhCTDFf2IacME0cLyxzd5zAGv4I5NdO8359TYsqIKoGNGcDajCmNTwqLvHwH911AfwTY1ApvEOdu6zivi5tmTS7rmCIQNo3i9XMY6ON-QDuW2upx1ZDUYmTQ9GTDV9o_zSOK_0F?></g></svg>