<?plantuml 1.2026.2?><svg xmlns="http://www.w3.org/2000/svg" xmlns:xlink="http://www.w3.org/1999/xlink" contentStyleType="text/css" data-diagram-type="ACTIVITY" height="1292px" preserveAspectRatio="none" style="width:302px;height:1292px;background:#FFFFFF;" version="1.1" viewBox="0 0 302 1292" width="302px" zoomAndPan="magnify"><title>Activity: Add Transaction</title><defs/><g><g class="title" data-source-line="1"><text fill="#000000" font-family="sans-serif" font-size="14" font-weight="bold" lengthAdjust="spacing" textLength="169.5791" x="65.0785" y="34.5332">Activity: Add Transaction</text></g><ellipse cx="118.9805" cy="58.6094" fill="#222222" rx="10" ry="10" style="stroke:#222222;stroke-width:1;"/><rect fill="#F1F1F1" height="35.0938" rx="12.5" ry="12.5" style="stroke:#181818;stroke-width:0.5;" width="215.9609" x="11" y="88.6094"/><text fill="#000000" font-family="sans-serif" font-size="12" lengthAdjust="spacing" textLength="195.9609" x="21" y="111.0664">User opens "Add Transaction" dialog</text><rect fill="#F1F1F1" height="35.0938" rx="12.5" ry="12.5" style="stroke:#181818;stroke-width:0.5;" width="193.7715" x="22.0947" y="143.7031"/><text fill="#000000" font-family="sans-serif" font-size="12" lengthAdjust="spacing" textLength="173.7715" x="32.0947" y="166.1602">Enter amount + choose category</text><rect fill="#F1F1F1" height="35.0938" rx="12.5" ry="12.5" style="stroke:#181818;stroke-width:0.5;" width="116.7148" x="60.623" y="198.7969"/><text fill="#000000" font-family="sans-serif" font-size="12" lengthAdjust="spacing" textLength="96.7148" x="70.623" y="221.2539">Select month/year</text><rect fill="#F1F1F1" height="35.0938" rx="12.5" ry="12.5" style="stroke:#181818;stroke-width:0.5;" width="78.6875" x="79.6367" y="302.8086"/><text fill="#000000" font-family="sans-serif" font-size="12" lengthAdjust="spacing" textLength="58.6875" x="89.6367" y="325.2656">Show error</text><ellipse cx="118.9805" cy="376.8555" fill="none" rx="11" ry="11" style="stroke:#222222;stroke-width:1;"/><ellipse cx="118.9805" cy="376.8555" fill="#222222" rx="6" ry="6" style="stroke:#222222;stroke-width:1;"/><polygon fill="#F1F1F1" points="80.4617,253.8906,157.4993,253.8906,169.4993,265.8906,157.4993,277.8906,80.4617,277.8906,68.4617,265.8906,80.4617,253.8906" style="stroke:#181818;stroke-width:0.5;"/><text fill="#000000" font-family="sans-serif" font-size="11" lengthAdjust="spacing" textLength="17.1177" x="122.9805" y="289.3096">yes</text><text fill="#000000" font-family="sans-serif" font-size="11" lengthAdjust="spacing" textLength="77.0376" x="80.4617" y="270.3916">Amount empty?</text><rect fill="#F1F1F1" height="35.0938" rx="12.5" ry="12.5" style="stroke:#181818;stroke-width:0.5;" width="133.25" x="52.3555" y="478.7734"/><text fill="#000000" font-family="sans-serif" font-size="12" lengthAdjust="spacing" textLength="113.25" x="62.3555" y="501.2305">Prompt "Add Budget"</text><rect fill="#F1F1F1" height="35.0938" rx="12.5" ry="12.5" style="stroke:#181818;stroke-width:0.5;" width="159.2891" x="39.3359" y="582.7852"/><text fill="#000000" font-family="sans-serif" font-size="12" lengthAdjust="spacing" textLength="139.2891" x="49.3359" y="605.2422">Open "Add Budget" dialog</text><rect fill="#F1F1F1" height="35.0938" rx="12.5" ry="12.5" style="stroke:#181818;stroke-width:0.5;" width="138.084" x="49.9385" y="637.8789"/><text fill="#000000" font-family="sans-serif" font-size="12" lengthAdjust="spacing" textLength="118.084" x="59.9385" y="660.3359">Create/Update budget</text><polygon fill="#F1F1F1" points="52.0217,533.8672,185.9392,533.8672,197.9392,545.8672,185.9392,557.8672,52.0217,557.8672,40.0217,545.8672,52.0217,533.8672" style="stroke:#181818;stroke-width:0.5;"/><text fill="#000000" font-family="sans-serif" font-size="11" lengthAdjust="spacing" textLength="17.1177" x="122.9805" y="569.2861">yes</text><text fill="#000000" font-family="sans-serif" font-size="11" lengthAdjust="spacing" textLength="133.9175" x="52.0217" y="550.3682">User chooses Add Budget?</text><text fill="#000000" font-family="sans-serif" font-size="11" lengthAdjust="spacing" textLength="31.7969" x="197.9392" y="543.4502">cancel</text><ellipse cx="251.7361" cy="545.8672" fill="none" rx="11" ry="11" style="stroke:#222222;stroke-width:1;"/><ellipse cx="251.7361" cy="545.8672" fill="#222222" rx="6" ry="6" style="stroke:#222222;stroke-width:1;"/><polygon fill="#F1F1F1" points="45.9148,429.8555,192.0461,429.8555,204.0461,441.8555,192.0461,453.8555,45.9148,453.8555,33.9148,441.8555,45.9148,429.8555" style="stroke:#181818;stroke-width:0.5;"/><text fill="#000000" font-family="sans-serif" font-size="11" lengthAdjust="spacing" textLength="12.2354" x="122.9805" y="465.2744">no</text><text fill="#000000" font-family="sans-serif" font-size="11" lengthAdjust="spacing" textLength="146.1313" x="45.9148" y="446.3564">Budget exists for month/year?</text><polygon fill="#F1F1F1" points="118.9805,692.9727,130.9805,704.9727,118.9805,716.9727,106.9805,704.9727,118.9805,692.9727" style="stroke:#181818;stroke-width:0.5;"/><rect fill="#F1F1F1" height="35.0938" rx="12.5" ry="12.5" style="stroke:#181818;stroke-width:0.5;" width="167.0879" x="35.4365" y="736.9727"/><text fill="#000000" font-family="sans-serif" font-size="12" lengthAdjust="spacing" textLength="147.0879" x="45.4365" y="759.4297">Get budget warning (80%+)</text><rect fill="#F1F1F1" height="35.0938" rx="12.5" ry="12.5" style="stroke:#181818;stroke-width:0.5;" width="133.2441" x="52.3584" y="840.9844"/><text fill="#000000" font-family="sans-serif" font-size="12" lengthAdjust="spacing" textLength="113.2441" x="62.3584" y="863.4414">Ask user "Continue?"</text><polygon fill="#F1F1F1" points="93.9055,896.0781,144.0554,896.0781,156.0554,908.0781,144.0554,920.0781,93.9055,920.0781,81.9055,908.0781,93.9055,896.0781" style="stroke:#181818;stroke-width:0.5;"/><text fill="#000000" font-family="sans-serif" font-size="11" lengthAdjust="spacing" textLength="50.1499" x="93.9055" y="912.5791">Continue?</text><text fill="#000000" font-family="sans-serif" font-size="11" lengthAdjust="spacing" textLength="12.2354" x="156.0554" y="905.6611">no</text><ellipse cx="190.2908" cy="908.0781" fill="none" rx="11" ry="11" style="stroke:#222222;stroke-width:1;"/><ellipse cx="190.2908" cy="908.0781" fill="#222222" rx="6" ry="6" style="stroke:#222222;stroke-width:1;"/><polygon fill="#F1F1F1" points="71.5967,792.0664,166.3643,792.0664,178.3643,804.0664,166.3643,816.0664,71.5967,816.0664,59.5967,804.0664,71.5967,792.0664" style="stroke:#181818;stroke-width:0.5;"/><text fill="#000000" font-family="sans-serif" font-size="11" lengthAdjust="spacing" textLength="17.1177" x="122.9805" y="827.4854">yes</text><text fill="#000000" font-family="sans-serif" font-size="11" lengthAdjust="spacing" textLength="94.7676" x="71.5967" y="808.5674">Warning message?</text><polygon fill="#F1F1F1" points="118.9805,940.0781,130.9805,952.0781,118.9805,964.0781,106.9805,952.0781,118.9805,940.0781" style="stroke:#181818;stroke-width:0.5;"/><rect fill="#F1F1F1" height="35.0938" rx="12.5" ry="12.5" style="stroke:#181818;stroke-width:0.5;" width="180.7695" x="28.5957" y="984.0781"/><text fill="#000000" font-family="sans-serif" font-size="12" lengthAdjust="spacing" textLength="160.7695" x="38.5957" y="1006.5352">Validate transaction vs budget</text><rect fill="#F1F1F1" height="35.0938" rx="12.5" ry="12.5" style="stroke:#181818;stroke-width:0.5;" width="154.7305" x="41.6152" y="1039.1719"/><text fill="#000000" font-family="sans-serif" font-size="12" lengthAdjust="spacing" textLength="134.7305" x="51.6152" y="1061.6289">Insert transaction into DB</text><rect fill="#F1F1F1" height="35.0938" rx="12.5" ry="12.5" style="stroke:#181818;stroke-width:0.5;" width="158.0703" x="39.9453" y="1094.2656"/><text fill="#000000" font-family="sans-serif" font-size="12" lengthAdjust="spacing" textLength="138.0703" x="49.9453" y="1116.7227">Deduct from budget in DB</text><rect fill="#F1F1F1" height="35.0938" rx="12.5" ry="12.5" style="stroke:#181818;stroke-width:0.5;" width="80.0293" x="78.9658" y="1149.3594"/><text fill="#000000" font-family="sans-serif" font-size="12" lengthAdjust="spacing" textLength="60.0293" x="88.9658" y="1171.8164">Log activity</text><rect fill="#F1F1F1" height="35.0938" rx="12.5" ry="12.5" style="stroke:#181818;stroke-width:0.5;" width="159.9219" x="39.0195" y="1204.4531"/><text fill="#000000" font-family="sans-serif" font-size="12" lengthAdjust="spacing" textLength="139.9219" x="49.0195" y="1226.9102">Show "Transaction saved"</text><ellipse cx="118.9805" cy="1270.5469" fill="none" rx="11" ry="11" style="stroke:#222222;stroke-width:1;"/><ellipse cx="118.9805" cy="1270.5469" fill="#222222" rx="6" ry="6" style="stroke:#222222;stroke-width:1;"/><line style="stroke:#181818;stroke-width:1;" x1="118.9805" x2="118.9805" y1="68.6094" y2="88.6094"/><polygon fill="#181818" points="114.9805,78.6094,118.9805,88.6094,122.9805,78.6094,118.9805,82.6094" style="stroke:#181818;stroke-width:1;"/><line style="stroke:#181818;stroke-width:1;" x1="118.9805" x2="118.9805" y1="123.7031" y2="143.7031"/><polygon fill="#181818" points="114.9805,133.7031,118.9805,143.7031,122.9805,133.7031,118.9805,137.7031" style="stroke:#181818;stroke-width:1;"/><line style="stroke:#181818;stroke-width:1;" x1="118.9805" x2="118.9805" y1="178.7969" y2="198.7969"/><polygon fill="#181818" points="114.9805,188.7969,118.9805,198.7969,122.9805,188.7969,118.9805,192.7969" style="stroke:#181818;stroke-width:1;"/><line style="stroke:#181818;stroke-width:1;" x1="118.9805" x2="118.9805" y1="337.9023" y2="365.8555"/><polygon fill="#181818" points="114.9805,355.8555,118.9805,365.8555,122.9805,355.8555,118.9805,359.8555" style="stroke:#181818;stroke-width:1;"/><line style="stroke:#181818;stroke-width:1;" x1="118.9805" x2="118.9805" y1="277.8906" y2="302.8086"/><polygon fill="#181818" points="114.9805,292.8086,118.9805,302.8086,122.9805,292.8086,118.9805,296.8086" style="stroke:#181818;stroke-width:1;"/><line style="stroke:#181818;stroke-width:1;" x1="169.4993" x2="181.4993" y1="265.8906" y2="265.8906"/><polygon fill="#181818" points="177.4993,335.8555,181.4993,345.8555,185.4993,335.8555,181.4993,339.8555" style="stroke:#181818;stroke-width:1;"/><line style="stroke:#181818;stroke-width:1;" x1="181.4993" x2="181.4993" y1="265.8906" y2="409.8555"/><line style="stroke:#181818;stroke-width:1;" x1="181.4993" x2="118.9805" y1="409.8555" y2="409.8555"/><line style="stroke:#181818;stroke-width:1;" x1="118.9805" x2="118.9805" y1="409.8555" y2="429.8555"/><polygon fill="#181818" points="114.9805,419.8555,118.9805,429.8555,122.9805,419.8555,118.9805,423.8555" style="stroke:#181818;stroke-width:1;"/><line style="stroke:#181818;stroke-width:1;" x1="118.9805" x2="118.9805" y1="233.8906" y2="253.8906"/><polygon fill="#181818" points="114.9805,243.8906,118.9805,253.8906,122.9805,243.8906,118.9805,247.8906" style="stroke:#181818;stroke-width:1;"/><line style="stroke:#181818;stroke-width:1;" x1="118.9805" x2="118.9805" y1="617.8789" y2="637.8789"/><polygon fill="#181818" points="114.9805,627.8789,118.9805,637.8789,122.9805,627.8789,118.9805,631.8789" style="stroke:#181818;stroke-width:1;"/><line style="stroke:#181818;stroke-width:1;" x1="118.9805" x2="118.9805" y1="557.8672" y2="582.7852"/><polygon fill="#181818" points="114.9805,572.7852,118.9805,582.7852,122.9805,572.7852,118.9805,576.7852" style="stroke:#181818;stroke-width:1;"/><line style="stroke:#181818;stroke-width:1;" x1="197.9392" x2="240.7361" y1="545.8672" y2="545.8672"/><polygon fill="#181818" points="230.7361,541.8672,240.7361,545.8672,230.7361,549.8672,234.7361,545.8672" style="stroke:#181818;stroke-width:1;"/><line style="stroke:#181818;stroke-width:1;" x1="118.9805" x2="118.9805" y1="672.9727" y2="692.9727"/><polygon fill="#181818" points="114.9805,682.9727,118.9805,692.9727,122.9805,682.9727,118.9805,686.9727" style="stroke:#181818;stroke-width:1;"/><line style="stroke:#181818;stroke-width:1;" x1="118.9805" x2="118.9805" y1="513.8672" y2="533.8672"/><polygon fill="#181818" points="114.9805,523.8672,118.9805,533.8672,122.9805,523.8672,118.9805,527.8672" style="stroke:#181818;stroke-width:1;"/><line style="stroke:#181818;stroke-width:1;" x1="118.9805" x2="118.9805" y1="453.8555" y2="478.7734"/><polygon fill="#181818" points="114.9805,468.7734,118.9805,478.7734,122.9805,468.7734,118.9805,472.7734" style="stroke:#181818;stroke-width:1;"/><line style="stroke:#181818;stroke-width:1;" x1="204.0461" x2="276.7361" y1="441.8555" y2="441.8555"/><polygon fill="#181818" points="272.7361,578.332,276.7361,588.332,280.7361,578.332,276.7361,582.332" style="stroke:#181818;stroke-width:1;"/><line style="stroke:#181818;stroke-width:1;" x1="276.7361" x2="276.7361" y1="441.8555" y2="704.9727"/><line style="stroke:#181818;stroke-width:1;" x1="276.7361" x2="130.9805" y1="704.9727" y2="704.9727"/><polygon fill="#181818" points="140.9805,700.9727,130.9805,704.9727,140.9805,708.9727,136.9805,704.9727" style="stroke:#181818;stroke-width:1;"/><line style="stroke:#181818;stroke-width:1;" x1="118.9805" x2="118.9805" y1="716.9727" y2="736.9727"/><polygon fill="#181818" points="114.9805,726.9727,118.9805,736.9727,122.9805,726.9727,118.9805,730.9727" style="stroke:#181818;stroke-width:1;"/><line style="stroke:#181818;stroke-width:1;" x1="118.9805" x2="118.9805" y1="920.0781" y2="940.0781"/><polygon fill="#181818" points="114.9805,930.0781,118.9805,940.0781,122.9805,930.0781,118.9805,934.0781" style="stroke:#181818;stroke-width:1;"/><line style="stroke:#181818;stroke-width:1;" x1="156.0554" x2="179.2908" y1="908.0781" y2="908.0781"/><polygon fill="#181818" points="169.2908,904.0781,179.2908,908.0781,169.2908,912.0781,173.2908,908.0781" style="stroke:#181818;stroke-width:1;"/><line style="stroke:#181818;stroke-width:1;" x1="118.9805" x2="118.9805" y1="876.0781" y2="896.0781"/><polygon fill="#181818" points="114.9805,886.0781,118.9805,896.0781,122.9805,886.0781,118.9805,890.0781" style="stroke:#181818;stroke-width:1;"/><line style="stroke:#181818;stroke-width:1;" x1="118.9805" x2="118.9805" y1="816.0664" y2="840.9844"/><polygon fill="#181818" points="114.9805,830.9844,118.9805,840.9844,122.9805,830.9844,118.9805,834.9844" style="stroke:#181818;stroke-width:1;"/><line style="stroke:#181818;stroke-width:1;" x1="178.3643" x2="223.2908" y1="804.0664" y2="804.0664"/><polygon fill="#181818" points="219.2908,887.0313,223.2908,897.0313,227.2908,887.0313,223.2908,891.0313" style="stroke:#181818;stroke-width:1;"/><line style="stroke:#181818;stroke-width:1;" x1="223.2908" x2="223.2908" y1="804.0664" y2="952.0781"/><line style="stroke:#181818;stroke-width:1;" x1="223.2908" x2="130.9805" y1="952.0781" y2="952.0781"/><polygon fill="#181818" points="140.9805,948.0781,130.9805,952.0781,140.9805,956.0781,136.9805,952.0781" style="stroke:#181818;stroke-width:1;"/><line style="stroke:#181818;stroke-width:1;" x1="118.9805" x2="118.9805" y1="772.0664" y2="792.0664"/><polygon fill="#181818" points="114.9805,782.0664,118.9805,792.0664,122.9805,782.0664,118.9805,786.0664" style="stroke:#181818;stroke-width:1;"/><line style="stroke:#181818;stroke-width:1;" x1="118.9805" x2="118.9805" y1="964.0781" y2="984.0781"/><polygon fill="#181818" points="114.9805,974.0781,118.9805,984.0781,122.9805,974.0781,118.9805,978.0781" style="stroke:#181818;stroke-width:1;"/><line style="stroke:#181818;stroke-width:1;" x1="118.9805" x2="118.9805" y1="1019.1719" y2="1039.1719"/><polygon fill="#181818" points="114.9805,1029.1719,118.9805,1039.1719,122.9805,1029.1719,118.9805,1033.1719" style="stroke:#181818;stroke-width:1;"/><line style="stroke:#181818;stroke-width:1;" x1="118.9805" x2="118.9805" y1="1074.2656" y2="1094.2656"/><polygon fill="#181818" points="114.9805,1084.2656,118.9805,1094.2656,122.9805,1084.2656,118.9805,1088.2656" style="stroke:#181818;stroke-width:1;"/><line style="stroke:#181818;stroke-width:1;" x1="118.9805" x2="118.9805" y1="1129.3594" y2="1149.3594"/><polygon fill="#181818" points="114.9805,1139.3594,118.9805,1149.3594,122.9805,1139.3594,118.9805,1143.3594" style="stroke:#181818;stroke-width:1;"/><line style="stroke:#181818;stroke-width:1;" x1="118.9805" x2="118.9805" y1="1184.4531" y2="1204.4531"/><polygon fill="#181818" points="114.9805,1194.4531,118.9805,1204.4531,122.9805,1194.4531,118.9805,1198.4531" style="stroke:#181818;stroke-width:1;"/><line style="stroke:#181818;stroke-width:1;" x1="118.9805" x2="118.9805" y1="1239.5469" y2="1259.5469"/><polygon fill="#181818" points="114.9805,1249.5469,118.9805,1259.5469,122.9805,1249.5469,118.9805,1253.5469" style="stroke:#181818;stroke-width:1;"/><?plantuml-src TP9DQyCm38Rl_XKYC4ZPeJkEz53ITep1O8EkszcBbSGiiOEjjCk_ds9twSVOoQ1NUgr74cbg4FA2z5xJa46k5BmvQRpaa3N2atGaHBRpwC1sQ3maLpa9A2qRMor4zc28qsHhUqDm2qLjhKSe965btS09Msom86YjeNe-e7GB8NG9QHvBiEreMCw0QZIG3kXd0Y3RrlO0w9pbR01FjXDeb2vZwQfN5NBfj_RaeRJkp7soCZOulJhBFqI2M9UCbgDD08mDUpZfrysmoGjFuS9YuW_osY7ppdUTuWS-GyeeOSEZI0jf2coYKo1X8R0SYR97Peb5S93EQ5D1UdztSpjR1DgFOwn5xsM5VsQL-o_eHvHapLFGfiVbX3X5BgVoJoFlij41WKwhXhsVYB8dm__GXQmDMTYiMDoWwddH9G_y5qURA3tR2kJnuCQJ6BURdDqJUBb7nLsFRVq0?></g></svg>