<?plantuml 1.2026.2?><svg xmlns="http://www.w3.org/2000/svg" xmlns:xlink="http://www.w3.org/1999/xlink" contentStyleType="text/css" data-diagram-type="CLASS" height="700px" preserveAspectRatio="none" style="width:1088px;height:700px;background:#FFFFFF;" version="1.1" viewBox="0 0 1088 700" width="1088px" zoomAndPan="magnify"><title>ERD - Dashboard (logical views)</title><defs/><g><g class="title" data-source-line="1"><text fill="#000000" font-family="sans-serif" font-size="14" font-weight="bold" lengthAdjust="spacing" textLength="214.71" x="430.0605" y="24.5332">ERD - Dashboard (logical views)</text></g><!--class transactions--><g class="entity" data-qualified-name="transactions" data-source-line="8" id="ent0002"><rect fill="#F1F1F1" height="170.875" rx="2.5" ry="2.5" style="stroke:#181818;stroke-width:0.5;" width="278.1299" x="263.5" y="315.6094"/><text fill="#000000" font-family="sans-serif" font-size="14" lengthAdjust="spacing" textLength="75.4824" x="364.8237" y="335.1426">transactions</text><line style="stroke:#181818;stroke-width:0.5;" x1="264.5" x2="540.6299" y1="343.2188" y2="343.2188"/><g data-visibility-modifier="IE_MANDATORY"><ellipse cx="274.5" cy="357.5234" fill="#000000" rx="3" ry="3" style="stroke:#000000;stroke-width:1;"/></g><text fill="#000000" font-family="sans-serif" font-size="14" lengthAdjust="spacing" textLength="122.9307" x="283.5" y="361.752">id : INTEGER &#171;PK&#187;</text><line style="stroke:#181818;stroke-width:1;" x1="264.5" x2="540.6299" y1="368.8281" y2="368.8281"/><text fill="#000000" font-family="sans-serif" font-size="14" lengthAdjust="spacing" textLength="94.9375" x="269.5" y="387.3613">amount : REAL</text><text fill="#000000" font-family="sans-serif" font-size="14" lengthAdjust="spacing" textLength="101.1445" x="269.5" y="404.9707">category : TEXT</text><text fill="#000000" font-family="sans-serif" font-size="14" lengthAdjust="spacing" textLength="112.8066" x="269.5" y="422.5801">month : INTEGER</text><text fill="#000000" font-family="sans-serif" font-size="14" lengthAdjust="spacing" textLength="101.1309" x="269.5" y="440.1895">year : INTEGER</text><text fill="#000000" font-family="sans-serif" font-size="14" lengthAdjust="spacing" textLength="266.1299" x="269.5" y="479.4082">idx_transactions_month_year(month, year)</text><line style="stroke:#181818;stroke-width:1;stroke-dasharray:1,2;" x1="264.5" x2="385.8306" y1="456.0703" y2="456.0703"/><text fill="#000000" font-family="sans-serif" font-size="14" lengthAdjust="spacing" textLength="33.4688" x="385.8306" y="461.2988">index</text><line style="stroke:#181818;stroke-width:1;stroke-dasharray:1,2;" x1="419.2993" x2="540.6299" y1="456.0703" y2="456.0703"/></g><!--class budgets--><g class="entity" data-qualified-name="budgets" data-source-line="19" id="ent0003"><rect fill="#F1F1F1" height="210.0938" rx="2.5" ry="2.5" style="stroke:#181818;stroke-width:0.5;" width="252.4678" x="8.5" y="45.6094"/><text fill="#000000" font-family="sans-serif" font-size="14" lengthAdjust="spacing" textLength="49.8203" x="109.8237" y="65.1426">budgets</text><line style="stroke:#181818;stroke-width:0.5;" x1="9.5" x2="259.9678" y1="73.2188" y2="73.2188"/><g data-visibility-modifier="IE_MANDATORY"><ellipse cx="19.5" cy="87.5234" fill="#000000" rx="3" ry="3" style="stroke:#000000;stroke-width:1;"/></g><text fill="#000000" font-family="sans-serif" font-size="14" lengthAdjust="spacing" textLength="122.9307" x="28.5" y="91.752">id : INTEGER &#171;PK&#187;</text><line style="stroke:#181818;stroke-width:1;" x1="9.5" x2="259.9678" y1="98.8281" y2="98.8281"/><text fill="#000000" font-family="sans-serif" font-size="14" lengthAdjust="spacing" textLength="94.9375" x="14.5" y="117.3613">amount : REAL</text><text fill="#000000" font-family="sans-serif" font-size="14" lengthAdjust="spacing" textLength="129.1855" x="14.5" y="134.9707">total_amount : REAL</text><text fill="#000000" font-family="sans-serif" font-size="14" lengthAdjust="spacing" textLength="112.8066" x="14.5" y="152.5801">month : INTEGER</text><text fill="#000000" font-family="sans-serif" font-size="14" lengthAdjust="spacing" textLength="101.1309" x="14.5" y="170.1895">year : INTEGER</text><text fill="#000000" font-family="sans-serif" font-size="14" lengthAdjust="spacing" textLength="137.6963" x="14.5" y="209.4082">UNIQUE(month, year)</text><line style="stroke:#181818;stroke-width:1;stroke-dasharray:1,2;" x1="9.5" x2="113.7134" y1="186.0703" y2="186.0703"/><text fill="#000000" font-family="sans-serif" font-size="14" lengthAdjust="spacing" textLength="42.041" x="113.7134" y="191.2988">unique</text><line style="stroke:#181818;stroke-width:1;stroke-dasharray:1,2;" x1="155.7544" x2="259.9678" y1="186.0703" y2="186.0703"/><text fill="#000000" font-family="sans-serif" font-size="14" lengthAdjust="spacing" textLength="240.4678" x="14.5" y="248.627">idx_budgets_month_year(month, year)</text><line style="stroke:#181818;stroke-width:1;stroke-dasharray:1,2;" x1="9.5" x2="117.9995" y1="225.2891" y2="225.2891"/><text fill="#000000" font-family="sans-serif" font-size="14" lengthAdjust="spacing" textLength="33.4688" x="117.9995" y="230.5176">index</text><line style="stroke:#181818;stroke-width:1;stroke-dasharray:1,2;" x1="151.4683" x2="259.9678" y1="225.2891" y2="225.2891"/></g><!--class vw_balance--><g class="entity" data-qualified-name="vw_balance" data-source-line="32" id="ent0004"><rect fill="#F1F1F1" height="146.75" rx="2.5" ry="2.5" style="stroke:#181818;stroke-width:0.5;" width="200.585" x="48" y="546.6094"/><text fill="#000000" font-family="sans-serif" font-size="12" font-style="italic" lengthAdjust="spacing" textLength="44.0156" x="126.2847" y="564.0664">&#171;VIEW&#187;</text><text fill="#000000" font-family="sans-serif" font-size="14" lengthAdjust="spacing" textLength="194.585" x="51" y="581.2363">vw_dashboard_month_balance</text><line style="stroke:#181818;stroke-width:0.5;" x1="49" x2="247.585" y1="589.3125" y2="589.3125"/><g data-visibility-modifier="IE_MANDATORY"><ellipse cx="59" cy="603.6172" fill="#000000" rx="3" ry="3" style="stroke:#000000;stroke-width:1;"/></g><text fill="#000000" font-family="sans-serif" font-size="14" lengthAdjust="spacing" textLength="112.8066" x="68" y="607.8457">month : INTEGER</text><g data-visibility-modifier="IE_MANDATORY"><ellipse cx="59" cy="621.2266" fill="#000000" rx="3" ry="3" style="stroke:#000000;stroke-width:1;"/></g><text fill="#000000" font-family="sans-serif" font-size="14" lengthAdjust="spacing" textLength="101.1309" x="68" y="625.4551">year : INTEGER</text><line style="stroke:#181818;stroke-width:1;" x1="49" x2="247.585" y1="632.5313" y2="632.5313"/><text fill="#000000" font-family="sans-serif" font-size="14" lengthAdjust="spacing" textLength="158.751" x="54" y="651.0645">income : REAL &#171;derived&#187;</text><text fill="#000000" font-family="sans-serif" font-size="14" lengthAdjust="spacing" textLength="166.5508" x="54" y="668.6738">expense : REAL &#171;derived&#187;</text><text fill="#000000" font-family="sans-serif" font-size="14" lengthAdjust="spacing" textLength="133.082" x="54" y="686.2832">net : REAL &#171;derived&#187;</text></g><!--class vw_budget--><g class="entity" data-qualified-name="vw_budget" data-source-line="41" id="ent0005"><rect fill="#F1F1F1" height="146.75" rx="2.5" ry="2.5" style="stroke:#181818;stroke-width:0.5;" width="187.0957" x="41" y="327.6094"/><text fill="#000000" font-family="sans-serif" font-size="12" font-style="italic" lengthAdjust="spacing" textLength="44.0156" x="112.54" y="345.0664">&#171;VIEW&#187;</text><text fill="#000000" font-family="sans-serif" font-size="14" lengthAdjust="spacing" textLength="133.0615" x="68.0171" y="362.2363">vw_budget_summary</text><line style="stroke:#181818;stroke-width:0.5;" x1="42" x2="227.0957" y1="370.3125" y2="370.3125"/><g data-visibility-modifier="IE_MANDATORY"><ellipse cx="52" cy="384.6172" fill="#000000" rx="3" ry="3" style="stroke:#000000;stroke-width:1;"/></g><text fill="#000000" font-family="sans-serif" font-size="14" lengthAdjust="spacing" textLength="112.8066" x="61" y="388.8457">month : INTEGER</text><g data-visibility-modifier="IE_MANDATORY"><ellipse cx="52" cy="402.2266" fill="#000000" rx="3" ry="3" style="stroke:#000000;stroke-width:1;"/></g><text fill="#000000" font-family="sans-serif" font-size="14" lengthAdjust="spacing" textLength="101.1309" x="61" y="406.4551">year : INTEGER</text><line style="stroke:#181818;stroke-width:1;" x1="42" x2="227.0957" y1="413.5313" y2="413.5313"/><text fill="#000000" font-family="sans-serif" font-size="14" lengthAdjust="spacing" textLength="140.082" x="47" y="432.0645">total : REAL &#171;derived&#187;</text><text fill="#000000" font-family="sans-serif" font-size="14" lengthAdjust="spacing" textLength="175.0957" x="47" y="449.6738">remaining : REAL &#171;derived&#187;</text><text fill="#000000" font-family="sans-serif" font-size="14" lengthAdjust="spacing" textLength="147.8682" x="47" y="467.2832">spent : REAL &#171;derived&#187;</text></g><!--class vw_cat--><g class="entity" data-qualified-name="vw_cat" data-source-line="50" id="ent0006"><rect fill="#F1F1F1" height="129.1406" rx="2.5" ry="2.5" style="stroke:#181818;stroke-width:0.5;" width="206.5645" x="284" y="555.6094"/><text fill="#000000" font-family="sans-serif" font-size="12" font-style="italic" lengthAdjust="spacing" textLength="44.0156" x="365.2744" y="573.0664">&#171;VIEW&#187;</text><text fill="#000000" font-family="sans-serif" font-size="14" lengthAdjust="spacing" textLength="165.7783" x="304.3931" y="590.2363">vw_spending_by_category</text><line style="stroke:#181818;stroke-width:0.5;" x1="285" x2="489.5645" y1="598.3125" y2="598.3125"/><g data-visibility-modifier="IE_MANDATORY"><ellipse cx="295" cy="612.6172" fill="#000000" rx="3" ry="3" style="stroke:#000000;stroke-width:1;"/></g><text fill="#000000" font-family="sans-serif" font-size="14" lengthAdjust="spacing" textLength="112.8066" x="304" y="616.8457">month : INTEGER</text><g data-visibility-modifier="IE_MANDATORY"><ellipse cx="295" cy="630.2266" fill="#000000" rx="3" ry="3" style="stroke:#000000;stroke-width:1;"/></g><text fill="#000000" font-family="sans-serif" font-size="14" lengthAdjust="spacing" textLength="101.1309" x="304" y="634.4551">year : INTEGER</text><line style="stroke:#181818;stroke-width:1;" x1="285" x2="489.5645" y1="641.5313" y2="641.5313"/><text fill="#000000" font-family="sans-serif" font-size="14" lengthAdjust="spacing" textLength="101.1445" x="290" y="660.0645">category : TEXT</text><text fill="#000000" font-family="sans-serif" font-size="14" lengthAdjust="spacing" textLength="194.5645" x="290" y="677.6738">total_amount : REAL &#171;derived&#187;</text></g><g class="entity" data-qualified-name="GMN12" data-source-line="68" id="ent0013"><path d="M526,598.6094 L526,641.3125 L1004.7612,641.3125 L1004.7612,608.6094 L994.7612,598.6094 L526,598.6094" fill="#FEFFDD" style="stroke:#181818;stroke-width:0.5;"/><path d="M994.7612,598.6094 L994.7612,608.6094 L1004.7612,608.6094 L994.7612,598.6094" fill="#FEFFDD" style="stroke:#181818;stroke-width:1;"/><text fill="#000000" font-family="sans-serif" font-size="13" lengthAdjust="spacing" textLength="303.4688" x="532" y="617.1045">From `DashBoardService.get_balance_for_month()`:</text><text fill="#000000" font-family="sans-serif" font-size="13" lengthAdjust="spacing" textLength="457.7612" x="532" y="633.4561">income = sum(amount&gt;0), expense = sum(-amount&lt;0), net = income - expense</text></g><g class="entity" data-qualified-name="GMN15" data-source-line="73" id="ent0016"><path d="M577,379.6094 L577,422.3125 L1081.8311,422.3125 L1081.8311,389.6094 L1071.8311,379.6094 L577,379.6094" fill="#FEFFDD" style="stroke:#181818;stroke-width:0.5;"/><path d="M1071.8311,379.6094 L1071.8311,389.6094 L1081.8311,389.6094 L1071.8311,379.6094" fill="#FEFFDD" style="stroke:#181818;stroke-width:1;"/><text fill="#000000" font-family="sans-serif" font-size="13" lengthAdjust="spacing" textLength="292.6079" x="583" y="398.1045">From `DashBoardService.get_budget_summary()`:</text><text fill="#000000" font-family="sans-serif" font-size="13" lengthAdjust="spacing" textLength="483.8311" x="583" y="414.4561">total = budgets.total_amount, remaining = budgets.amount, spent = total - remaining</text></g><!--link transactions to vw_cat--><g class="link" data-entity-1="ent0002" data-entity-2="ent0006" data-link-type="crowfoot" data-source-line="59" id="lnk7"><path codeLine="59" d="M387.5,494.7194 C387.5,517.6394 387.5,516.0194 387.5,537.5794" fill="none" id="transactions-vw_cat" style="stroke:#181818;stroke-width:1;"/><line style="stroke:#181818;stroke-width:1;" x1="383.5" x2="391.5" y1="490.7194" y2="490.7194"/><line style="stroke:#181818;stroke-width:1;" x1="383.5" x2="391.5" y1="493.7194" y2="493.7194"/><line style="stroke:#181818;stroke-width:1;" x1="387.5" x2="387.5" y1="494.7194" y2="486.7194"/><line style="stroke:#181818;stroke-width:1;" x1="387.5" x2="393.5" y1="547.5794" y2="555.5794"/><line style="stroke:#181818;stroke-width:1;" x1="387.5" x2="381.5" y1="547.5794" y2="555.5794"/><line style="stroke:#181818;stroke-width:1;" x1="387.5" x2="387.5" y1="547.5794" y2="555.5794"/><ellipse cx="387.5" cy="541.5794" fill="none" rx="4" ry="4" style="stroke:#181818;stroke-width:1;"/><text fill="#000000" font-family="sans-serif" font-size="13" lengthAdjust="spacing" textLength="50.5908" x="336.5" y="517.6445">group by</text></g><!--link transactions to vw_balance--><g class="link" data-entity-1="ent0002" data-entity-2="ent0004" data-link-type="crowfoot" data-source-line="60" id="lnk8"><path codeLine="60" d="M273.75,494.6294 C273.75,527.6394 273.75,549.6094 273.75,549.6094 C273.75,549.6094 281.57,549.6094 267,549.6094" fill="none" id="transactions-vw_balance" style="stroke:#181818;stroke-width:1;"/><line style="stroke:#181818;stroke-width:1;" x1="269.75" x2="277.75" y1="490.6294" y2="490.6294"/><line style="stroke:#181818;stroke-width:1;" x1="269.75" x2="277.75" y1="493.6294" y2="493.6294"/><line style="stroke:#181818;stroke-width:1;" x1="273.75" x2="273.75" y1="494.6294" y2="486.6294"/><line style="stroke:#181818;stroke-width:1;" x1="257" x2="249" y1="549.6094" y2="555.6094"/><line style="stroke:#181818;stroke-width:1;" x1="257" x2="249" y1="549.6094" y2="543.6094"/><line style="stroke:#181818;stroke-width:1;" x1="257" x2="249" y1="549.6094" y2="549.6094"/><ellipse cx="263" cy="549.6094" fill="none" rx="4" ry="4" style="stroke:#181818;stroke-width:1;"/><text fill="#000000" font-family="sans-serif" font-size="13" lengthAdjust="spacing" textLength="41.9009" x="231.75" y="526.9845">sum by</text></g><!--link budgets to vw_budget--><g class="link" data-entity-1="ent0003" data-entity-2="ent0005" data-link-type="crowfoot" data-source-line="61" id="lnk9"><path codeLine="61" d="M134.5,263.7594 C134.5,287.8594 134.5,286.9794 134.5,309.4194" fill="none" id="budgets-vw_budget" style="stroke:#181818;stroke-width:1;"/><line style="stroke:#181818;stroke-width:1;" x1="130.5" x2="138.5" y1="259.7594" y2="259.7594"/><line style="stroke:#181818;stroke-width:1;" x1="130.5" x2="138.5" y1="262.7594" y2="262.7594"/><line style="stroke:#181818;stroke-width:1;" x1="134.5" x2="134.5" y1="263.7594" y2="255.7594"/><line style="stroke:#181818;stroke-width:1;" x1="134.5" x2="140.5" y1="319.4194" y2="327.4194"/><line style="stroke:#181818;stroke-width:1;" x1="134.5" x2="128.5" y1="319.4194" y2="327.4194"/><line style="stroke:#181818;stroke-width:1;" x1="134.5" x2="134.5" y1="319.4194" y2="327.4194"/><ellipse cx="134.5" cy="313.4194" fill="none" rx="4" ry="4" style="stroke:#181818;stroke-width:1;"/><text fill="#000000" font-family="sans-serif" font-size="13" lengthAdjust="spacing" textLength="55.6499" x="78.5" y="288.0845">lookup by</text></g><!--link vw_budget to vw_balance--><g class="link" data-entity-1="ent0005" data-entity-2="ent0004" data-link-type="crowfoot" data-source-line="64" id="lnk10"><path codeLine="64" d="M108,482.6394 C108,505.7594 108,505.2694 108,528.3994" fill="none" id="vw_budget-vw_balance" style="stroke:#181818;stroke-width:1;"/><line style="stroke:#181818;stroke-width:1;" x1="104" x2="112" y1="478.6394" y2="478.6394"/><line style="stroke:#181818;stroke-width:1;" x1="104" x2="112" y1="481.6394" y2="481.6394"/><line style="stroke:#181818;stroke-width:1;" x1="108" x2="108" y1="482.6394" y2="474.6394"/><line style="stroke:#181818;stroke-width:1;" x1="108" x2="114" y1="538.3994" y2="546.3994"/><line style="stroke:#181818;stroke-width:1;" x1="108" x2="102" y1="538.3994" y2="546.3994"/><line style="stroke:#181818;stroke-width:1;" x1="108" x2="108" y1="538.3994" y2="546.3994"/><ellipse cx="108" cy="532.3994" fill="none" rx="4" ry="4" style="stroke:#181818;stroke-width:1;"/><text fill="#000000" font-family="sans-serif" font-size="13" lengthAdjust="spacing" textLength="100.4326" x="7" y="507.0145">same month/year</text></g><!--link vw_budget to vw_cat--><g class="link" data-entity-1="ent0005" data-entity-2="ent0006" data-link-type="crowfoot" data-source-line="65" id="lnk11"><path codeLine="65" d="M236.06,401.6094 C251.59,401.6094 254.75,401.6094 254.75,401.6094 C254.75,401.6094 254.75,620.6094 254.75,620.6094 C254.75,620.6094 248.92,620.6094 265.88,620.6094" fill="none" id="vw_budget-vw_cat" style="stroke:#181818;stroke-width:1;"/><line style="stroke:#181818;stroke-width:1;" x1="232.06" x2="232.06" y1="405.6094" y2="397.6094"/><line style="stroke:#181818;stroke-width:1;" x1="235.06" x2="235.06" y1="405.6094" y2="397.6094"/><line style="stroke:#181818;stroke-width:1;" x1="236.06" x2="228.06" y1="401.6094" y2="401.6094"/><line style="stroke:#181818;stroke-width:1;" x1="275.88" x2="283.88" y1="620.6094" y2="614.6094"/><line style="stroke:#181818;stroke-width:1;" x1="275.88" x2="283.88" y1="620.6094" y2="626.6094"/><line style="stroke:#181818;stroke-width:1;" x1="275.88" x2="283.88" y1="620.6094" y2="620.6094"/><ellipse cx="269.88" cy="620.6094" fill="none" rx="4" ry="4" style="stroke:#181818;stroke-width:1;"/><text fill="#000000" font-family="sans-serif" font-size="13" lengthAdjust="spacing" textLength="100.4326" x="153.75" y="508.8245">same month/year</text></g><!--link vw_balance to GMN12--><g class="link" data-entity-1="ent0004" data-entity-2="ent0013" data-link-type="association" data-source-line="68" id="lnk14"><path d="M249.22,552.6094 C363.36,552.6094 533.75,552.6094 533.75,552.6094 C533.75,552.6094 533.75,578.6494 533.75,598.3794" fill="none" id="vw_balance-GMN12" style="stroke:#181818;stroke-width:1;stroke-dasharray:7,7;"/></g><!--link vw_budget to GMN15--><g class="link" data-entity-1="ent0005" data-entity-2="ent0016" data-link-type="association" data-source-line="73" id="lnk17"><path d="M168,474.9094 C168,497.5494 168,516.6094 168,516.6094 C168,516.6094 791,516.6094 791,516.6094 C791,516.6094 791,456.2894 791,422.8294" fill="none" id="vw_budget-GMN15" style="stroke:#181818;stroke-width:1;stroke-dasharray:7,7;"/></g><?plantuml-src dPHHJzim4CVVyobElD1kfEovefKsaKre6zfOONiBJdAa5ecTsKuXWdttdUsaIKlG62zHV7S-__xdEnjk2eJeuXH2E6LwdKYcCfWKCkSfAs33yKvFWpNF45AkqW83VSj5nHGheU02JLCXI6NMCWWE1nbgZHgCOaApr70fDBo5fCvoD6IMaCgogWs2hikIAOvwHhjNQzG81-xC0s2AZfGYnShKH39fjsJ01MXK6vwYFiww0-FMDAkQwIm8K1Xk6ZWO4b3AFQI70E0Dy0pcS7Q-YZv55t1oyktpSadsCAGFAsKj3BalelTVQ9qoWxbK3LbMqQyLMKefpBhVJvO6cTenp6Q4dE4z_T2AP_Vn429s6MAxQ-9-Zro6QV2dLz4MpWdeYlZVx4OQLiJxrfVnruB_hj4Bk3m_-tuPxRAEYMn1Nw9lSnVt5-dZ4rOmkdidcTpjaYHUdKK_byjM_bFwDq_vNJMueFx1LZUboL3n3MQkN7XVeT3FEAd5nnoxz5vhxBkvsK8xw-kPtOsDKoai6HTSvEDkJO9UW6t3CaeI9qtSjNO7J-lNap-Tav7ksmSxX2ix-MxmMmVSA5b2mkXo34iArC7E_3u-Xg5yw6Zda2jPLv0qpqLrNJItxuwDwuPf4EBlR0w5bBS-6O5zjSgFdLPMy5oKjhpqn6NaXsth1lt-qJCPDM2vpJGQxNNiHmP2qbkfUBus86y6MQcm7ss5hkt3-y4o_6YVGTkERL1y8vMVgidqUjxFmi9MOUAlPFbkUhIT0-y8lUV4UkmGBBfzOHT8hPI1HHi3TCh-mRSpDIsSR_f5zyxDXerpDEZxFgBp-QPVj1d2FhRd_0i0?></g></svg>