<?plantuml 1.2026.2?><svg xmlns="http://www.w3.org/2000/svg" xmlns:xlink="http://www.w3.org/1999/xlink" contentStyleType="text/css" data-diagram-type="SEQUENCE" height="2502px" preserveAspectRatio="none" style="width:1620px;height:2502px;background:#FFFFFF;" version="1.1" viewBox="0 0 1620 2502" width="1620px" zoomAndPan="magnify"><title>Dashboard (MainScreen) - load/refresh/save/export</title><defs/><g><text fill="#000000" font-family="sans-serif" font-size="14" font-weight="bold" lengthAdjust="spacing" textLength="339.2129" x="636.5786" y="29.5332">Dashboard (MainScreen) - load/refresh/save/export</text><rect fill="none" height="200.4609" style="stroke:#000000;stroke-width:1.5;" width="1439.4697" x="163.9004" y="1267.4688"/><g class="participant-lifeline" data-entity-uid="part1" data-qualified-name="User" id="part1-lifeline"><g><title>User</title><rect fill="#000000" fill-opacity="0.00000" height="2298.8516" width="8" x="18.7793" y="121.2188"/><line style="stroke:#181818;stroke-width:0.5;stroke-dasharray:5,5;" x1="22" x2="22" y1="121.2188" y2="2420.0703"/></g></g><g class="participant-lifeline" data-entity-uid="part2" data-qualified-name="Login" id="part2-lifeline"><g><title>LoginScreen</title><rect fill="#000000" fill-opacity="0.00000" height="2298.8516" width="8" x="113.5938" y="121.2188"/><line style="stroke:#181818;stroke-width:0.5;stroke-dasharray:5,5;" x1="117.2871" x2="117.2871" y1="121.2188" y2="2420.0703"/></g></g><g class="participant-lifeline" data-entity-uid="part3" data-qualified-name="UI" id="part3-lifeline"><g><title>MainScreen.n.ui.frmdashboard.py.</title><rect fill="#000000" fill-opacity="0.00000" height="2298.8516" width="8" x="284.6724" y="121.2188"/><line style="stroke:#181818;stroke-width:0.5;stroke-dasharray:5,5;" x1="287.9004" x2="287.9004" y1="121.2188" y2="2420.0703"/></g></g><g class="participant-lifeline" data-entity-uid="part4" data-qualified-name="DS" id="part4-lifeline"><g><title>DashBoardService.n.services.dashboard_service.py.</title><rect fill="#000000" fill-opacity="0.00000" height="2298.8516" width="8" x="581.4092" y="121.2188"/><line style="stroke:#181818;stroke-width:0.5;stroke-dasharray:5,5;" x1="584.4443" x2="584.4443" y1="121.2188" y2="2420.0703"/></g></g><g class="participant-lifeline" data-entity-uid="part5" data-qualified-name="TR" id="part5-lifeline"><g><title>TransactionRepo.n.repository.transaction_repo.py.</title><rect fill="#000000" fill-opacity="0.00000" height="2298.8516" width="8" x="928.3423" y="121.2188"/><line style="stroke:#181818;stroke-width:0.5;stroke-dasharray:5,5;" x1="931.374" x2="931.374" y1="121.2188" y2="2420.0703"/></g></g><g class="participant-lifeline" data-entity-uid="part6" data-qualified-name="BR" id="part6-lifeline"><g><title>BudgetRepo.n.repository.budget_repo.py.</title><rect fill="#000000" fill-opacity="0.00000" height="2298.8516" width="8" x="1241.0615" y="121.2188"/><line style="stroke:#181818;stroke-width:0.5;stroke-dasharray:5,5;" x1="1244.3105" x2="1244.3105" y1="121.2188" y2="2420.0703"/></g></g><g class="participant-lifeline" data-entity-uid="part7" data-qualified-name="DB" id="part7-lifeline"><g><title>SQLite.n.DatabaseConnection.</title><rect fill="#000000" fill-opacity="0.00000" height="2298.8516" width="8" x="1489.0913" y="121.2188"/><line style="stroke:#181818;stroke-width:0.5;stroke-dasharray:5,5;" x1="1492.8125" x2="1492.8125" y1="121.2188" y2="2420.0703"/></g></g><g class="participant participant-head" data-entity-uid="part1" data-qualified-name="User" id="part1-head"><text fill="#000000" font-family="sans-serif" font-size="14" lengthAdjust="spacing" textLength="29.5586" x="5" y="118.1426">User</text><ellipse cx="22.7793" cy="52.1094" fill="#E2E2F0" rx="8" ry="8" style="stroke:#181818;stroke-width:0.5;"/><path d="M22.7793,60.1094 L22.7793,87.1094 M9.7793,68.1094 L35.7793,68.1094 M22.7793,87.1094 L9.7793,102.1094 M22.7793,87.1094 L35.7793,102.1094" fill="none" style="stroke:#181818;stroke-width:0.5;"/></g><g class="participant participant-tail" data-entity-uid="part1" data-qualified-name="User" id="part1-tail"><text fill="#000000" font-family="sans-serif" font-size="14" lengthAdjust="spacing" textLength="29.5586" x="5" y="2433.6035">User</text><ellipse cx="22.7793" cy="2445.1797" fill="#E2E2F0" rx="8" ry="8" style="stroke:#181818;stroke-width:0.5;"/><path d="M22.7793,2453.1797 L22.7793,2480.1797 M9.7793,2461.1797 L35.7793,2461.1797 M22.7793,2480.1797 L9.7793,2495.1797 M22.7793,2480.1797 L35.7793,2495.1797" fill="none" style="stroke:#181818;stroke-width:0.5;"/></g><g class="participant participant-head" data-entity-uid="part2" data-qualified-name="Login" id="part2-head"><rect fill="#E2E2F0" height="31.6094" rx="2.5" ry="2.5" style="stroke:#181818;stroke-width:0.5;" width="92.6133" x="71.2871" y="88.6094"/><text fill="#000000" font-family="sans-serif" font-size="14" lengthAdjust="spacing" textLength="78.6133" x="78.2871" y="110.1426">LoginScreen</text></g><g class="participant participant-tail" data-entity-uid="part2" data-qualified-name="Login" id="part2-tail"><rect fill="#E2E2F0" height="31.6094" rx="2.5" ry="2.5" style="stroke:#181818;stroke-width:0.5;" width="92.6133" x="71.2871" y="2419.0703"/><text fill="#000000" font-family="sans-serif" font-size="14" lengthAdjust="spacing" textLength="78.6133" x="78.2871" y="2440.6035">LoginScreen</text></g><g class="participant participant-head" data-entity-uid="part3" data-qualified-name="UI" id="part3-head"><rect fill="#E2E2F0" height="31.6094" rx="2.5" ry="2.5" style="stroke:#181818;stroke-width:0.5;" width="229.5439" x="173.9004" y="88.6094"/><text fill="#000000" font-family="sans-serif" font-size="14" lengthAdjust="spacing" textLength="215.5439" x="180.9004" y="110.1426">MainScreen\n(ui/frmdashboard.py)</text></g><g class="participant participant-tail" data-entity-uid="part3" data-qualified-name="UI" id="part3-tail"><rect fill="#E2E2F0" height="31.6094" rx="2.5" ry="2.5" style="stroke:#181818;stroke-width:0.5;" width="229.5439" x="173.9004" y="2419.0703"/><text fill="#000000" font-family="sans-serif" font-size="14" lengthAdjust="spacing" textLength="215.5439" x="180.9004" y="2440.6035">MainScreen\n(ui/frmdashboard.py)</text></g><g class="participant participant-head" data-entity-uid="part4" data-qualified-name="DS" id="part4-head"><rect fill="#E2E2F0" height="31.6094" rx="2.5" ry="2.5" style="stroke:#181818;stroke-width:0.5;" width="343.9297" x="413.4443" y="88.6094"/><text fill="#000000" font-family="sans-serif" font-size="14" lengthAdjust="spacing" textLength="329.9297" x="420.4443" y="110.1426">DashBoardService\n(services/dashboard_service.py)</text></g><g class="participant participant-tail" data-entity-uid="part4" data-qualified-name="DS" id="part4-tail"><rect fill="#E2E2F0" height="31.6094" rx="2.5" ry="2.5" style="stroke:#181818;stroke-width:0.5;" width="343.9297" x="413.4443" y="2419.0703"/><text fill="#000000" font-family="sans-serif" font-size="14" lengthAdjust="spacing" textLength="329.9297" x="420.4443" y="2440.6035">DashBoardService\n(services/dashboard_service.py)</text></g><g class="participant participant-head" data-entity-uid="part5" data-qualified-name="TR" id="part5-head"><rect fill="#E2E2F0" height="31.6094" rx="2.5" ry="2.5" style="stroke:#181818;stroke-width:0.5;" width="329.9365" x="767.374" y="88.6094"/><text fill="#000000" font-family="sans-serif" font-size="14" lengthAdjust="spacing" textLength="315.9365" x="774.374" y="110.1426">TransactionRepo\n(repository/transaction_repo.py)</text></g><g class="participant participant-tail" data-entity-uid="part5" data-qualified-name="TR" id="part5-tail"><rect fill="#E2E2F0" height="31.6094" rx="2.5" ry="2.5" style="stroke:#181818;stroke-width:0.5;" width="329.9365" x="767.374" y="2419.0703"/><text fill="#000000" font-family="sans-serif" font-size="14" lengthAdjust="spacing" textLength="315.9365" x="774.374" y="2440.6035">TransactionRepo\n(repository/transaction_repo.py)</text></g><g class="participant participant-head" data-entity-uid="part6" data-qualified-name="BR" id="part6-head"><rect fill="#E2E2F0" height="31.6094" rx="2.5" ry="2.5" style="stroke:#181818;stroke-width:0.5;" width="275.502" x="1107.3105" y="88.6094"/><text fill="#000000" font-family="sans-serif" font-size="14" lengthAdjust="spacing" textLength="261.502" x="1114.3105" y="110.1426">BudgetRepo\n(repository/budget_repo.py)</text></g><g class="participant participant-tail" data-entity-uid="part6" data-qualified-name="BR" id="part6-tail"><rect fill="#E2E2F0" height="31.6094" rx="2.5" ry="2.5" style="stroke:#181818;stroke-width:0.5;" width="275.502" x="1107.3105" y="2419.0703"/><text fill="#000000" font-family="sans-serif" font-size="14" lengthAdjust="spacing" textLength="261.502" x="1114.3105" y="2440.6035">BudgetRepo\n(repository/budget_repo.py)</text></g><g class="participant participant-head" data-entity-uid="part7" data-qualified-name="DB" id="part7-head"><text fill="#000000" font-family="sans-serif" font-size="14" lengthAdjust="spacing" textLength="194.5576" x="1392.8125" y="118.1426">SQLite\n(DatabaseConnection)</text><path d="M1475.0913,67.6094 C1475.0913,57.6094 1493.0913,57.6094 1493.0913,57.6094 C1493.0913,57.6094 1511.0913,57.6094 1511.0913,67.6094 L1511.0913,93.6094 C1511.0913,103.6094 1493.0913,103.6094 1493.0913,103.6094 C1493.0913,103.6094 1475.0913,103.6094 1475.0913,93.6094 L1475.0913,67.6094" fill="#E2E2F0" style="stroke:#181818;stroke-width:0.5;"/><path d="M1475.0913,67.6094 C1475.0913,77.6094 1493.0913,77.6094 1493.0913,77.6094 C1493.0913,77.6094 1511.0913,77.6094 1511.0913,67.6094" fill="none" style="stroke:#181818;stroke-width:0.5;"/></g><g class="participant participant-tail" data-entity-uid="part7" data-qualified-name="DB" id="part7-tail"><text fill="#000000" font-family="sans-serif" font-size="14" lengthAdjust="spacing" textLength="194.5576" x="1392.8125" y="2433.6035">SQLite\n(DatabaseConnection)</text><path d="M1475.0913,2446.6797 C1475.0913,2436.6797 1493.0913,2436.6797 1493.0913,2436.6797 C1493.0913,2436.6797 1511.0913,2436.6797 1511.0913,2446.6797 L1511.0913,2472.6797 C1511.0913,2482.6797 1493.0913,2482.6797 1493.0913,2482.6797 C1493.0913,2482.6797 1475.0913,2482.6797 1475.0913,2472.6797 L1475.0913,2446.6797" fill="#E2E2F0" style="stroke:#181818;stroke-width:0.5;"/><path d="M1475.0913,2446.6797 C1475.0913,2456.6797 1493.0913,2456.6797 1493.0913,2456.6797 C1493.0913,2456.6797 1511.0913,2456.6797 1511.0913,2446.6797" fill="none" style="stroke:#181818;stroke-width:0.5;"/></g><rect fill="#EEEEEE" height="3" style="stroke:#EEEEEE;stroke-width:1;" width="1613.3701" x="0" y="152.3945"/><line style="stroke:#000000;stroke-width:1;" x1="0" x2="1613.3701" y1="152.3945" y2="152.3945"/><line style="stroke:#000000;stroke-width:1;" x1="0" x2="1613.3701" y1="155.3945" y2="155.3945"/><rect fill="#EEEEEE" height="24.3516" style="stroke:#000000;stroke-width:2;" width="120.9009" x="746.2346" y="141.2188"/><text fill="#000000" font-family="sans-serif" font-size="13" font-weight="bold" lengthAdjust="spacing" textLength="103.2891" x="752.2346" y="158.7139">Open dashboard</text><g class="message" data-entity-1="part1" data-entity-2="part2" id="msg1"><polygon fill="#181818" points="105.5938,193.9219,115.5938,197.9219,105.5938,201.9219,109.5938,197.9219" style="stroke:#181818;stroke-width:1;"/><line style="stroke:#181818;stroke-width:1;" x1="22.7793" x2="111.5938" y1="197.9219" y2="197.9219"/><text fill="#000000" font-family="sans-serif" font-size="13" lengthAdjust="spacing" textLength="70.8145" x="29.7793" y="193.0654">Login (valid)</text></g><g class="message" data-entity-1="part2" data-entity-2="part3" id="msg2"><polygon fill="#181818" points="276.6724,224.2734,286.6724,228.2734,276.6724,232.2734,280.6724,228.2734" style="stroke:#181818;stroke-width:1;"/><line style="stroke:#181818;stroke-width:1;" x1="117.5938" x2="282.6724" y1="228.2734" y2="228.2734"/><text fill="#000000" font-family="sans-serif" font-size="13" lengthAdjust="spacing" textLength="108.4053" x="124.5938" y="223.417">open_Dashboard()</text></g><g class="message" data-entity-1="part3" data-entity-2="part3" id="msg3"><line style="stroke:#181818;stroke-width:1;" x1="288.6724" x2="330.6724" y1="258.625" y2="258.625"/><line style="stroke:#181818;stroke-width:1;" x1="330.6724" x2="330.6724" y1="258.625" y2="271.625"/><line style="stroke:#181818;stroke-width:1;" x1="289.6724" x2="330.6724" y1="271.625" y2="271.625"/><polygon fill="#181818" points="299.6724,267.625,289.6724,271.625,299.6724,275.625,295.6724,271.625" style="stroke:#181818;stroke-width:1;"/><text fill="#000000" font-family="sans-serif" font-size="13" lengthAdjust="spacing" text-decoration="underline" textLength="16.6182" x="295.6724" y="253.7686">init</text><text fill="#000000" font-family="sans-serif" font-size="13" lengthAdjust="spacing" textLength="8.6582" x="312.2905" y="253.7686">()</text></g><g class="message" data-entity-1="part3" data-entity-2="part3" id="msg4"><line style="stroke:#181818;stroke-width:1;" x1="288.6724" x2="330.6724" y1="301.9766" y2="301.9766"/><line style="stroke:#181818;stroke-width:1;" x1="330.6724" x2="330.6724" y1="301.9766" y2="314.9766"/><line style="stroke:#181818;stroke-width:1;" x1="289.6724" x2="330.6724" y1="314.9766" y2="314.9766"/><polygon fill="#181818" points="299.6724,310.9766,289.6724,314.9766,299.6724,318.9766,295.6724,314.9766" style="stroke:#181818;stroke-width:1;"/><text fill="#000000" font-family="sans-serif" font-size="13" lengthAdjust="spacing" textLength="153.9053" x="295.6724" y="297.1201">init_month_year_combos()</text></g><g class="message" data-entity-1="part3" data-entity-2="part3" id="msg5"><line style="stroke:#181818;stroke-width:1;" x1="288.6724" x2="330.6724" y1="345.3281" y2="345.3281"/><line style="stroke:#181818;stroke-width:1;" x1="330.6724" x2="330.6724" y1="345.3281" y2="358.3281"/><line style="stroke:#181818;stroke-width:1;" x1="289.6724" x2="330.6724" y1="358.3281" y2="358.3281"/><polygon fill="#181818" points="299.6724,354.3281,289.6724,358.3281,299.6724,362.3281,295.6724,358.3281" style="stroke:#181818;stroke-width:1;"/><text fill="#000000" font-family="sans-serif" font-size="13" lengthAdjust="spacing" textLength="101.9053" x="295.6724" y="340.4717">load_dashboard()</text></g><rect fill="#EEEEEE" height="3" style="stroke:#EEEEEE;stroke-width:1;" width="1613.3701" x="0" y="387.5039"/><line style="stroke:#000000;stroke-width:1;" x1="0" x2="1613.3701" y1="387.5039" y2="387.5039"/><line style="stroke:#000000;stroke-width:1;" x1="0" x2="1613.3701" y1="390.5039" y2="390.5039"/><rect fill="#EEEEEE" height="24.3516" style="stroke:#000000;stroke-width:2;" width="166.4199" x="723.4751" y="376.3281"/><text fill="#000000" font-family="sans-serif" font-size="13" font-weight="bold" lengthAdjust="spacing" textLength="148.8081" x="729.4751" y="393.8232">Load/refresh dashboard</text><g class="message" data-entity-1="part3" data-entity-2="part3" id="msg6"><line style="stroke:#181818;stroke-width:1;" x1="288.6724" x2="330.6724" y1="433.0313" y2="433.0313"/><line style="stroke:#181818;stroke-width:1;" x1="330.6724" x2="330.6724" y1="433.0313" y2="446.0313"/><line style="stroke:#181818;stroke-width:1;" x1="289.6724" x2="330.6724" y1="446.0313" y2="446.0313"/><polygon fill="#181818" points="299.6724,442.0313,289.6724,446.0313,299.6724,450.0313,295.6724,446.0313" style="stroke:#181818;stroke-width:1;"/><text fill="#000000" font-family="sans-serif" font-size="13" lengthAdjust="spacing" textLength="158.2598" x="295.6724" y="428.1748">get_selected_month_year()</text></g><g class="message" data-entity-1="part3" data-entity-2="part4" id="msg7"><polygon fill="#181818" points="573.4092,472.3828,583.4092,476.3828,573.4092,480.3828,577.4092,476.3828" style="stroke:#181818;stroke-width:1;"/><line style="stroke:#181818;stroke-width:1;" x1="288.6724" x2="579.4092" y1="476.3828" y2="476.3828"/><text fill="#000000" font-family="sans-serif" font-size="13" lengthAdjust="spacing" textLength="238.4561" x="295.6724" y="471.5264">get_transactions_for_month(month, year)</text></g><g class="message" data-entity-1="part4" data-entity-2="part5" id="msg8"><polygon fill="#181818" points="920.3423,502.7344,930.3423,506.7344,920.3423,510.7344,924.3423,506.7344" style="stroke:#181818;stroke-width:1;"/><line style="stroke:#181818;stroke-width:1;" x1="585.4092" x2="926.3423" y1="506.7344" y2="506.7344"/><text fill="#000000" font-family="sans-serif" font-size="13" lengthAdjust="spacing" textLength="237.0151" x="592.4092" y="501.8779">get_transactions_by_month(month, year)</text></g><g class="message" data-entity-1="part5" data-entity-2="part7" id="msg9"><polygon fill="#181818" points="1481.0913,533.0859,1491.0913,537.0859,1481.0913,541.0859,1485.0913,537.0859" style="stroke:#181818;stroke-width:1;"/><line style="stroke:#181818;stroke-width:1;" x1="932.3423" x2="1487.0913" y1="537.0859" y2="537.0859"/><text fill="#000000" font-family="sans-serif" font-size="13" lengthAdjust="spacing" textLength="189.2998" x="939.3423" y="532.2295">execute(SELECT transactions...)</text></g><g class="message" data-entity-1="part7" data-entity-2="part5" id="msg10"><polygon fill="#181818" points="943.3423,563.4375,933.3423,567.4375,943.3423,571.4375,939.3423,567.4375" style="stroke:#181818;stroke-width:1;"/><line style="stroke:#181818;stroke-width:1;stroke-dasharray:2,2;" x1="937.3423" x2="1492.0913" y1="567.4375" y2="567.4375"/><text fill="#000000" font-family="sans-serif" font-size="13" lengthAdjust="spacing" textLength="27.4473" x="949.3423" y="562.5811">rows</text></g><g class="message" data-entity-1="part5" data-entity-2="part4" id="msg11"><polygon fill="#181818" points="596.4092,593.7891,586.4092,597.7891,596.4092,601.7891,592.4092,597.7891" style="stroke:#181818;stroke-width:1;"/><line style="stroke:#181818;stroke-width:1;stroke-dasharray:2,2;" x1="590.4092" x2="931.3423" y1="597.7891" y2="597.7891"/><text fill="#000000" font-family="sans-serif" font-size="13" lengthAdjust="spacing" textLength="51.3018" x="602.4092" y="592.9326">list&lt;dict&gt;</text></g><g class="message" data-entity-1="part4" data-entity-2="part3" id="msg12"><polygon fill="#181818" points="299.6724,624.1406,289.6724,628.1406,299.6724,632.1406,295.6724,628.1406" style="stroke:#181818;stroke-width:1;"/><line style="stroke:#181818;stroke-width:1;stroke-dasharray:2,2;" x1="293.6724" x2="584.4092" y1="628.1406" y2="628.1406"/><text fill="#000000" font-family="sans-serif" font-size="13" lengthAdjust="spacing" textLength="51.3018" x="305.6724" y="623.2842">list&lt;dict&gt;</text></g><g class="message" data-entity-1="part3" data-entity-2="part3" id="msg13"><line style="stroke:#181818;stroke-width:1;" x1="288.6724" x2="330.6724" y1="658.4922" y2="658.4922"/><line style="stroke:#181818;stroke-width:1;" x1="330.6724" x2="330.6724" y1="658.4922" y2="671.4922"/><line style="stroke:#181818;stroke-width:1;" x1="289.6724" x2="330.6724" y1="671.4922" y2="671.4922"/><polygon fill="#181818" points="299.6724,667.4922,289.6724,671.4922,299.6724,675.4922,295.6724,671.4922" style="stroke:#181818;stroke-width:1;"/><text fill="#000000" font-family="sans-serif" font-size="13" lengthAdjust="spacing" textLength="142.3843" x="295.6724" y="653.6357">update_balance_labels()</text></g><g class="message" data-entity-1="part3" data-entity-2="part4" id="msg14"><polygon fill="#181818" points="573.4092,697.8438,583.4092,701.8438,573.4092,705.8438,577.4092,701.8438" style="stroke:#181818;stroke-width:1;"/><line style="stroke:#181818;stroke-width:1;" x1="288.6724" x2="579.4092" y1="701.8438" y2="701.8438"/><text fill="#000000" font-family="sans-serif" font-size="13" lengthAdjust="spacing" textLength="203.0425" x="295.6724" y="696.9873">get_budget_summary(month, year)</text></g><g class="message" data-entity-1="part4" data-entity-2="part6" id="msg15"><polygon fill="#181818" points="1233.0615,728.1953,1243.0615,732.1953,1233.0615,736.1953,1237.0615,732.1953" style="stroke:#181818;stroke-width:1;"/><line style="stroke:#181818;stroke-width:1;" x1="585.4092" x2="1239.0615" y1="732.1953" y2="732.1953"/><text fill="#000000" font-family="sans-serif" font-size="13" lengthAdjust="spacing" textLength="142.3652" x="592.4092" y="727.3389">get_budget(month, year)</text></g><g class="message" data-entity-1="part6" data-entity-2="part7" id="msg16"><polygon fill="#181818" points="1481.0913,758.5469,1491.0913,762.5469,1481.0913,766.5469,1485.0913,762.5469" style="stroke:#181818;stroke-width:1;"/><line style="stroke:#181818;stroke-width:1;" x1="1245.0615" x2="1487.0913" y1="762.5469" y2="762.5469"/><text fill="#000000" font-family="sans-serif" font-size="13" lengthAdjust="spacing" textLength="165.4707" x="1252.0615" y="757.6904">execute(SELECT budgets...)</text></g><g class="message" data-entity-1="part7" data-entity-2="part6" id="msg17"><polygon fill="#181818" points="1256.0615,788.8984,1246.0615,792.8984,1256.0615,796.8984,1252.0615,792.8984" style="stroke:#181818;stroke-width:1;"/><line style="stroke:#181818;stroke-width:1;stroke-dasharray:2,2;" x1="1250.0615" x2="1492.0913" y1="792.8984" y2="792.8984"/><text fill="#000000" font-family="sans-serif" font-size="13" lengthAdjust="spacing" textLength="55.6372" x="1262.0615" y="788.042">row/None</text></g><g class="message" data-entity-1="part6" data-entity-2="part4" id="msg18"><polygon fill="#181818" points="596.4092,819.25,586.4092,823.25,596.4092,827.25,592.4092,823.25" style="stroke:#181818;stroke-width:1;"/><line style="stroke:#181818;stroke-width:1;stroke-dasharray:2,2;" x1="590.4092" x2="1244.0615" y1="823.25" y2="823.25"/><text fill="#000000" font-family="sans-serif" font-size="13" lengthAdjust="spacing" textLength="55.6372" x="602.4092" y="818.3936">row/None</text></g><g class="message" data-entity-1="part4" data-entity-2="part3" id="msg19"><polygon fill="#181818" points="299.6724,849.6016,289.6724,853.6016,299.6724,857.6016,295.6724,853.6016" style="stroke:#181818;stroke-width:1;"/><line style="stroke:#181818;stroke-width:1;stroke-dasharray:2,2;" x1="293.6724" x2="584.4092" y1="853.6016" y2="853.6016"/><text fill="#000000" font-family="sans-serif" font-size="13" lengthAdjust="spacing" textLength="136.5889" x="305.6724" y="848.7451">{total, remaining, spent}</text></g><g class="message" data-entity-1="part3" data-entity-2="part3" id="msg20"><line style="stroke:#181818;stroke-width:1;" x1="288.6724" x2="330.6724" y1="883.9531" y2="883.9531"/><line style="stroke:#181818;stroke-width:1;" x1="330.6724" x2="330.6724" y1="883.9531" y2="896.9531"/><line style="stroke:#181818;stroke-width:1;" x1="289.6724" x2="330.6724" y1="896.9531" y2="896.9531"/><polygon fill="#181818" points="299.6724,892.9531,289.6724,896.9531,299.6724,900.9531,295.6724,896.9531" style="stroke:#181818;stroke-width:1;"/><text fill="#000000" font-family="sans-serif" font-size="13" lengthAdjust="spacing" textLength="149.2144" x="295.6724" y="879.0967">set labels + progress bars</text></g><g class="message" data-entity-1="part3" data-entity-2="part3" id="msg21"><line style="stroke:#181818;stroke-width:1;" x1="288.6724" x2="330.6724" y1="927.3047" y2="927.3047"/><line style="stroke:#181818;stroke-width:1;" x1="330.6724" x2="330.6724" y1="927.3047" y2="940.3047"/><line style="stroke:#181818;stroke-width:1;" x1="289.6724" x2="330.6724" y1="940.3047" y2="940.3047"/><polygon fill="#181818" points="299.6724,936.3047,289.6724,940.3047,299.6724,944.3047,295.6724,940.3047" style="stroke:#181818;stroke-width:1;"/><text fill="#000000" font-family="sans-serif" font-size="13" lengthAdjust="spacing" textLength="149.5571" x="295.6724" y="922.4482">draw_charts(transactions)</text></g><g class="message" data-entity-1="part3" data-entity-2="part3" id="msg22"><line style="stroke:#181818;stroke-width:1;" x1="288.6724" x2="330.6724" y1="970.6563" y2="970.6563"/><line style="stroke:#181818;stroke-width:1;" x1="330.6724" x2="330.6724" y1="970.6563" y2="983.6563"/><line style="stroke:#181818;stroke-width:1;" x1="289.6724" x2="330.6724" y1="983.6563" y2="983.6563"/><polygon fill="#181818" points="299.6724,979.6563,289.6724,983.6563,299.6724,987.6563,295.6724,983.6563" style="stroke:#181818;stroke-width:1;"/><text fill="#000000" font-family="sans-serif" font-size="13" lengthAdjust="spacing" textLength="167.6353" x="295.6724" y="965.7998">draw_pie_chart(transactions)</text></g><g class="message" data-entity-1="part3" data-entity-2="part3" id="msg23"><line style="stroke:#181818;stroke-width:1;" x1="288.6724" x2="330.6724" y1="1014.0078" y2="1014.0078"/><line style="stroke:#181818;stroke-width:1;" x1="330.6724" x2="330.6724" y1="1014.0078" y2="1027.0078"/><line style="stroke:#181818;stroke-width:1;" x1="289.6724" x2="330.6724" y1="1027.0078" y2="1027.0078"/><polygon fill="#181818" points="299.6724,1023.0078,289.6724,1027.0078,299.6724,1031.0078,295.6724,1027.0078" style="stroke:#181818;stroke-width:1;"/><text fill="#000000" font-family="sans-serif" font-size="13" lengthAdjust="spacing" textLength="169.0762" x="295.6724" y="1009.1514">draw_bar_chart(transactions)</text></g><g class="message" data-entity-1="part3" data-entity-2="part3" id="msg24"><line style="stroke:#181818;stroke-width:1;" x1="288.6724" x2="330.6724" y1="1057.3594" y2="1057.3594"/><line style="stroke:#181818;stroke-width:1;" x1="330.6724" x2="330.6724" y1="1057.3594" y2="1070.3594"/><line style="stroke:#181818;stroke-width:1;" x1="289.6724" x2="330.6724" y1="1070.3594" y2="1070.3594"/><polygon fill="#181818" points="299.6724,1066.3594,289.6724,1070.3594,299.6724,1074.3594,295.6724,1070.3594" style="stroke:#181818;stroke-width:1;"/><text fill="#000000" font-family="sans-serif" font-size="13" lengthAdjust="spacing" textLength="170.5234" x="295.6724" y="1052.5029">draw_line_chart(transactions)</text></g><g class="message" data-entity-1="part3" data-entity-2="part4" id="msg25"><polygon fill="#181818" points="573.4092,1096.7109,583.4092,1100.7109,573.4092,1104.7109,577.4092,1100.7109" style="stroke:#181818;stroke-width:1;"/><line style="stroke:#181818;stroke-width:1;" x1="288.6724" x2="579.4092" y1="1100.7109" y2="1100.7109"/><text fill="#000000" font-family="sans-serif" font-size="13" lengthAdjust="spacing" textLength="124.2871" x="295.6724" y="1095.8545">get_all_transactions()</text></g><g class="message" data-entity-1="part4" data-entity-2="part5" id="msg26"><polygon fill="#181818" points="920.3423,1127.0625,930.3423,1131.0625,920.3423,1135.0625,924.3423,1131.0625" style="stroke:#181818;stroke-width:1;"/><line style="stroke:#181818;stroke-width:1;" x1="585.4092" x2="926.3423" y1="1131.0625" y2="1131.0625"/><text fill="#000000" font-family="sans-serif" font-size="13" lengthAdjust="spacing" textLength="104.0508" x="592.4092" y="1126.2061">get_transactions()</text></g><g class="message" data-entity-1="part5" data-entity-2="part7" id="msg27"><polygon fill="#181818" points="1481.0913,1157.4141,1491.0913,1161.4141,1481.0913,1165.4141,1485.0913,1161.4141" style="stroke:#181818;stroke-width:1;"/><line style="stroke:#181818;stroke-width:1;" x1="932.3423" x2="1487.0913" y1="1161.4141" y2="1161.4141"/><text fill="#000000" font-family="sans-serif" font-size="13" lengthAdjust="spacing" textLength="322.2324" x="939.3423" y="1156.5576">execute(SELECT transactions ORDER BY year, month)</text></g><g class="message" data-entity-1="part7" data-entity-2="part5" id="msg28"><polygon fill="#181818" points="943.3423,1187.7656,933.3423,1191.7656,943.3423,1195.7656,939.3423,1191.7656" style="stroke:#181818;stroke-width:1;"/><line style="stroke:#181818;stroke-width:1;stroke-dasharray:2,2;" x1="937.3423" x2="1492.0913" y1="1191.7656" y2="1191.7656"/><text fill="#000000" font-family="sans-serif" font-size="13" lengthAdjust="spacing" textLength="27.4473" x="949.3423" y="1186.9092">rows</text></g><g class="message" data-entity-1="part5" data-entity-2="part4" id="msg29"><polygon fill="#181818" points="596.4092,1218.1172,586.4092,1222.1172,596.4092,1226.1172,592.4092,1222.1172" style="stroke:#181818;stroke-width:1;"/><line style="stroke:#181818;stroke-width:1;stroke-dasharray:2,2;" x1="590.4092" x2="931.3423" y1="1222.1172" y2="1222.1172"/><text fill="#000000" font-family="sans-serif" font-size="13" lengthAdjust="spacing" textLength="27.4473" x="602.4092" y="1217.2607">rows</text></g><g class="message" data-entity-1="part4" data-entity-2="part3" id="msg30"><polygon fill="#181818" points="299.6724,1248.4688,289.6724,1252.4688,299.6724,1256.4688,295.6724,1252.4688" style="stroke:#181818;stroke-width:1;"/><line style="stroke:#181818;stroke-width:1;stroke-dasharray:2,2;" x1="293.6724" x2="584.4092" y1="1252.4688" y2="1252.4688"/><text fill="#000000" font-family="sans-serif" font-size="13" lengthAdjust="spacing" textLength="27.4473" x="305.6724" y="1247.6123">rows</text></g><path d="M163.9004,1267.4688 L236.335,1267.4688 L236.335,1275.8203 L226.335,1285.8203 L163.9004,1285.8203 L163.9004,1267.4688" fill="#EEEEEE" style="stroke:#000000;stroke-width:1.5;"/><rect fill="none" height="200.4609" style="stroke:#000000;stroke-width:1.5;" width="1439.4697" x="163.9004" y="1267.4688"/><text fill="#000000" font-family="sans-serif" font-size="13" font-weight="bold" lengthAdjust="spacing" textLength="27.4346" x="178.9004" y="1281.9639">loop</text><text fill="#000000" font-family="sans-serif" font-size="11" font-weight="bold" lengthAdjust="spacing" textLength="65.7153" x="251.335" y="1280.8877">[for m=1..12]</text><g class="message" data-entity-1="part3" data-entity-2="part4" id="msg31"><polygon fill="#181818" points="573.4092,1304.1719,583.4092,1308.1719,573.4092,1312.1719,577.4092,1308.1719" style="stroke:#181818;stroke-width:1;"/><line style="stroke:#181818;stroke-width:1;" x1="288.6724" x2="579.4092" y1="1308.1719" y2="1308.1719"/><text fill="#000000" font-family="sans-serif" font-size="13" lengthAdjust="spacing" textLength="177.7407" x="295.6724" y="1303.3154">get_budget_summary(m, year)</text></g><g class="message" data-entity-1="part4" data-entity-2="part6" id="msg32"><polygon fill="#181818" points="1233.0615,1334.5234,1243.0615,1338.5234,1233.0615,1342.5234,1237.0615,1338.5234" style="stroke:#181818;stroke-width:1;"/><line style="stroke:#181818;stroke-width:1;" x1="585.4092" x2="1239.0615" y1="1338.5234" y2="1338.5234"/><text fill="#000000" font-family="sans-serif" font-size="13" lengthAdjust="spacing" textLength="117.0635" x="592.4092" y="1333.667">get_budget(m, year)</text></g><g class="message" data-entity-1="part6" data-entity-2="part7" id="msg33"><polygon fill="#181818" points="1481.0913,1364.875,1491.0913,1368.875,1481.0913,1372.875,1485.0913,1368.875" style="stroke:#181818;stroke-width:1;"/><line style="stroke:#181818;stroke-width:1;" x1="1245.0615" x2="1487.0913" y1="1368.875" y2="1368.875"/><text fill="#000000" font-family="sans-serif" font-size="13" lengthAdjust="spacing" textLength="165.4707" x="1252.0615" y="1364.0186">execute(SELECT budgets...)</text></g><g class="message" data-entity-1="part7" data-entity-2="part6" id="msg34"><polygon fill="#181818" points="1256.0615,1395.2266,1246.0615,1399.2266,1256.0615,1403.2266,1252.0615,1399.2266" style="stroke:#181818;stroke-width:1;"/><line style="stroke:#181818;stroke-width:1;stroke-dasharray:2,2;" x1="1250.0615" x2="1492.0913" y1="1399.2266" y2="1399.2266"/><text fill="#000000" font-family="sans-serif" font-size="13" lengthAdjust="spacing" textLength="55.6372" x="1262.0615" y="1394.3701">row/None</text></g><g class="message" data-entity-1="part6" data-entity-2="part4" id="msg35"><polygon fill="#181818" points="596.4092,1425.5781,586.4092,1429.5781,596.4092,1433.5781,592.4092,1429.5781" style="stroke:#181818;stroke-width:1;"/><line style="stroke:#181818;stroke-width:1;stroke-dasharray:2,2;" x1="590.4092" x2="1244.0615" y1="1429.5781" y2="1429.5781"/><text fill="#000000" font-family="sans-serif" font-size="13" lengthAdjust="spacing" textLength="55.6372" x="602.4092" y="1424.7217">row/None</text></g><g class="message" data-entity-1="part4" data-entity-2="part3" id="msg36"><polygon fill="#181818" points="299.6724,1455.9297,289.6724,1459.9297,299.6724,1463.9297,295.6724,1459.9297" style="stroke:#181818;stroke-width:1;"/><line style="stroke:#181818;stroke-width:1;stroke-dasharray:2,2;" x1="293.6724" x2="584.4092" y1="1459.9297" y2="1459.9297"/><text fill="#000000" font-family="sans-serif" font-size="13" lengthAdjust="spacing" textLength="136.5889" x="305.6724" y="1455.0732">{total, remaining, spent}</text></g><rect fill="#EEEEEE" height="3" style="stroke:#EEEEEE;stroke-width:1;" width="1613.3701" x="0" y="1496.1055"/><line style="stroke:#000000;stroke-width:1;" x1="0" x2="1613.3701" y1="1496.1055" y2="1496.1055"/><line style="stroke:#000000;stroke-width:1;" x1="0" x2="1613.3701" y1="1499.1055" y2="1499.1055"/><rect fill="#EEEEEE" height="24.3516" style="stroke:#000000;stroke-width:2;" width="138.9663" x="737.2019" y="1484.9297"/><text fill="#000000" font-family="sans-serif" font-size="13" font-weight="bold" lengthAdjust="spacing" textLength="121.3545" x="743.2019" y="1502.4248">Change month/year</text><g class="message" data-entity-1="part1" data-entity-2="part3" id="msg37"><polygon fill="#181818" points="276.6724,1537.6328,286.6724,1541.6328,276.6724,1545.6328,280.6724,1541.6328" style="stroke:#181818;stroke-width:1;"/><line style="stroke:#181818;stroke-width:1;" x1="22.7793" x2="282.6724" y1="1541.6328" y2="1541.6328"/><text fill="#000000" font-family="sans-serif" font-size="13" lengthAdjust="spacing" textLength="156.8125" x="29.7793" y="1536.7764">Change month/year combo</text></g><g class="message" data-entity-1="part3" data-entity-2="part3" id="msg38"><line style="stroke:#181818;stroke-width:1;" x1="288.6724" x2="330.6724" y1="1571.9844" y2="1571.9844"/><line style="stroke:#181818;stroke-width:1;" x1="330.6724" x2="330.6724" y1="1571.9844" y2="1584.9844"/><line style="stroke:#181818;stroke-width:1;" x1="289.6724" x2="330.6724" y1="1584.9844" y2="1584.9844"/><polygon fill="#181818" points="299.6724,1580.9844,289.6724,1584.9844,299.6724,1588.9844,295.6724,1584.9844" style="stroke:#181818;stroke-width:1;"/><text fill="#000000" font-family="sans-serif" font-size="13" lengthAdjust="spacing" textLength="123.5889" x="295.6724" y="1567.1279">on_month_changed()</text></g><g class="message" data-entity-1="part3" data-entity-2="part3" id="msg39"><line style="stroke:#181818;stroke-width:1;" x1="288.6724" x2="330.6724" y1="1615.3359" y2="1615.3359"/><line style="stroke:#181818;stroke-width:1;" x1="330.6724" x2="330.6724" y1="1615.3359" y2="1628.3359"/><line style="stroke:#181818;stroke-width:1;" x1="289.6724" x2="330.6724" y1="1628.3359" y2="1628.3359"/><polygon fill="#181818" points="299.6724,1624.3359,289.6724,1628.3359,299.6724,1632.3359,295.6724,1628.3359" style="stroke:#181818;stroke-width:1;"/><text fill="#000000" font-family="sans-serif" font-size="13" lengthAdjust="spacing" textLength="257.5752" x="295.6724" y="1610.4795">load_dashboard()  ' repeats load/refresh flow</text></g><rect fill="#EEEEEE" height="3" style="stroke:#EEEEEE;stroke-width:1;" width="1613.3701" x="0" y="1657.5117"/><line style="stroke:#000000;stroke-width:1;" x1="0" x2="1613.3701" y1="1657.5117" y2="1657.5117"/><line style="stroke:#000000;stroke-width:1;" x1="0" x2="1613.3701" y1="1660.5117" y2="1660.5117"/><rect fill="#EEEEEE" height="24.3516" style="stroke:#000000;stroke-width:2;" width="121.6372" x="745.8665" y="1646.3359"/><text fill="#000000" font-family="sans-serif" font-size="13" font-weight="bold" lengthAdjust="spacing" textLength="104.0254" x="751.8665" y="1663.8311">Save month data</text><g class="message" data-entity-1="part1" data-entity-2="part3" id="msg40"><polygon fill="#181818" points="276.6724,1699.0391,286.6724,1703.0391,276.6724,1707.0391,280.6724,1703.0391" style="stroke:#181818;stroke-width:1;"/><line style="stroke:#181818;stroke-width:1;" x1="22.7793" x2="282.6724" y1="1703.0391" y2="1703.0391"/><text fill="#000000" font-family="sans-serif" font-size="13" lengthAdjust="spacing" textLength="46.9727" x="29.7793" y="1698.1826">actSave</text></g><g class="message" data-entity-1="part3" data-entity-2="part3" id="msg41"><line style="stroke:#181818;stroke-width:1;" x1="288.6724" x2="330.6724" y1="1733.3906" y2="1733.3906"/><line style="stroke:#181818;stroke-width:1;" x1="330.6724" x2="330.6724" y1="1733.3906" y2="1746.3906"/><line style="stroke:#181818;stroke-width:1;" x1="289.6724" x2="330.6724" y1="1746.3906" y2="1746.3906"/><polygon fill="#181818" points="299.6724,1742.3906,289.6724,1746.3906,299.6724,1750.3906,295.6724,1746.3906" style="stroke:#181818;stroke-width:1;"/><text fill="#000000" font-family="sans-serif" font-size="13" lengthAdjust="spacing" textLength="57.8081" x="295.6724" y="1728.5342">on_save()</text></g><g class="message" data-entity-1="part3" data-entity-2="part4" id="msg42"><polygon fill="#181818" points="573.4092,1772.7422,583.4092,1776.7422,573.4092,1780.7422,577.4092,1776.7422" style="stroke:#181818;stroke-width:1;"/><line style="stroke:#181818;stroke-width:1;" x1="288.6724" x2="579.4092" y1="1776.7422" y2="1776.7422"/><text fill="#000000" font-family="sans-serif" font-size="13" lengthAdjust="spacing" textLength="137.2935" x="295.6724" y="1771.8857">save_data(month, year)</text></g><g class="message" data-entity-1="part4" data-entity-2="part4" id="msg43"><line style="stroke:#181818;stroke-width:1;" x1="585.4092" x2="627.4092" y1="1807.0938" y2="1807.0938"/><line style="stroke:#181818;stroke-width:1;" x1="627.4092" x2="627.4092" y1="1807.0938" y2="1820.0938"/><line style="stroke:#181818;stroke-width:1;" x1="586.4092" x2="627.4092" y1="1820.0938" y2="1820.0938"/><polygon fill="#181818" points="596.4092,1816.0938,586.4092,1820.0938,596.4092,1824.0938,592.4092,1820.0938" style="stroke:#181818;stroke-width:1;"/><text fill="#000000" font-family="sans-serif" font-size="13" lengthAdjust="spacing" textLength="238.4561" x="592.4092" y="1802.2373">get_transactions_for_month(month, year)</text></g><g class="message" data-entity-1="part4" data-entity-2="part5" id="msg44"><polygon fill="#181818" points="920.3423,1846.4453,930.3423,1850.4453,920.3423,1854.4453,924.3423,1850.4453" style="stroke:#181818;stroke-width:1;"/><line style="stroke:#181818;stroke-width:1;" x1="585.4092" x2="926.3423" y1="1850.4453" y2="1850.4453"/><text fill="#000000" font-family="sans-serif" font-size="13" lengthAdjust="spacing" textLength="237.0151" x="592.4092" y="1845.5889">get_transactions_by_month(month, year)</text></g><g class="message" data-entity-1="part5" data-entity-2="part7" id="msg45"><polygon fill="#181818" points="1481.0913,1876.7969,1491.0913,1880.7969,1481.0913,1884.7969,1485.0913,1880.7969" style="stroke:#181818;stroke-width:1;"/><line style="stroke:#181818;stroke-width:1;" x1="932.3423" x2="1487.0913" y1="1880.7969" y2="1880.7969"/><text fill="#000000" font-family="sans-serif" font-size="13" lengthAdjust="spacing" textLength="189.2998" x="939.3423" y="1875.9404">execute(SELECT transactions...)</text></g><g class="message" data-entity-1="part7" data-entity-2="part5" id="msg46"><polygon fill="#181818" points="943.3423,1907.1484,933.3423,1911.1484,943.3423,1915.1484,939.3423,1911.1484" style="stroke:#181818;stroke-width:1;"/><line style="stroke:#181818;stroke-width:1;stroke-dasharray:2,2;" x1="937.3423" x2="1492.0913" y1="1911.1484" y2="1911.1484"/><text fill="#000000" font-family="sans-serif" font-size="13" lengthAdjust="spacing" textLength="27.4473" x="949.3423" y="1906.292">rows</text></g><g class="message" data-entity-1="part5" data-entity-2="part4" id="msg47"><polygon fill="#181818" points="596.4092,1937.5,586.4092,1941.5,596.4092,1945.5,592.4092,1941.5" style="stroke:#181818;stroke-width:1;"/><line style="stroke:#181818;stroke-width:1;stroke-dasharray:2,2;" x1="590.4092" x2="931.3423" y1="1941.5" y2="1941.5"/><text fill="#000000" font-family="sans-serif" font-size="13" lengthAdjust="spacing" textLength="51.3018" x="602.4092" y="1936.6436">list&lt;dict&gt;</text></g><g class="message" data-entity-1="part4" data-entity-2="part4" id="msg48"><line style="stroke:#181818;stroke-width:1;" x1="585.4092" x2="627.4092" y1="1971.8516" y2="1971.8516"/><line style="stroke:#181818;stroke-width:1;" x1="627.4092" x2="627.4092" y1="1971.8516" y2="1984.8516"/><line style="stroke:#181818;stroke-width:1;" x1="586.4092" x2="627.4092" y1="1984.8516" y2="1984.8516"/><polygon fill="#181818" points="596.4092,1980.8516,586.4092,1984.8516,596.4092,1988.8516,592.4092,1984.8516" style="stroke:#181818;stroke-width:1;"/><text fill="#000000" font-family="sans-serif" font-size="13" lengthAdjust="spacing" textLength="131.1235" x="592.4092" y="1966.9951">QFileDialog + write .txt</text></g><g class="message" data-entity-1="part4" data-entity-2="part3" id="msg49"><polygon fill="#181818" points="299.6724,2011.2031,289.6724,2015.2031,299.6724,2019.2031,295.6724,2015.2031" style="stroke:#181818;stroke-width:1;"/><line style="stroke:#181818;stroke-width:1;stroke-dasharray:2,2;" x1="293.6724" x2="584.4092" y1="2015.2031" y2="2015.2031"/><text fill="#000000" font-family="sans-serif" font-size="13" lengthAdjust="spacing" textLength="28.9199" x="305.6724" y="2010.3467">done</text></g><rect fill="#EEEEEE" height="3" style="stroke:#EEEEEE;stroke-width:1;" width="1613.3701" x="0" y="2044.3789"/><line style="stroke:#000000;stroke-width:1;" x1="0" x2="1613.3701" y1="2044.3789" y2="2044.3789"/><line style="stroke:#000000;stroke-width:1;" x1="0" x2="1613.3701" y1="2047.3789" y2="2047.3789"/><rect fill="#EEEEEE" height="24.3516" style="stroke:#000000;stroke-width:2;" width="132.4473" x="740.4614" y="2033.2031"/><text fill="#000000" font-family="sans-serif" font-size="13" font-weight="bold" lengthAdjust="spacing" textLength="114.8354" x="746.4614" y="2050.6982">Export month data</text><g class="message" data-entity-1="part1" data-entity-2="part3" id="msg50"><polygon fill="#181818" points="276.6724,2085.9063,286.6724,2089.9063,276.6724,2093.9063,280.6724,2089.9063" style="stroke:#181818;stroke-width:1;"/><line style="stroke:#181818;stroke-width:1;" x1="22.7793" x2="282.6724" y1="2089.9063" y2="2089.9063"/><text fill="#000000" font-family="sans-serif" font-size="13" lengthAdjust="spacing" textLength="54.9136" x="29.7793" y="2085.0498">actExport</text></g><g class="message" data-entity-1="part3" data-entity-2="part3" id="msg51"><line style="stroke:#181818;stroke-width:1;" x1="288.6724" x2="330.6724" y1="2120.2578" y2="2120.2578"/><line style="stroke:#181818;stroke-width:1;" x1="330.6724" x2="330.6724" y1="2120.2578" y2="2133.2578"/><line style="stroke:#181818;stroke-width:1;" x1="289.6724" x2="330.6724" y1="2133.2578" y2="2133.2578"/><polygon fill="#181818" points="299.6724,2129.2578,289.6724,2133.2578,299.6724,2137.2578,295.6724,2133.2578" style="stroke:#181818;stroke-width:1;"/><text fill="#000000" font-family="sans-serif" font-size="13" lengthAdjust="spacing" textLength="66.479" x="295.6724" y="2115.4014">on_export()</text></g><g class="message" data-entity-1="part3" data-entity-2="part4" id="msg52"><polygon fill="#181818" points="573.4092,2159.6094,583.4092,2163.6094,573.4092,2167.6094,577.4092,2163.6094" style="stroke:#181818;stroke-width:1;"/><line style="stroke:#181818;stroke-width:1;" x1="288.6724" x2="579.4092" y1="2163.6094" y2="2163.6094"/><text fill="#000000" font-family="sans-serif" font-size="13" lengthAdjust="spacing" textLength="145.9644" x="295.6724" y="2158.7529">export_data(month, year)</text></g><g class="message" data-entity-1="part4" data-entity-2="part4" id="msg53"><line style="stroke:#181818;stroke-width:1;" x1="585.4092" x2="627.4092" y1="2193.9609" y2="2193.9609"/><line style="stroke:#181818;stroke-width:1;" x1="627.4092" x2="627.4092" y1="2193.9609" y2="2206.9609"/><line style="stroke:#181818;stroke-width:1;" x1="586.4092" x2="627.4092" y1="2206.9609" y2="2206.9609"/><polygon fill="#181818" points="596.4092,2202.9609,586.4092,2206.9609,596.4092,2210.9609,592.4092,2206.9609" style="stroke:#181818;stroke-width:1;"/><text fill="#000000" font-family="sans-serif" font-size="13" lengthAdjust="spacing" textLength="238.4561" x="592.4092" y="2189.1045">get_transactions_for_month(month, year)</text></g><g class="message" data-entity-1="part4" data-entity-2="part5" id="msg54"><polygon fill="#181818" points="920.3423,2233.3125,930.3423,2237.3125,920.3423,2241.3125,924.3423,2237.3125" style="stroke:#181818;stroke-width:1;"/><line style="stroke:#181818;stroke-width:1;" x1="585.4092" x2="926.3423" y1="2237.3125" y2="2237.3125"/><text fill="#000000" font-family="sans-serif" font-size="13" lengthAdjust="spacing" textLength="237.0151" x="592.4092" y="2232.4561">get_transactions_by_month(month, year)</text></g><g class="message" data-entity-1="part5" data-entity-2="part7" id="msg55"><polygon fill="#181818" points="1481.0913,2263.6641,1491.0913,2267.6641,1481.0913,2271.6641,1485.0913,2267.6641" style="stroke:#181818;stroke-width:1;"/><line style="stroke:#181818;stroke-width:1;" x1="932.3423" x2="1487.0913" y1="2267.6641" y2="2267.6641"/><text fill="#000000" font-family="sans-serif" font-size="13" lengthAdjust="spacing" textLength="189.2998" x="939.3423" y="2262.8076">execute(SELECT transactions...)</text></g><g class="message" data-entity-1="part7" data-entity-2="part5" id="msg56"><polygon fill="#181818" points="943.3423,2294.0156,933.3423,2298.0156,943.3423,2302.0156,939.3423,2298.0156" style="stroke:#181818;stroke-width:1;"/><line style="stroke:#181818;stroke-width:1;stroke-dasharray:2,2;" x1="937.3423" x2="1492.0913" y1="2298.0156" y2="2298.0156"/><text fill="#000000" font-family="sans-serif" font-size="13" lengthAdjust="spacing" textLength="27.4473" x="949.3423" y="2293.1592">rows</text></g><g class="message" data-entity-1="part5" data-entity-2="part4" id="msg57"><polygon fill="#181818" points="596.4092,2324.3672,586.4092,2328.3672,596.4092,2332.3672,592.4092,2328.3672" style="stroke:#181818;stroke-width:1;"/><line style="stroke:#181818;stroke-width:1;stroke-dasharray:2,2;" x1="590.4092" x2="931.3423" y1="2328.3672" y2="2328.3672"/><text fill="#000000" font-family="sans-serif" font-size="13" lengthAdjust="spacing" textLength="51.3018" x="602.4092" y="2323.5107">list&lt;dict&gt;</text></g><g class="message" data-entity-1="part4" data-entity-2="part4" id="msg58"><line style="stroke:#181818;stroke-width:1;" x1="585.4092" x2="627.4092" y1="2358.7188" y2="2358.7188"/><line style="stroke:#181818;stroke-width:1;" x1="627.4092" x2="627.4092" y1="2358.7188" y2="2371.7188"/><line style="stroke:#181818;stroke-width:1;" x1="586.4092" x2="627.4092" y1="2371.7188" y2="2371.7188"/><polygon fill="#181818" points="596.4092,2367.7188,586.4092,2371.7188,596.4092,2375.7188,592.4092,2371.7188" style="stroke:#181818;stroke-width:1;"/><text fill="#000000" font-family="sans-serif" font-size="13" lengthAdjust="spacing" textLength="136.8999" x="592.4092" y="2353.8623">QFileDialog + write .csv</text></g><g class="message" data-entity-1="part4" data-entity-2="part3" id="msg59"><polygon fill="#181818" points="299.6724,2398.0703,289.6724,2402.0703,299.6724,2406.0703,295.6724,2402.0703" style="stroke:#181818;stroke-width:1;"/><line style="stroke:#181818;stroke-width:1;stroke-dasharray:2,2;" x1="293.6724" x2="584.4092" y1="2402.0703" y2="2402.0703"/><text fill="#000000" font-family="sans-serif" font-size="13" lengthAdjust="spacing" textLength="28.9199" x="305.6724" y="2397.2139">done</text></g><?plantuml-src vLPTRzem57tFhxZgou96YRh7QVGXXKcLsAe2VPXKoNAI2rWoTcGRA9hst-UF4E92Ir-dlH1oVSxr_JY-Zc668uoeNXMIgWhI7vI9MQaGHG-kWKjQPGeN2lKgqtIB6RxKKfaaeQMH2fuqggIcoh2IrLGOk9h8vS715L0D_Zs67BTuVXRfXcKBjQuE4GpgVSyJd-vZbeinTuWPgYqhqN5r-AkpbauQK-jcD8lTp1KLsWRFf9XYBPqNPP-QsNJscJck4cTktSodiPjyKotHdF5G-8MOd4-JYXfQK8rmDNkSCEEZ7pMsEoa4-ZsRaFCa6GxXeKO1RM8m72Qksd1z6seANvjdkgMSLRqalDdbftkx9YsRj7rDUucr7jO8OO8PGcAhjwsbC2koHwf8ATU5r376wO5K7Qykq4b79Ay2FZ9TKJHocoTMdLrQzwDP0-gqG9E5L06S-jy-E4uliM1BcK_FKOhzEOR5karooy0NB3S6qzbuChwRGvSy60oiynok3zwLt6dFFKJ8cJRVAbQQMnz4MvUZkPlqfhPzHr9GJaM9XDC2kJvDkT6CtgpNLEtFfPfF8sWCoT_CBQ2ZjF8chUod5EYfXqXQOpUntqOQolkWS6rFBHFBFcYhBFEdcwP60o4t-0oraakh10q5LJggHgNeZfGhUunqsgrwxmHKCmp02xZ2oVG3ECx4UmxRHb3E8p6bxqej_QYiu64w6ayX_-KRrWVVlGj2yuPk9xo1Irc3FHIm7juC1ZTV4e0BMZg81E0D9Hq17zCHm5ab1Vg9biAsbzM4elApv6v5nH93XJ8NM7VkUH-d23-ekZstmpjCcD9Zg_Td6C0d6r2DrEZeleC5bpiVrCnUV653S7Fy92JRPWTv5OAxBkEpxYp4UJXtnF_D0TXO7xypZYD6kLpQ4R1JzeQ3WNanaO8h9mXNpx7_XhXGqG1wLTFmzH5NDTZ-exgMUdjQrxy0?></g></svg>