<?plantuml 1.2026.2?><svg xmlns="http://www.w3.org/2000/svg" xmlns:xlink="http://www.w3.org/1999/xlink" contentStyleType="text/css" data-diagram-type="SEQUENCE" height="618px" preserveAspectRatio="none" style="width:1112px;height:618px;background:#FFFFFF;" version="1.1" viewBox="0 0 1112 618" width="1112px" zoomAndPan="magnify"><title>Login (try_login)</title><defs/><g><text fill="#000000" font-family="sans-serif" font-size="14" font-weight="bold" lengthAdjust="spacing" textLength="110.4277" x="502.0718" y="29.5332">Login (try_login)</text><rect fill="none" height="198.9453" style="stroke:#000000;stroke-width:1.5;" width="1095.5713" x="10" y="320.3281"/><g class="participant-lifeline" data-entity-uid="part1" data-qualified-name="User" id="part1-lifeline"><g><title>User</title><rect fill="#000000" fill-opacity="0.00000" height="415.0547" width="8" x="33.7793" y="121.2188"/><line style="stroke:#181818;stroke-width:0.5;stroke-dasharray:5,5;" x1="37" x2="37" y1="121.2188" y2="536.2734"/></g></g><g class="participant-lifeline" data-entity-uid="part2" data-qualified-name="UI" id="part2-lifeline"><g><title>LoginScreen .ui.frmLoginScreen.py.</title><rect fill="#000000" fill-opacity="0.00000" height="415.0547" width="8" x="200.8301" y="121.2188"/><line style="stroke:#181818;stroke-width:0.5;stroke-dasharray:5,5;" x1="204.772" x2="204.772" y1="121.2188" y2="536.2734"/></g></g><g class="participant-lifeline" data-entity-uid="part3" data-qualified-name="US" id="part3-lifeline"><g><title>UserService</title><rect fill="#000000" fill-opacity="0.00000" height="415.0547" width="8" x="381.6235" y="121.2188"/><line style="stroke:#181818;stroke-width:0.5;stroke-dasharray:5,5;" x1="385.5029" x2="385.5029" y1="121.2188" y2="536.2734"/></g></g><g class="participant-lifeline" data-entity-uid="part4" data-qualified-name="UR" id="part4-lifeline"><g><title>UserRepo</title><rect fill="#000000" fill-opacity="0.00000" height="415.0547" width="8" x="588.4297" y="121.2188"/><line style="stroke:#181818;stroke-width:0.5;stroke-dasharray:5,5;" x1="591.916" x2="591.916" y1="121.2188" y2="536.2734"/></g></g><g class="participant-lifeline" data-entity-uid="part5" data-qualified-name="DB" id="part5-lifeline"><g><title>SQLite .DatabaseConnection.</title><rect fill="#000000" fill-opacity="0.00000" height="415.0547" width="8" x="763.4277" y="121.2188"/><line style="stroke:#181818;stroke-width:0.5;stroke-dasharray:5,5;" x1="767.042" x2="767.042" y1="121.2188" y2="536.2734"/></g></g><g class="participant-lifeline" data-entity-uid="part6" data-qualified-name="DASH" id="part6-lifeline"><g><title>MainScreen .ui.frmdashboard.py.</title><rect fill="#000000" fill-opacity="0.00000" height="415.0547" width="8" x="980.6924" y="121.2188"/><line style="stroke:#181818;stroke-width:0.5;stroke-dasharray:5,5;" x1="983.8135" x2="983.8135" y1="121.2188" y2="536.2734"/></g></g><g class="participant participant-head" data-entity-uid="part1" data-qualified-name="User" id="part1-head"><text fill="#000000" font-family="sans-serif" font-size="14" lengthAdjust="spacing" textLength="29.5586" x="20" y="118.1426">User</text><ellipse cx="37.7793" cy="52.1094" fill="#E2E2F0" rx="8" ry="8" style="stroke:#181818;stroke-width:0.5;"/><path d="M37.7793,60.1094 L37.7793,87.1094 M24.7793,68.1094 L50.7793,68.1094 M37.7793,87.1094 L24.7793,102.1094 M37.7793,87.1094 L50.7793,102.1094" fill="none" style="stroke:#181818;stroke-width:0.5;"/></g><g class="participant participant-tail" data-entity-uid="part1" data-qualified-name="User" id="part1-tail"><text fill="#000000" font-family="sans-serif" font-size="14" lengthAdjust="spacing" textLength="29.5586" x="20" y="549.8066">User</text><ellipse cx="37.7793" cy="561.3828" fill="#E2E2F0" rx="8" ry="8" style="stroke:#181818;stroke-width:0.5;"/><path d="M37.7793,569.3828 L37.7793,596.3828 M24.7793,577.3828 L50.7793,577.3828 M37.7793,596.3828 L24.7793,611.3828 M37.7793,596.3828 L50.7793,611.3828" fill="none" style="stroke:#181818;stroke-width:0.5;"/></g><g class="participant participant-head" data-entity-uid="part2" data-qualified-name="UI" id="part2-head"><rect fill="#E2E2F0" height="31.6094" rx="2.5" ry="2.5" style="stroke:#181818;stroke-width:0.5;" width="238.1162" x="85.772" y="88.6094"/><text fill="#000000" font-family="sans-serif" font-size="14" lengthAdjust="spacing" textLength="224.1162" x="92.772" y="110.1426">LoginScreen (ui/frmLoginScreen.py)</text></g><g class="participant participant-tail" data-entity-uid="part2" data-qualified-name="UI" id="part2-tail"><rect fill="#E2E2F0" height="31.6094" rx="2.5" ry="2.5" style="stroke:#181818;stroke-width:0.5;" width="238.1162" x="85.772" y="535.2734"/><text fill="#000000" font-family="sans-serif" font-size="14" lengthAdjust="spacing" textLength="224.1162" x="92.772" y="556.8066">LoginScreen (ui/frmLoginScreen.py)</text></g><g class="participant participant-head" data-entity-uid="part3" data-qualified-name="US" id="part3-head"><rect fill="#E2E2F0" height="31.6094" rx="2.5" ry="2.5" style="stroke:#181818;stroke-width:0.5;" width="90.2412" x="340.5029" y="88.6094"/><text fill="#000000" font-family="sans-serif" font-size="14" lengthAdjust="spacing" textLength="76.2412" x="347.5029" y="110.1426">UserService</text></g><g class="participant participant-tail" data-entity-uid="part3" data-qualified-name="US" id="part3-tail"><rect fill="#E2E2F0" height="31.6094" rx="2.5" ry="2.5" style="stroke:#181818;stroke-width:0.5;" width="90.2412" x="340.5029" y="535.2734"/><text fill="#000000" font-family="sans-serif" font-size="14" lengthAdjust="spacing" textLength="76.2412" x="347.5029" y="556.8066">UserService</text></g><g class="participant participant-head" data-entity-uid="part4" data-qualified-name="UR" id="part4-head"><rect fill="#E2E2F0" height="31.6094" rx="2.5" ry="2.5" style="stroke:#181818;stroke-width:0.5;" width="77.0273" x="553.916" y="88.6094"/><text fill="#000000" font-family="sans-serif" font-size="14" lengthAdjust="spacing" textLength="63.0273" x="560.916" y="110.1426">UserRepo</text></g><g class="participant participant-tail" data-entity-uid="part4" data-qualified-name="UR" id="part4-tail"><rect fill="#E2E2F0" height="31.6094" rx="2.5" ry="2.5" style="stroke:#181818;stroke-width:0.5;" width="77.0273" x="553.916" y="535.2734"/><text fill="#000000" font-family="sans-serif" font-size="14" lengthAdjust="spacing" textLength="63.0273" x="560.916" y="556.8066">UserRepo</text></g><g class="participant participant-head" data-entity-uid="part5" data-qualified-name="DB" id="part5-head"><text fill="#000000" font-family="sans-serif" font-size="14" lengthAdjust="spacing" textLength="186.7715" x="671.042" y="118.1426">SQLite (DatabaseConnection)</text><path d="M749.4277,67.6094 C749.4277,57.6094 767.4277,57.6094 767.4277,57.6094 C767.4277,57.6094 785.4277,57.6094 785.4277,67.6094 L785.4277,93.6094 C785.4277,103.6094 767.4277,103.6094 767.4277,103.6094 C767.4277,103.6094 749.4277,103.6094 749.4277,93.6094 L749.4277,67.6094" fill="#E2E2F0" style="stroke:#181818;stroke-width:0.5;"/><path d="M749.4277,67.6094 C749.4277,77.6094 767.4277,77.6094 767.4277,77.6094 C767.4277,77.6094 785.4277,77.6094 785.4277,67.6094" fill="none" style="stroke:#181818;stroke-width:0.5;"/></g><g class="participant participant-tail" data-entity-uid="part5" data-qualified-name="DB" id="part5-tail"><text fill="#000000" font-family="sans-serif" font-size="14" lengthAdjust="spacing" textLength="186.7715" x="671.042" y="549.8066">SQLite (DatabaseConnection)</text><path d="M749.4277,562.8828 C749.4277,552.8828 767.4277,552.8828 767.4277,552.8828 C767.4277,552.8828 785.4277,552.8828 785.4277,562.8828 L785.4277,588.8828 C785.4277,598.8828 767.4277,598.8828 767.4277,598.8828 C767.4277,598.8828 749.4277,598.8828 749.4277,588.8828 L749.4277,562.8828" fill="#E2E2F0" style="stroke:#181818;stroke-width:0.5;"/><path d="M749.4277,562.8828 C749.4277,572.8828 767.4277,572.8828 767.4277,572.8828 C767.4277,572.8828 785.4277,572.8828 785.4277,562.8828" fill="none" style="stroke:#181818;stroke-width:0.5;"/></g><g class="participant participant-head" data-entity-uid="part6" data-qualified-name="DASH" id="part6-head"><rect fill="#E2E2F0" height="31.6094" rx="2.5" ry="2.5" style="stroke:#181818;stroke-width:0.5;" width="221.7578" x="873.8135" y="88.6094"/><text fill="#000000" font-family="sans-serif" font-size="14" lengthAdjust="spacing" textLength="207.7578" x="880.8135" y="110.1426">MainScreen (ui/frmdashboard.py)</text></g><g class="participant participant-tail" data-entity-uid="part6" data-qualified-name="DASH" id="part6-tail"><rect fill="#E2E2F0" height="31.6094" rx="2.5" ry="2.5" style="stroke:#181818;stroke-width:0.5;" width="221.7578" x="873.8135" y="535.2734"/><text fill="#000000" font-family="sans-serif" font-size="14" lengthAdjust="spacing" textLength="207.7578" x="880.8135" y="556.8066">MainScreen (ui/frmdashboard.py)</text></g><g class="message" data-entity-1="part1" data-entity-2="part2" id="msg1"><polygon fill="#181818" points="192.8301,149.5703,202.8301,153.5703,192.8301,157.5703,196.8301,153.5703" style="stroke:#181818;stroke-width:1;"/><line style="stroke:#181818;stroke-width:1;" x1="37.7793" x2="198.8301" y1="153.5703" y2="153.5703"/><text fill="#000000" font-family="sans-serif" font-size="13" lengthAdjust="spacing" textLength="72.814" x="44.7793" y="148.7139">Click "Login"</text></g><g class="message" data-entity-1="part2" data-entity-2="part3" id="msg2"><polygon fill="#181818" points="373.6235,179.9219,383.6235,183.9219,373.6235,187.9219,377.6235,183.9219" style="stroke:#181818;stroke-width:1;"/><line style="stroke:#181818;stroke-width:1;" x1="204.8301" x2="379.6235" y1="183.9219" y2="183.9219"/><text fill="#000000" font-family="sans-serif" font-size="13" lengthAdjust="spacing" textLength="156.7935" x="211.8301" y="179.0654">login(username, password)</text></g><g class="message" data-entity-1="part3" data-entity-2="part4" id="msg3"><polygon fill="#181818" points="580.4297,210.2734,590.4297,214.2734,580.4297,218.2734,584.4297,214.2734" style="stroke:#181818;stroke-width:1;"/><line style="stroke:#181818;stroke-width:1;" x1="385.6235" x2="586.4297" y1="214.2734" y2="214.2734"/><text fill="#000000" font-family="sans-serif" font-size="13" lengthAdjust="spacing" textLength="182.8062" x="392.6235" y="209.417">find_user(username, password)</text></g><g class="message" data-entity-1="part4" data-entity-2="part5" id="msg4"><polygon fill="#181818" points="755.4277,240.625,765.4277,244.625,755.4277,248.625,759.4277,244.625" style="stroke:#181818;stroke-width:1;"/><line style="stroke:#181818;stroke-width:1;" x1="592.4297" x2="761.4277" y1="244.625" y2="244.625"/><text fill="#000000" font-family="sans-serif" font-size="13" lengthAdjust="spacing" textLength="150.998" x="599.4297" y="239.7686">execute(SELECT users...)</text></g><g class="message" data-entity-1="part5" data-entity-2="part4" id="msg5"><polygon fill="#181818" points="603.4297,270.9766,593.4297,274.9766,603.4297,278.9766,599.4297,274.9766" style="stroke:#181818;stroke-width:1;"/><line style="stroke:#181818;stroke-width:1;stroke-dasharray:2,2;" x1="597.4297" x2="766.4277" y1="274.9766" y2="274.9766"/><text fill="#000000" font-family="sans-serif" font-size="13" lengthAdjust="spacing" textLength="55.6372" x="609.4297" y="270.1201">row/None</text></g><g class="message" data-entity-1="part4" data-entity-2="part3" id="msg6"><polygon fill="#181818" points="396.6235,301.3281,386.6235,305.3281,396.6235,309.3281,392.6235,305.3281" style="stroke:#181818;stroke-width:1;"/><line style="stroke:#181818;stroke-width:1;stroke-dasharray:2,2;" x1="390.6235" x2="591.4297" y1="305.3281" y2="305.3281"/><text fill="#000000" font-family="sans-serif" font-size="13" lengthAdjust="spacing" textLength="83.8208" x="402.6235" y="300.4717">user dict/None</text></g><path d="M10,320.3281 L70.1709,320.3281 L70.1709,328.6797 L60.1709,338.6797 L10,338.6797 L10,320.3281" fill="#EEEEEE" style="stroke:#000000;stroke-width:1.5;"/><rect fill="none" height="198.9453" style="stroke:#000000;stroke-width:1.5;" width="1095.5713" x="10" y="320.3281"/><text fill="#000000" font-family="sans-serif" font-size="13" font-weight="bold" lengthAdjust="spacing" textLength="15.1709" x="25" y="334.8232">alt</text><text fill="#000000" font-family="sans-serif" font-size="11" font-weight="bold" lengthAdjust="spacing" textLength="58.6846" x="85.1709" y="333.7471">[valid user]</text><g class="message" data-entity-1="part3" data-entity-2="part2" id="msg7"><polygon fill="#181818" points="215.8301,357.0313,205.8301,361.0313,215.8301,365.0313,211.8301,361.0313" style="stroke:#181818;stroke-width:1;"/><line style="stroke:#181818;stroke-width:1;stroke-dasharray:2,2;" x1="209.8301" x2="384.6235" y1="361.0313" y2="361.0313"/><text fill="#000000" font-family="sans-serif" font-size="13" lengthAdjust="spacing" textLength="49.1309" x="221.8301" y="356.1748">user dict</text></g><g class="message" data-entity-1="part2" data-entity-2="part6" id="msg8"><polygon fill="#181818" points="972.6924,387.3828,982.6924,391.3828,972.6924,395.3828,976.6924,391.3828" style="stroke:#181818;stroke-width:1;"/><line style="stroke:#181818;stroke-width:1;" x1="204.8301" x2="978.6924" y1="391.3828" y2="391.3828"/><text fill="#000000" font-family="sans-serif" font-size="13" lengthAdjust="spacing" textLength="39.0063" x="211.8301" y="386.5264">show()</text></g><g class="message" data-entity-1="part2" data-entity-2="part2" id="msg9"><line style="stroke:#181818;stroke-width:1;" x1="204.8301" x2="246.8301" y1="421.7344" y2="421.7344"/><line style="stroke:#181818;stroke-width:1;" x1="246.8301" x2="246.8301" y1="421.7344" y2="434.7344"/><line style="stroke:#181818;stroke-width:1;" x1="205.8301" x2="246.8301" y1="434.7344" y2="434.7344"/><polygon fill="#181818" points="215.8301,430.7344,205.8301,434.7344,215.8301,438.7344,211.8301,434.7344" style="stroke:#181818;stroke-width:1;"/><text fill="#000000" font-family="sans-serif" font-size="13" lengthAdjust="spacing" textLength="39.0063" x="211.8301" y="416.8779">close()</text></g><line style="stroke:#000000;stroke-width:1;stroke-dasharray:2,2;" x1="10" x2="1105.5713" y1="443.7344" y2="443.7344"/><text fill="#000000" font-family="sans-serif" font-size="11" font-weight="bold" lengthAdjust="spacing" textLength="68.46" x="15" y="455.1533">[invalid user]</text><g class="message" data-entity-1="part3" data-entity-2="part2" id="msg10"><polygon fill="#181818" points="215.8301,476.9219,205.8301,480.9219,215.8301,484.9219,211.8301,480.9219" style="stroke:#181818;stroke-width:1;"/><line style="stroke:#181818;stroke-width:1;stroke-dasharray:2,2;" x1="209.8301" x2="384.6235" y1="480.9219" y2="480.9219"/><text fill="#000000" font-family="sans-serif" font-size="13" lengthAdjust="spacing" textLength="69.3608" x="221.8301" y="476.0654">None / error</text></g><g class="message" data-entity-1="part2" data-entity-2="part1" id="msg11"><polygon fill="#181818" points="48.7793,507.2734,38.7793,511.2734,48.7793,515.2734,44.7793,511.2734" style="stroke:#181818;stroke-width:1;"/><line style="stroke:#181818;stroke-width:1;stroke-dasharray:2,2;" x1="42.7793" x2="203.8301" y1="511.2734" y2="511.2734"/><text fill="#000000" font-family="sans-serif" font-size="13" lengthAdjust="spacing" textLength="143.0508" x="54.7793" y="506.417">show error / attempts left</text></g><?plantuml-src TP3BRi8m44Nt_eeHgqGgOTz5fKAGMebMQbBMQB27OjNOaJr0-Vjw4a1zxgnxphpCbXt18hnP3mN7qyh9irGADOS8oqHHTHZPQjkXPnZrQgiZKIxOsyacxhv4LNSgHu09be_VowHHI_5WDGsy_SqRwi806sMGSOs9ODI-B2mJ5FKvcGNlIRCDVfXKJxztUiAV-nbCstN0QAxRrVVjWr8o4yPtULUuXPcp-lrytaZbI42RGVyXnJwx7dTq0nscT0pHb2fZaPeiRQmtAt7-5XiHwsaMwOFqdgbevulvx1N4JbLLbIhJyQLR3CV9S_3K5rxs41MCrJmWXOxXWCwQdYWGQtovvYfBtjyY9sUGjk5ObDUqbxKBYN98Bl-tzVysbRam0Oenn7C7GJ9gQ3oWh20pxJfEu6Z3YhnHdm00?></g></svg>