<?plantuml 1.2026.2?><svg xmlns="http://www.w3.org/2000/svg" xmlns:xlink="http://www.w3.org/1999/xlink" contentStyleType="text/css" data-diagram-type="SEQUENCE" height="1130px" preserveAspectRatio="none" style="width:1487px;height:1130px;background:#FFFFFF;" version="1.1" viewBox="0 0 1487 1130" width="1487px" zoomAndPan="magnify"><title>Add Transaction (save_transaction)</title><defs/><g><text fill="#000000" font-family="sans-serif" font-size="14" font-weight="bold" lengthAdjust="spacing" textLength="238.0615" x="625.8845" y="29.5332">Add Transaction (save_transaction)</text><rect fill="none" height="532.8125" style="stroke:#000000;stroke-width:1.5;" width="1470.8306" x="10" y="498.0859"/><g class="participant-lifeline" data-entity-uid="part1" data-qualified-name="User" id="part1-lifeline"><g><title>User</title><rect fill="#000000" fill-opacity="0.00000" height="926.6797" width="8" x="33.7793" y="121.2188"/><line style="stroke:#181818;stroke-width:0.5;stroke-dasharray:5,5;" x1="37" x2="37" y1="121.2188" y2="1047.8984"/></g></g><g class="participant-lifeline" data-entity-uid="part2" data-qualified-name="UI" id="part2-lifeline"><g><title>AddTransaction .ui.frmAddTransaction.py.</title><rect fill="#000000" fill-opacity="0.00000" height="926.6797" width="8" x="200.0581" y="121.2188"/><line style="stroke:#181818;stroke-width:0.5;stroke-dasharray:5,5;" x1="203.5586" x2="203.5586" y1="121.2188" y2="1047.8984"/></g></g><g class="participant-lifeline" data-entity-uid="part3" data-qualified-name="TS" id="part3-lifeline"><g><title>TransactionService</title><rect fill="#000000" fill-opacity="0.00000" height="926.6797" width="8" x="501.5396" y="121.2188"/><line style="stroke:#181818;stroke-width:0.5;stroke-dasharray:5,5;" x1="504.626" x2="504.626" y1="121.2188" y2="1047.8984"/></g></g><g class="participant-lifeline" data-entity-uid="part4" data-qualified-name="BS" id="part4-lifeline"><g><title>BudgetService</title><rect fill="#000000" fill-opacity="0.00000" height="926.6797" width="8" x="772.6792" y="121.2188"/><line style="stroke:#181818;stroke-width:0.5;stroke-dasharray:5,5;" x1="776.1519" x2="776.1519" y1="121.2188" y2="1047.8984"/></g></g><g class="participant-lifeline" data-entity-uid="part5" data-qualified-name="BR" id="part5-lifeline"><g><title>BudgetRepo</title><rect fill="#000000" fill-opacity="0.00000" height="926.6797" width="8" x="1043.8188" y="121.2188"/><line style="stroke:#181818;stroke-width:0.5;stroke-dasharray:5,5;" x1="1046.8984" x2="1046.8984" y1="121.2188" y2="1047.8984"/></g></g><g class="participant-lifeline" data-entity-uid="part6" data-qualified-name="TR" id="part6-lifeline"><g><title>TransactionRepo</title><rect fill="#000000" fill-opacity="0.00000" height="926.6797" width="8" x="1160.0459" y="121.2188"/><line style="stroke:#181818;stroke-width:0.5;stroke-dasharray:5,5;" x1="1163.7393" x2="1163.7393" y1="121.2188" y2="1047.8984"/></g></g><g class="participant-lifeline" data-entity-uid="part7" data-qualified-name="DB" id="part7-lifeline"><g><title>SQLite .DatabaseConnection.</title><rect fill="#000000" fill-opacity="0.00000" height="926.6797" width="8" x="1370.4448" y="121.2188"/><line style="stroke:#181818;stroke-width:0.5;stroke-dasharray:5,5;" x1="1374.0591" x2="1374.0591" y1="121.2188" y2="1047.8984"/></g></g><g class="participant participant-head" data-entity-uid="part1" data-qualified-name="User" id="part1-head"><text fill="#000000" font-family="sans-serif" font-size="14" lengthAdjust="spacing" textLength="29.5586" x="20" y="118.1426">User</text><ellipse cx="37.7793" cy="52.1094" fill="#E2E2F0" rx="8" ry="8" style="stroke:#181818;stroke-width:0.5;"/><path d="M37.7793,60.1094 L37.7793,87.1094 M24.7793,68.1094 L50.7793,68.1094 M37.7793,87.1094 L24.7793,102.1094 M37.7793,87.1094 L50.7793,102.1094" fill="none" style="stroke:#181818;stroke-width:0.5;"/></g><g class="participant participant-tail" data-entity-uid="part1" data-qualified-name="User" id="part1-tail"><text fill="#000000" font-family="sans-serif" font-size="14" lengthAdjust="spacing" textLength="29.5586" x="20" y="1061.4316">User</text><ellipse cx="37.7793" cy="1073.0078" fill="#E2E2F0" rx="8" ry="8" style="stroke:#181818;stroke-width:0.5;"/><path d="M37.7793,1081.0078 L37.7793,1108.0078 M24.7793,1089.0078 L50.7793,1089.0078 M37.7793,1108.0078 L24.7793,1123.0078 M37.7793,1108.0078 L50.7793,1123.0078" fill="none" style="stroke:#181818;stroke-width:0.5;"/></g><g class="participant participant-head" data-entity-uid="part2" data-qualified-name="UI" id="part2-head"><rect fill="#E2E2F0" height="31.6094" rx="2.5" ry="2.5" style="stroke:#181818;stroke-width:0.5;" width="276.999" x="65.5586" y="88.6094"/><text fill="#000000" font-family="sans-serif" font-size="14" lengthAdjust="spacing" textLength="262.999" x="72.5586" y="110.1426">AddTransaction (ui/frmAddTransaction.py)</text></g><g class="participant participant-tail" data-entity-uid="part2" data-qualified-name="UI" id="part2-tail"><rect fill="#E2E2F0" height="31.6094" rx="2.5" ry="2.5" style="stroke:#181818;stroke-width:0.5;" width="276.999" x="65.5586" y="1046.8984"/><text fill="#000000" font-family="sans-serif" font-size="14" lengthAdjust="spacing" textLength="262.999" x="72.5586" y="1068.4316">AddTransaction (ui/frmAddTransaction.py)</text></g><g class="participant participant-head" data-entity-uid="part3" data-qualified-name="TS" id="part3-head"><rect fill="#E2E2F0" height="31.6094" rx="2.5" ry="2.5" style="stroke:#181818;stroke-width:0.5;" width="133.8271" x="438.626" y="88.6094"/><text fill="#000000" font-family="sans-serif" font-size="14" lengthAdjust="spacing" textLength="119.8271" x="445.626" y="110.1426">TransactionService</text></g><g class="participant participant-tail" data-entity-uid="part3" data-qualified-name="TS" id="part3-tail"><rect fill="#E2E2F0" height="31.6094" rx="2.5" ry="2.5" style="stroke:#181818;stroke-width:0.5;" width="133.8271" x="438.626" y="1046.8984"/><text fill="#000000" font-family="sans-serif" font-size="14" lengthAdjust="spacing" textLength="119.8271" x="445.626" y="1068.4316">TransactionService</text></g><g class="participant participant-head" data-entity-uid="part4" data-qualified-name="BS" id="part4-head"><rect fill="#E2E2F0" height="31.6094" rx="2.5" ry="2.5" style="stroke:#181818;stroke-width:0.5;" width="105.0547" x="724.1519" y="88.6094"/><text fill="#000000" font-family="sans-serif" font-size="14" lengthAdjust="spacing" textLength="91.0547" x="731.1519" y="110.1426">BudgetService</text></g><g class="participant participant-tail" data-entity-uid="part4" data-qualified-name="BS" id="part4-tail"><rect fill="#E2E2F0" height="31.6094" rx="2.5" ry="2.5" style="stroke:#181818;stroke-width:0.5;" width="105.0547" x="724.1519" y="1046.8984"/><text fill="#000000" font-family="sans-serif" font-size="14" lengthAdjust="spacing" textLength="91.0547" x="731.1519" y="1068.4316">BudgetService</text></g><g class="participant participant-head" data-entity-uid="part5" data-qualified-name="BR" id="part5-head"><rect fill="#E2E2F0" height="31.6094" rx="2.5" ry="2.5" style="stroke:#181818;stroke-width:0.5;" width="91.8408" x="1001.8984" y="88.6094"/><text fill="#000000" font-family="sans-serif" font-size="14" lengthAdjust="spacing" textLength="77.8408" x="1008.8984" y="110.1426">BudgetRepo</text></g><g class="participant participant-tail" data-entity-uid="part5" data-qualified-name="BR" id="part5-tail"><rect fill="#E2E2F0" height="31.6094" rx="2.5" ry="2.5" style="stroke:#181818;stroke-width:0.5;" width="91.8408" x="1001.8984" y="1046.8984"/><text fill="#000000" font-family="sans-serif" font-size="14" lengthAdjust="spacing" textLength="77.8408" x="1008.8984" y="1068.4316">BudgetRepo</text></g><g class="participant participant-head" data-entity-uid="part6" data-qualified-name="TR" id="part6-head"><rect fill="#E2E2F0" height="31.6094" rx="2.5" ry="2.5" style="stroke:#181818;stroke-width:0.5;" width="120.6133" x="1103.7393" y="88.6094"/><text fill="#000000" font-family="sans-serif" font-size="14" lengthAdjust="spacing" textLength="106.6133" x="1110.7393" y="110.1426">TransactionRepo</text></g><g class="participant participant-tail" data-entity-uid="part6" data-qualified-name="TR" id="part6-tail"><rect fill="#E2E2F0" height="31.6094" rx="2.5" ry="2.5" style="stroke:#181818;stroke-width:0.5;" width="120.6133" x="1103.7393" y="1046.8984"/><text fill="#000000" font-family="sans-serif" font-size="14" lengthAdjust="spacing" textLength="106.6133" x="1110.7393" y="1068.4316">TransactionRepo</text></g><g class="participant participant-head" data-entity-uid="part7" data-qualified-name="DB" id="part7-head"><text fill="#000000" font-family="sans-serif" font-size="14" lengthAdjust="spacing" textLength="186.7715" x="1278.0591" y="118.1426">SQLite (DatabaseConnection)</text><path d="M1356.4448,67.6094 C1356.4448,57.6094 1374.4448,57.6094 1374.4448,57.6094 C1374.4448,57.6094 1392.4448,57.6094 1392.4448,67.6094 L1392.4448,93.6094 C1392.4448,103.6094 1374.4448,103.6094 1374.4448,103.6094 C1374.4448,103.6094 1356.4448,103.6094 1356.4448,93.6094 L1356.4448,67.6094" fill="#E2E2F0" style="stroke:#181818;stroke-width:0.5;"/><path d="M1356.4448,67.6094 C1356.4448,77.6094 1374.4448,77.6094 1374.4448,77.6094 C1374.4448,77.6094 1392.4448,77.6094 1392.4448,67.6094" fill="none" style="stroke:#181818;stroke-width:0.5;"/></g><g class="participant participant-tail" data-entity-uid="part7" data-qualified-name="DB" id="part7-tail"><text fill="#000000" font-family="sans-serif" font-size="14" lengthAdjust="spacing" textLength="186.7715" x="1278.0591" y="1061.4316">SQLite (DatabaseConnection)</text><path d="M1356.4448,1074.5078 C1356.4448,1064.5078 1374.4448,1064.5078 1374.4448,1064.5078 C1374.4448,1064.5078 1392.4448,1064.5078 1392.4448,1074.5078 L1392.4448,1100.5078 C1392.4448,1110.5078 1374.4448,1110.5078 1374.4448,1110.5078 C1374.4448,1110.5078 1356.4448,1110.5078 1356.4448,1100.5078 L1356.4448,1074.5078" fill="#E2E2F0" style="stroke:#181818;stroke-width:0.5;"/><path d="M1356.4448,1074.5078 C1356.4448,1084.5078 1374.4448,1084.5078 1374.4448,1084.5078 C1374.4448,1084.5078 1392.4448,1084.5078 1392.4448,1074.5078" fill="none" style="stroke:#181818;stroke-width:0.5;"/></g><g class="message" data-entity-1="part1" data-entity-2="part2" id="msg1"><polygon fill="#181818" points="192.0581,149.5703,202.0581,153.5703,192.0581,157.5703,196.0581,153.5703" style="stroke:#181818;stroke-width:1;"/><line style="stroke:#181818;stroke-width:1;" x1="37.7793" x2="198.0581" y1="153.5703" y2="153.5703"/><text fill="#000000" font-family="sans-serif" font-size="13" lengthAdjust="spacing" textLength="70.6367" x="44.7793" y="148.7139">Click "Save"</text></g><g class="message" data-entity-1="part2" data-entity-2="part2" id="msg2"><line style="stroke:#181818;stroke-width:1;" x1="204.0581" x2="246.0581" y1="183.9219" y2="183.9219"/><line style="stroke:#181818;stroke-width:1;" x1="246.0581" x2="246.0581" y1="183.9219" y2="196.9219"/><line style="stroke:#181818;stroke-width:1;" x1="205.0581" x2="246.0581" y1="196.9219" y2="196.9219"/><polygon fill="#181818" points="215.0581,192.9219,205.0581,196.9219,215.0581,200.9219,211.0581,196.9219" style="stroke:#181818;stroke-width:1;"/><text fill="#000000" font-family="sans-serif" font-size="13" lengthAdjust="spacing" textLength="207.4097" x="211.0581" y="179.0654">validate input / ensure budget exists</text></g><g class="message" data-entity-1="part2" data-entity-2="part3" id="msg3"><polygon fill="#181818" points="493.5396,223.2734,503.5396,227.2734,493.5396,231.2734,497.5396,227.2734" style="stroke:#181818;stroke-width:1;"/><line style="stroke:#181818;stroke-width:1;" x1="204.0581" x2="499.5396" y1="227.2734" y2="227.2734"/><text fill="#000000" font-family="sans-serif" font-size="13" lengthAdjust="spacing" textLength="245.7051" x="211.0581" y="222.417">get_budget_warning(amount, month, year)</text></g><g class="message" data-entity-1="part3" data-entity-2="part4" id="msg4"><polygon fill="#181818" points="764.6792,253.625,774.6792,257.625,764.6792,261.625,768.6792,257.625" style="stroke:#181818;stroke-width:1;"/><line style="stroke:#181818;stroke-width:1;" x1="505.5396" x2="770.6792" y1="257.625" y2="257.625"/><text fill="#000000" font-family="sans-serif" font-size="13" lengthAdjust="spacing" textLength="158.2534" x="512.5396" y="252.7686">check_budget(month, year)</text></g><g class="message" data-entity-1="part4" data-entity-2="part5" id="msg5"><polygon fill="#181818" points="1035.8188,283.9766,1045.8188,287.9766,1035.8188,291.9766,1039.8188,287.9766" style="stroke:#181818;stroke-width:1;"/><line style="stroke:#181818;stroke-width:1;" x1="776.6792" x2="1041.8188" y1="287.9766" y2="287.9766"/><text fill="#000000" font-family="sans-serif" font-size="13" lengthAdjust="spacing" textLength="158.2534" x="783.6792" y="283.1201">check_budget(month, year)</text></g><g class="message" data-entity-1="part5" data-entity-2="part7" id="msg6"><polygon fill="#181818" points="1362.4448,314.3281,1372.4448,318.3281,1362.4448,322.3281,1366.4448,318.3281" style="stroke:#181818;stroke-width:1;"/><line style="stroke:#181818;stroke-width:1;" x1="1047.8188" x2="1368.4448" y1="318.3281" y2="318.3281"/><text fill="#000000" font-family="sans-serif" font-size="13" lengthAdjust="spacing" textLength="165.4707" x="1054.8188" y="313.4717">execute(SELECT budgets...)</text></g><g class="message" data-entity-1="part7" data-entity-2="part5" id="msg7"><polygon fill="#181818" points="1058.8188,344.6797,1048.8188,348.6797,1058.8188,352.6797,1054.8188,348.6797" style="stroke:#181818;stroke-width:1;"/><line style="stroke:#181818;stroke-width:1;stroke-dasharray:2,2;" x1="1052.8188" x2="1373.4448" y1="348.6797" y2="348.6797"/><text fill="#000000" font-family="sans-serif" font-size="13" lengthAdjust="spacing" textLength="65.7617" x="1064.8188" y="343.8232">Budget row</text></g><g class="message" data-entity-1="part5" data-entity-2="part4" id="msg8"><polygon fill="#181818" points="787.6792,375.0313,777.6792,379.0313,787.6792,383.0313,783.6792,379.0313" style="stroke:#181818;stroke-width:1;"/><line style="stroke:#181818;stroke-width:1;stroke-dasharray:2,2;" x1="781.6792" x2="1046.8188" y1="379.0313" y2="379.0313"/><text fill="#000000" font-family="sans-serif" font-size="13" lengthAdjust="spacing" textLength="41.2026" x="793.6792" y="374.1748">Budget</text></g><g class="message" data-entity-1="part4" data-entity-2="part3" id="msg9"><polygon fill="#181818" points="516.5396,405.3828,506.5396,409.3828,516.5396,413.3828,512.5396,409.3828" style="stroke:#181818;stroke-width:1;"/><line style="stroke:#181818;stroke-width:1;stroke-dasharray:2,2;" x1="510.5396" x2="775.6792" y1="409.3828" y2="409.3828"/><text fill="#000000" font-family="sans-serif" font-size="13" lengthAdjust="spacing" textLength="41.2026" x="522.5396" y="404.5264">Budget</text></g><g class="message" data-entity-1="part3" data-entity-2="part3" id="msg10"><line style="stroke:#181818;stroke-width:1;" x1="505.5396" x2="547.5396" y1="439.7344" y2="439.7344"/><line style="stroke:#181818;stroke-width:1;" x1="547.5396" x2="547.5396" y1="439.7344" y2="452.7344"/><line style="stroke:#181818;stroke-width:1;" x1="506.5396" x2="547.5396" y1="452.7344" y2="452.7344"/><polygon fill="#181818" points="516.5396,448.7344,506.5396,452.7344,516.5396,456.7344,512.5396,452.7344" style="stroke:#181818;stroke-width:1;"/><text fill="#000000" font-family="sans-serif" font-size="13" lengthAdjust="spacing" textLength="135.1226" x="512.5396" y="434.8779">validate_transaction(...)</text></g><g class="message" data-entity-1="part3" data-entity-2="part2" id="msg11"><polygon fill="#181818" points="215.0581,479.0859,205.0581,483.0859,215.0581,487.0859,211.0581,483.0859" style="stroke:#181818;stroke-width:1;"/><line style="stroke:#181818;stroke-width:1;stroke-dasharray:2,2;" x1="209.0581" x2="504.5396" y1="483.0859" y2="483.0859"/><text fill="#000000" font-family="sans-serif" font-size="13" lengthAdjust="spacing" textLength="170.5425" x="221.0581" y="478.2295">warning_message? (optional)</text></g><path d="M10,498.0859 L70.1709,498.0859 L70.1709,506.4375 L60.1709,516.4375 L10,516.4375 L10,498.0859" fill="#EEEEEE" style="stroke:#000000;stroke-width:1.5;"/><rect fill="none" height="532.8125" style="stroke:#000000;stroke-width:1.5;" width="1470.8306" x="10" y="498.0859"/><text fill="#000000" font-family="sans-serif" font-size="13" font-weight="bold" lengthAdjust="spacing" textLength="15.1709" x="25" y="512.5811">alt</text><text fill="#000000" font-family="sans-serif" font-size="11" font-weight="bold" lengthAdjust="spacing" textLength="146.1045" x="85.1709" y="511.5049">[user cancels after warning]</text><g class="message" data-entity-1="part2" data-entity-2="part1" id="msg12"><polygon fill="#181818" points="48.7793,534.7891,38.7793,538.7891,48.7793,542.7891,44.7793,538.7891" style="stroke:#181818;stroke-width:1;"/><line style="stroke:#181818;stroke-width:1;stroke-dasharray:2,2;" x1="42.7793" x2="203.0581" y1="538.7891" y2="538.7891"/><text fill="#000000" font-family="sans-serif" font-size="13" lengthAdjust="spacing" textLength="24.5718" x="54.7793" y="533.9326">stop</text></g><line style="stroke:#000000;stroke-width:1;stroke-dasharray:2,2;" x1="10" x2="1480.8306" y1="547.7891" y2="547.7891"/><text fill="#000000" font-family="sans-serif" font-size="11" font-weight="bold" lengthAdjust="spacing" textLength="53.1577" x="15" y="559.208">[continue]</text><g class="message" data-entity-1="part2" data-entity-2="part3" id="msg13"><polygon fill="#181818" points="493.5396,580.9766,503.5396,584.9766,493.5396,588.9766,497.5396,584.9766" style="stroke:#181818;stroke-width:1;"/><line style="stroke:#181818;stroke-width:1;" x1="204.0581" x2="499.5396" y1="584.9766" y2="584.9766"/><text fill="#000000" font-family="sans-serif" font-size="13" lengthAdjust="spacing" textLength="277.4814" x="211.0581" y="580.1201">add_transaction(amount, category, month, year)</text></g><g class="message" data-entity-1="part3" data-entity-2="part4" id="msg14"><polygon fill="#181818" points="764.6792,611.3281,774.6792,615.3281,764.6792,619.3281,768.6792,615.3281" style="stroke:#181818;stroke-width:1;"/><line style="stroke:#181818;stroke-width:1;" x1="505.5396" x2="770.6792" y1="615.3281" y2="615.3281"/><text fill="#000000" font-family="sans-serif" font-size="13" lengthAdjust="spacing" textLength="158.2534" x="512.5396" y="610.4717">check_budget(month, year)</text></g><g class="message" data-entity-1="part4" data-entity-2="part5" id="msg15"><polygon fill="#181818" points="1035.8188,641.6797,1045.8188,645.6797,1035.8188,649.6797,1039.8188,645.6797" style="stroke:#181818;stroke-width:1;"/><line style="stroke:#181818;stroke-width:1;" x1="776.6792" x2="1041.8188" y1="645.6797" y2="645.6797"/><text fill="#000000" font-family="sans-serif" font-size="13" lengthAdjust="spacing" textLength="158.2534" x="783.6792" y="640.8232">check_budget(month, year)</text></g><g class="message" data-entity-1="part5" data-entity-2="part7" id="msg16"><polygon fill="#181818" points="1362.4448,672.0313,1372.4448,676.0313,1362.4448,680.0313,1366.4448,676.0313" style="stroke:#181818;stroke-width:1;"/><line style="stroke:#181818;stroke-width:1;" x1="1047.8188" x2="1368.4448" y1="676.0313" y2="676.0313"/><text fill="#000000" font-family="sans-serif" font-size="13" lengthAdjust="spacing" textLength="165.4707" x="1054.8188" y="671.1748">execute(SELECT budgets...)</text></g><g class="message" data-entity-1="part7" data-entity-2="part5" id="msg17"><polygon fill="#181818" points="1058.8188,702.3828,1048.8188,706.3828,1058.8188,710.3828,1054.8188,706.3828" style="stroke:#181818;stroke-width:1;"/><line style="stroke:#181818;stroke-width:1;stroke-dasharray:2,2;" x1="1052.8188" x2="1373.4448" y1="706.3828" y2="706.3828"/><text fill="#000000" font-family="sans-serif" font-size="13" lengthAdjust="spacing" textLength="65.7617" x="1064.8188" y="701.5264">Budget row</text></g><g class="message" data-entity-1="part5" data-entity-2="part4" id="msg18"><polygon fill="#181818" points="787.6792,732.7344,777.6792,736.7344,787.6792,740.7344,783.6792,736.7344" style="stroke:#181818;stroke-width:1;"/><line style="stroke:#181818;stroke-width:1;stroke-dasharray:2,2;" x1="781.6792" x2="1046.8188" y1="736.7344" y2="736.7344"/><text fill="#000000" font-family="sans-serif" font-size="13" lengthAdjust="spacing" textLength="41.2026" x="793.6792" y="731.8779">Budget</text></g><g class="message" data-entity-1="part4" data-entity-2="part3" id="msg19"><polygon fill="#181818" points="516.5396,763.0859,506.5396,767.0859,516.5396,771.0859,512.5396,767.0859" style="stroke:#181818;stroke-width:1;"/><line style="stroke:#181818;stroke-width:1;stroke-dasharray:2,2;" x1="510.5396" x2="775.6792" y1="767.0859" y2="767.0859"/><text fill="#000000" font-family="sans-serif" font-size="13" lengthAdjust="spacing" textLength="41.2026" x="522.5396" y="762.2295">Budget</text></g><g class="message" data-entity-1="part3" data-entity-2="part3" id="msg20"><line style="stroke:#181818;stroke-width:1;" x1="505.5396" x2="547.5396" y1="797.4375" y2="797.4375"/><line style="stroke:#181818;stroke-width:1;" x1="547.5396" x2="547.5396" y1="797.4375" y2="810.4375"/><line style="stroke:#181818;stroke-width:1;" x1="506.5396" x2="547.5396" y1="810.4375" y2="810.4375"/><polygon fill="#181818" points="516.5396,806.4375,506.5396,810.4375,516.5396,814.4375,512.5396,810.4375" style="stroke:#181818;stroke-width:1;"/><text fill="#000000" font-family="sans-serif" font-size="13" lengthAdjust="spacing" textLength="135.1226" x="512.5396" y="792.5811">validate_transaction(...)</text></g><g class="message" data-entity-1="part3" data-entity-2="part6" id="msg21"><polygon fill="#181818" points="1152.0459,836.7891,1162.0459,840.7891,1152.0459,844.7891,1156.0459,840.7891" style="stroke:#181818;stroke-width:1;"/><line style="stroke:#181818;stroke-width:1;" x1="505.5396" x2="1158.0459" y1="840.7891" y2="840.7891"/><text fill="#000000" font-family="sans-serif" font-size="13" lengthAdjust="spacing" textLength="169.0889" x="512.5396" y="835.9326">add_transaction(Transaction)</text></g><g class="message" data-entity-1="part6" data-entity-2="part7" id="msg22"><polygon fill="#181818" points="1362.4448,867.1406,1372.4448,871.1406,1362.4448,875.1406,1366.4448,871.1406" style="stroke:#181818;stroke-width:1;"/><line style="stroke:#181818;stroke-width:1;" x1="1164.0459" x2="1368.4448" y1="871.1406" y2="871.1406"/><text fill="#000000" font-family="sans-serif" font-size="13" lengthAdjust="spacing" textLength="186.3989" x="1171.0459" y="866.2842">execute(INSERT transactions...)</text></g><g class="message" data-entity-1="part3" data-entity-2="part4" id="msg23"><polygon fill="#181818" points="764.6792,897.4922,774.6792,901.4922,764.6792,905.4922,768.6792,901.4922" style="stroke:#181818;stroke-width:1;"/><line style="stroke:#181818;stroke-width:1;" x1="505.5396" x2="770.6792" y1="901.4922" y2="901.4922"/><text fill="#000000" font-family="sans-serif" font-size="13" lengthAdjust="spacing" textLength="247.1396" x="512.5396" y="896.6357">deduct_from_budget(amount, month, year)</text></g><g class="message" data-entity-1="part4" data-entity-2="part5" id="msg24"><polygon fill="#181818" points="1035.8188,927.8438,1045.8188,931.8438,1035.8188,935.8438,1039.8188,931.8438" style="stroke:#181818;stroke-width:1;"/><line style="stroke:#181818;stroke-width:1;" x1="776.6792" x2="1041.8188" y1="931.8438" y2="931.8438"/><text fill="#000000" font-family="sans-serif" font-size="13" lengthAdjust="spacing" textLength="247.1396" x="783.6792" y="926.9873">deduct_from_budget(amount, month, year)</text></g><g class="message" data-entity-1="part5" data-entity-2="part7" id="msg25"><polygon fill="#181818" points="1362.4448,958.1953,1372.4448,962.1953,1362.4448,966.1953,1366.4448,962.1953" style="stroke:#181818;stroke-width:1;"/><line style="stroke:#181818;stroke-width:1;" x1="1047.8188" x2="1368.4448" y1="962.1953" y2="962.1953"/><text fill="#000000" font-family="sans-serif" font-size="13" lengthAdjust="spacing" textLength="167.6289" x="1054.8188" y="957.3389">execute(UPDATE budgets...)</text></g><g class="message" data-entity-1="part3" data-entity-2="part2" id="msg26"><polygon fill="#181818" points="215.0581,988.5469,205.0581,992.5469,215.0581,996.5469,211.0581,992.5469" style="stroke:#181818;stroke-width:1;"/><line style="stroke:#181818;stroke-width:1;stroke-dasharray:2,2;" x1="209.0581" x2="504.5396" y1="992.5469" y2="992.5469"/><text fill="#000000" font-family="sans-serif" font-size="13" lengthAdjust="spacing" textLength="67.9199" x="221.0581" y="987.6904">Transaction</text></g><g class="message" data-entity-1="part2" data-entity-2="part1" id="msg27"><polygon fill="#181818" points="48.7793,1018.8984,38.7793,1022.8984,48.7793,1026.8984,44.7793,1022.8984" style="stroke:#181818;stroke-width:1;"/><line style="stroke:#181818;stroke-width:1;stroke-dasharray:2,2;" x1="42.7793" x2="203.0581" y1="1022.8984" y2="1022.8984"/><text fill="#000000" font-family="sans-serif" font-size="13" lengthAdjust="spacing" textLength="119.063" x="54.7793" y="1018.042">"Transaction saved!"</text></g><?plantuml-src bPJDJkim48NtVeeXgrI2icTn4McxG4A8cwJhoDZJOf7OaUqK-lRu9u4a56xlBXb_PtpcsB8LjaQuunnAJQMXp0eb8JNqW9NzgYm8SHzAmzQW9YtLLZ3HKcaXSTg9j1FNEzrCgylsk4Y06jZUJyKZfa1z40m3LXPJBElu7ksOo4uIEROgBkS_xlF9b3dXrD9dQX2Iuk-3i0Zfkg-ib9GOHm_mEYF4pmvNVzmGS0EhMh1NftD19SHLXlg1riArHH2oxInS0qhJQOJdO13mNHXhUa5PE86hLd6nUgDQ2hbFQQCwQI-XKTA-NC8HgLuG1pj9vYNi1TbhBqedK1QX_7Sezz0wSn2-8-iifiNcORCgUvDckLmkY5k_6dh5T46hjo0UVCHos7IOfYz5iw4o13A-JcdOeOow45i_UjMWCNIFjv2grfEqzbUljj3vy1cL36i3T6VTNwyXu5k4Jfwv0MDLIno6mDpOGdRO8xqZold4p10tSoxtIXzdmGES5Jt0MU43d1S_m0y741lCZY1kFZk4mVW_Zk4JoqzaKuxV0F3CtFlzOx79InY9pAHjiCcHTynMEwsQ8PMJbtmIud-8ljlQFgtloiqiql6D6qtsxGQDtmlmRo6_I0XAJZu0?></g></svg>