<?plantuml 1.2026.2?><svg xmlns="http://www.w3.org/2000/svg" xmlns:xlink="http://www.w3.org/1999/xlink" contentStyleType="text/css" data-diagram-type="DESCRIPTION" height="583px" preserveAspectRatio="none" style="width:912px;height:583px;background:#FFFFFF;" version="1.1" viewBox="0 0 912 583" width="912px" zoomAndPan="magnify"><defs/><g><!--cluster Money Manager--><g class="cluster" data-qualified-name="Money Manager" data-source-line="8" id="ent0004"><rect fill="none" height="487" rx="2.5" ry="2.5" style="stroke:#181818;stroke-width:1;" width="683" x="223.5" y="7"/><text fill="#000000" font-family="sans-serif" font-size="14" font-weight="bold" lengthAdjust="spacing" textLength="105.7998" x="512.1001" y="23.5332">Money Manager</text></g><!--entity UC_Login--><g class="entity" data-qualified-name="Money Manager.UC_Login" data-source-line="9" id="ent0005"><ellipse cx="311.7219" cy="58.9517" fill="#F1F1F1" rx="27.2219" ry="15.4517" style="stroke:#181818;stroke-width:0.5;"/><text fill="#000000" font-family="sans-serif" font-size="14" lengthAdjust="spacing" textLength="34.2549" x="294.5944" y="64.2564">Login</text></g><!--entity UC_Dashboard--><g class="entity" data-qualified-name="Money Manager.UC_Dashboard" data-source-line="10" id="ent0006"><ellipse cx="311.6469" cy="126.0294" fill="#F1F1F1" rx="70.6469" ry="16.5294" style="stroke:#181818;stroke-width:0.5;"/><text fill="#000000" font-family="sans-serif" font-size="14" lengthAdjust="spacing" textLength="102.7236" x="260.2851" y="131.3341">View Dashboard</text></g><!--entity UC_AddBudget--><g class="entity" data-qualified-name="Money Manager.UC_AddBudget" data-source-line="11" id="ent0007"><ellipse cx="523.7403" cy="355.9517" fill="#F1F1F1" rx="54.7403" ry="15.4517" style="stroke:#181818;stroke-width:0.5;"/><text fill="#000000" font-family="sans-serif" font-size="14" lengthAdjust="spacing" textLength="73.1719" x="487.1544" y="361.2564">Add Budget</text></g><!--entity UC_AddTransaction--><g class="entity" data-qualified-name="Money Manager.UC_AddTransaction" data-source-line="12" id="ent0008"><ellipse cx="523.3515" cy="432.9703" fill="#F1F1F1" rx="70.3515" ry="16.4703" style="stroke:#181818;stroke-width:0.5;"/><text fill="#000000" font-family="sans-serif" font-size="14" lengthAdjust="spacing" textLength="101.9443" x="472.3793" y="438.275">Add Transaction</text></g><!--entity UC_ListTx--><g class="entity" data-qualified-name="Money Manager.UC_ListTx" data-source-line="13" id="ent0009"><ellipse cx="311.3298" cy="194.766" fill="#F1F1F1" rx="71.8298" ry="16.766" style="stroke:#181818;stroke-width:0.5;"/><text fill="#000000" font-family="sans-serif" font-size="14" lengthAdjust="spacing" textLength="105.8203" x="258.4197" y="200.0707">List Transactions</text></g><!--entity UC_EditTx--><g class="entity" data-qualified-name="Money Manager.UC_EditTx" data-source-line="14" id="ent0010"><ellipse cx="523.5545" cy="269.9109" fill="#F1F1F1" rx="70.0545" ry="16.4109" style="stroke:#181818;stroke-width:0.5;"/><text fill="#000000" font-family="sans-serif" font-size="14" lengthAdjust="spacing" textLength="101.1582" x="472.9754" y="275.2156">Edit Transaction</text></g><!--entity UC_DeleteTx--><g class="entity" data-qualified-name="Money Manager.UC_DeleteTx" data-source-line="15" id="ent0011"><ellipse cx="523.4152" cy="201.183" fill="#F1F1F1" rx="76.4152" ry="17.683" style="stroke:#181818;stroke-width:0.5;"/><text fill="#000000" font-family="sans-serif" font-size="14" lengthAdjust="spacing" textLength="117.5029" x="464.6638" y="206.4877">Delete Transaction</text></g><!--entity UC_ExportTx--><g class="entity" data-qualified-name="Money Manager.UC_ExportTx" data-source-line="16" id="ent0012"><ellipse cx="523.7423" cy="130.2485" fill="#F1F1F1" rx="79.2423" ry="18.2485" style="stroke:#181818;stroke-width:0.5;"/><text fill="#000000" font-family="sans-serif" font-size="14" lengthAdjust="spacing" textLength="124.4961" x="461.4942" y="135.5531">Export Transactions</text></g><!--entity UC_SaveMonth--><g class="entity" data-qualified-name="Money Manager.UC_SaveMonth" data-source-line="17" id="ent0013"><ellipse cx="523.7377" cy="59.9475" fill="#F1F1F1" rx="72.7377" ry="16.9475" style="stroke:#181818;stroke-width:0.5;"/><text fill="#000000" font-family="sans-serif" font-size="14" lengthAdjust="spacing" textLength="108.1719" x="469.6518" y="65.2522">Save Month Data</text></g><!--entity UC_Goals--><g class="entity" data-qualified-name="Money Manager.UC_Goals" data-source-line="18" id="ent0014"><ellipse cx="311.3309" cy="263.1662" fill="#F1F1F1" rx="66.3309" ry="15.6662" style="stroke:#181818;stroke-width:0.5;"/><text fill="#000000" font-family="sans-serif" font-size="14" lengthAdjust="spacing" textLength="91.0547" x="265.8035" y="268.4709">Manage Goals</text></g><!--entity UC_About--><g class="entity" data-qualified-name="Money Manager.UC_About" data-source-line="19" id="ent0015"><ellipse cx="311.5775" cy="328.9517" fill="#F1F1F1" rx="53.0775" ry="15.4517" style="stroke:#181818;stroke-width:0.5;"/><text fill="#000000" font-family="sans-serif" font-size="14" lengthAdjust="spacing" textLength="70.8203" x="276.1674" y="334.2564">View About</text></g><!--entity UC_Guide--><g class="entity" data-qualified-name="Money Manager.UC_Guide" data-source-line="20" id="ent0016"><ellipse cx="311.3838" cy="394.9517" fill="#F1F1F1" rx="56.3838" ry="15.4517" style="stroke:#181818;stroke-width:0.5;"/><text fill="#000000" font-family="sans-serif" font-size="14" lengthAdjust="spacing" textLength="75.4961" x="273.6358" y="400.2564">Open Guide</text></g><!--entity UC_Theme--><g class="entity" data-qualified-name="Money Manager.UC_Theme" data-source-line="21" id="ent0017"><ellipse cx="311.3167" cy="462.0633" fill="#F1F1F1" rx="68.3167" ry="16.0633" style="stroke:#181818;stroke-width:0.5;"/><text fill="#000000" font-family="sans-serif" font-size="14" lengthAdjust="spacing" textLength="96.5029" x="263.0652" y="467.368">Change Theme</text></g><!--entity UC_CheckBudget--><g class="entity" data-qualified-name="Money Manager.UC_CheckBudget" data-source-line="23" id="ent0018"><ellipse cx="805.1627" cy="443.1325" fill="#F1F1F1" rx="81.1627" ry="18.6325" style="stroke:#181818;stroke-width:0.5;"/><text fill="#000000" font-family="sans-serif" font-size="14" lengthAdjust="spacing" textLength="129.1719" x="740.5768" y="448.4372">Check Budget Exists</text></g><!--entity UC_Validate--><g class="entity" data-qualified-name="Money Manager.UC_Validate" data-source-line="24" id="ent0019"><ellipse cx="804.8959" cy="327.7792" fill="#F1F1F1" rx="66.8959" ry="15.7792" style="stroke:#181818;stroke-width:0.5;"/><text fill="#000000" font-family="sans-serif" font-size="14" lengthAdjust="spacing" textLength="92.6201" x="758.5858" y="333.0839">Validate Inputs</text></g><!--entity UC_Warn--><g class="entity" data-qualified-name="Money Manager.UC_Warn" data-source-line="25" id="ent0020"><ellipse cx="804.8977" cy="233.9795" fill="#F1F1F1" rx="85.3977" ry="19.4795" style="stroke:#181818;stroke-width:0.5;"/><text fill="#000000" font-family="sans-serif" font-size="14" lengthAdjust="spacing" textLength="139.3027" x="735.2463" y="239.2842">Show Budget Warning</text></g><!--entity user--><g class="entity" data-qualified-name="user" data-source-line="5" id="ent0002"><ellipse cx="149" cy="306" fill="#F1F1F1" rx="16" ry="16" style="stroke:#181818;stroke-width:0.5;"/><path d="M149,326 C153,326 156,326 160,322 C168,322 176,330 176,338 L176,342 C176,346 172,350 168,350 L130,350 C126,350 122,346 122,342 L122,338 C122,330 130,322 138,322 C142,326 145,326 149,326" fill="#F1F1F1" style="stroke:#181818;stroke-width:0.5;"/><text fill="#000000" font-family="sans-serif" font-size="14" lengthAdjust="spacing" textLength="29.5586" x="134.2207" y="365.0332">User</text></g><!--entity admin--><g class="entity" data-qualified-name="admin" data-source-line="6" id="ent0003"><ellipse cx="33" cy="306" fill="#F1F1F1" rx="16" ry="16" style="stroke:#181818;stroke-width:0.5;"/><path d="M33,326 C37,326 40,326 44,322 C52,322 60,330 60,338 L60,342 C60,346 56,350 52,350 L14,350 C10,350 6,346 6,342 L6,338 C6,330 14,322 22,322 C26,326 29,326 33,326" fill="#F1F1F1" style="stroke:#181818;stroke-width:0.5;"/><text fill="#000000" font-family="sans-serif" font-size="14" lengthAdjust="spacing" textLength="39.6826" x="13.1587" y="365.0332">Admin</text></g><!--link admin to user--><g class="link" data-entity-1="ent0003" data-entity-2="ent0002" data-link-type="extension" data-source-line="28" id="lnk21"><path d="M60.73,329 C79.02,329 85.18,329 103.44,329" fill="none" id="admin-to-user" style="stroke:#181818;stroke-width:1;"/><polygon fill="none" points="121.44,329,103.44,323,103.44,335,121.44,329" style="stroke:#181818;stroke-width:1;"/></g><!--link user to UC_Login--><g class="link" data-entity-1="ent0002" data-entity-2="ent0005" data-link-type="dependency" data-source-line="30" id="lnk22"><path d="M150.18,289.2 C152.56,237.24 164.41,146.5 215.5,92 C233.53,72.76 257.4121,65.6671 278.8321,62.3171" fill="none" id="user-to-UC_Login" style="stroke:#181818;stroke-width:1;"/><polygon fill="#181818" points="284.76,61.39,275.25,58.8287,279.82,62.1626,276.4862,66.7326,284.76,61.39" style="stroke:#181818;stroke-width:1;"/></g><!--link user to UC_Dashboard--><g class="link" data-entity-1="ent0002" data-entity-2="ent0006" data-link-type="dependency" data-source-line="31" id="lnk23"><path d="M155.72,289.27 C163.18,251.29 179.78,194.8 215.5,160 C226.79,149 236.2118,143.4687 251.0318,138.4087" fill="none" id="user-to-UC_Dashboard" style="stroke:#181818;stroke-width:1;"/><polygon fill="#181818" points="256.71,136.47,246.9003,135.5926,251.9782,138.0856,249.4852,143.1635,256.71,136.47" style="stroke:#181818;stroke-width:1;"/></g><!--link user to UC_AddBudget--><g class="link" data-entity-1="ent0002" data-entity-2="ent0007" data-link-type="dependency" data-source-line="32" id="lnk24"><path d="M153.28,368.65 C158.89,408.15 174.13,466.85 215.5,495 C277.23,537 318.06,530.95 383.5,495 C427.81,470.66 407.66,433.61 444.5,399 C458.02,386.29 470.5955,378.6351 485.8855,371.3351" fill="none" id="user-to-UC_AddBudget" style="stroke:#181818;stroke-width:1;"/><polygon fill="#181818" points="491.3,368.75,481.4548,369.018,486.7879,370.9042,484.9016,376.2373,491.3,368.75" style="stroke:#181818;stroke-width:1;"/></g><!--link user to UC_AddTransaction--><g class="link" data-entity-1="ent0002" data-entity-2="ent0008" data-link-type="dependency" data-source-line="33" id="lnk25"><path d="M149.85,368.72 C152.08,416.63 163.96,495.41 215.5,533 C275.83,576.99 312.43,555.9 383.5,533 C435,516.4 479.2909,477.1062 503.0409,453.3162" fill="none" id="user-to-UC_AddTransaction" style="stroke:#181818;stroke-width:1;"/><polygon fill="#181818" points="507.28,449.07,498.0906,452.6133,503.7474,452.6085,503.7522,458.2654,507.28,449.07" style="stroke:#181818;stroke-width:1;"/></g><!--link user to UC_ListTx--><g class="link" data-entity-1="ent0002" data-entity-2="ent0009" data-link-type="dependency" data-source-line="34" id="lnk26"><path d="M168.57,289.34 C179.73,269.2 195.63,245.73 215.5,230 C228.45,219.74 239.0285,214.2581 254.4085,208.9481" fill="none" id="user-to-UC_ListTx" style="stroke:#181818;stroke-width:1;"/><polygon fill="#181818" points="260.08,206.99,250.2674,206.1462,255.3538,208.6218,252.8782,213.7082,260.08,206.99" style="stroke:#181818;stroke-width:1;"/></g><!--link user to UC_Goals--><g class="link" data-entity-1="ent0002" data-entity-2="ent0014" data-link-type="dependency" data-source-line="35" id="lnk27"><path d="M176.71,314.53 C188.44,308.44 202.48,301.51 215.5,296 C233.51,288.37 248.2476,282.9964 265.5376,277.2364" fill="none" id="user-to-UC_Goals" style="stroke:#181818;stroke-width:1;"/><polygon fill="#181818" points="271.23,275.34,261.4271,274.3896,266.4863,276.9203,263.9556,281.9795,271.23,275.34" style="stroke:#181818;stroke-width:1;"/></g><!--link user to UC_Theme--><g class="link" data-entity-1="ent0002" data-entity-2="ent0017" data-link-type="dependency" data-source-line="36" id="lnk28"><path d="M168.52,368.73 C179.65,388.89 195.55,412.36 215.5,428 C228.73,438.37 239.7021,443.8701 255.3721,449.0401" fill="none" id="user-to-UC_Theme" style="stroke:#181818;stroke-width:1;"/><polygon fill="#181818" points="261.07,450.92,253.7764,444.3016,256.3218,449.3534,251.2699,451.8987,261.07,450.92" style="stroke:#181818;stroke-width:1;"/></g><!--link user to UC_About--><g class="link" data-entity-1="ent0002" data-entity-2="ent0015" data-link-type="dependency" data-source-line="37" id="lnk29"><path d="M176.5,329 C198.67,329 224.97,329 252.3,329" fill="none" id="user-to-UC_About" style="stroke:#181818;stroke-width:1;"/><polygon fill="#181818" points="258.3,329,249.3,325,253.3,329,249.3,333,258.3,329" style="stroke:#181818;stroke-width:1;"/></g><!--link user to UC_Guide--><g class="link" data-entity-1="ent0002" data-entity-2="ent0016" data-link-type="dependency" data-source-line="38" id="lnk30"><path d="M176.71,343.46 C188.44,349.55 202.48,356.49 215.5,362 C234.31,369.96 250.0741,375.6542 267.8341,381.5342" fill="none" id="user-to-UC_Guide" style="stroke:#181818;stroke-width:1;"/><polygon fill="#181818" points="273.53,383.42,266.2433,376.794,268.7834,381.8485,263.7289,384.3886,273.53,383.42" style="stroke:#181818;stroke-width:1;"/></g><!--link UC_ListTx to UC_EditTx--><g class="link" data-entity-1="ent0009" data-entity-2="ent0010" data-link-type="dependency" data-source-line="40" id="lnk31"><path d="M352,209.1 C389.9,222.64 441.1093,240.9327 478.5893,254.3127" fill="none" id="UC_ListTx-to-UC_EditTx" style="stroke:#181818;stroke-width:1;"/><polygon fill="#181818" points="484.24,256.33,477.1087,249.537,479.5311,254.649,474.4191,257.0713,484.24,256.33" style="stroke:#181818;stroke-width:1;"/></g><!--link UC_ListTx to UC_DeleteTx--><g class="link" data-entity-1="ent0009" data-entity-2="ent0011" data-link-type="dependency" data-source-line="41" id="lnk32"><path d="M383.01,197.01 C403.74,197.6 420.5024,198.0786 441.5024,198.6786" fill="none" id="UC_ListTx-to-UC_DeleteTx" style="stroke:#181818;stroke-width:1;"/><polygon fill="#181818" points="447.5,198.85,438.6179,194.5946,442.502,198.7072,438.3894,202.5913,447.5,198.85" style="stroke:#181818;stroke-width:1;"/></g><!--link UC_ListTx to UC_ExportTx--><g class="link" data-entity-1="ent0009" data-entity-2="ent0012" data-link-type="dependency" data-source-line="42" id="lnk33"><path d="M356.01,181.53 C390.97,170.71 434.2384,157.3144 470.0284,146.2344" fill="none" id="UC_ListTx-to-UC_ExportTx" style="stroke:#181818;stroke-width:1;"/><polygon fill="#181818" points="475.76,144.46,465.9796,143.3005,470.9837,145.9387,468.3455,150.9427,475.76,144.46" style="stroke:#181818;stroke-width:1;"/></g><!--link UC_Dashboard to UC_SaveMonth--><g class="link" data-entity-1="ent0006" data-entity-2="ent0013" data-link-type="dependency" data-source-line="43" id="lnk34"><path d="M354.49,112.8 C390.76,101.4 437.216,86.7989 473.776,75.3089" fill="none" id="UC_Dashboard-to-UC_SaveMonth" style="stroke:#181818;stroke-width:1;"/><polygon fill="#181818" points="479.5,73.51,469.7148,72.3924,474.73,75.0091,472.1133,80.0244,479.5,73.51" style="stroke:#181818;stroke-width:1;"/></g><!--link UC_Dashboard to UC_ExportTx--><g class="link" data-entity-1="ent0006" data-entity-2="ent0012" data-link-type="dependency" data-source-line="44" id="lnk35"><path d="M381.84,127.32 C401.91,127.7 417.9611,128.0062 438.5211,128.3962" fill="none" id="UC_Dashboard-to-UC_ExportTx" style="stroke:#181818;stroke-width:1;"/><polygon fill="#181818" points="444.52,128.51,435.5975,124.34,439.5209,128.4152,435.4458,132.3386,444.52,128.51" style="stroke:#181818;stroke-width:1;"/></g><!--link UC_AddTransaction to UC_CheckBudget--><g class="link" data-entity-1="ent0008" data-entity-2="ent0018" data-link-type="dependency" data-source-line="46" id="lnk36"><path d="M584.08,441.46 C599.8,443.34 616.76,445.05 632.5,446 C662.97,447.82 690.5322,447.8738 719.8322,447.0738" fill="none" id="UC_AddTransaction-to-UC_CheckBudget" style="stroke:#181818;stroke-width:1;stroke-dasharray:7,7;"/><polygon fill="#181818" points="725.83,446.91,716.7242,443.1571,720.8319,447.0465,716.9425,451.1542,725.83,446.91" style="stroke:#181818;stroke-width:1;"/><text fill="#000000" font-family="sans-serif" font-size="13" lengthAdjust="spacing" textLength="55.6563" x="633.5" y="442.4951">&#171;include&#187;</text></g><!--link UC_AddTransaction to UC_Validate--><g class="link" data-entity-1="ent0008" data-entity-2="ent0019" data-link-type="dependency" data-source-line="47" id="lnk37"><path d="M576.34,421.91 C609.32,414.11 652.61,402.5 689.5,388 C721.67,375.36 751.3882,359.2346 774.0882,345.9846" fill="none" id="UC_AddTransaction-to-UC_Validate" style="stroke:#181818;stroke-width:1;stroke-dasharray:7,7;"/><polygon fill="#181818" points="779.27,342.96,769.4808,344.0424,774.9518,345.4805,773.5137,350.9515,779.27,342.96" style="stroke:#181818;stroke-width:1;"/><text fill="#000000" font-family="sans-serif" font-size="13" lengthAdjust="spacing" textLength="55.6563" x="633.5" y="384.4951">&#171;include&#187;</text></g><!--link UC_AddTransaction to UC_Warn--><g class="link" data-entity-1="ent0008" data-entity-2="ent0020" data-link-type="dependency" data-source-line="48" id="lnk38"><path d="M553.6,417.85 C568.52,409.76 586.8,399.37 602.5,389 C616.52,379.74 618.47,375.24 632.5,366 C656.76,350.01 667.65,353.14 689.5,334 C706.22,319.35 703.58,309.5 719.5,294 C735.87,278.05 751.7533,266.4206 768.6833,255.4606" fill="none" id="UC_AddTransaction-to-UC_Warn" style="stroke:#181818;stroke-width:1;stroke-dasharray:7,7;"/><polygon fill="#181818" points="773.72,252.2,763.9912,253.7331,769.5227,254.9172,768.3387,260.4487,773.72,252.2" style="stroke:#181818;stroke-width:1;"/><text fill="#000000" font-family="sans-serif" font-size="13" lengthAdjust="spacing" textLength="53.4917" x="634.5" y="330.4951">&#171;extend&#187;</text></g><!--link UC_AddBudget to UC_Validate--><g class="link" data-entity-1="ent0007" data-entity-2="ent0019" data-link-type="dependency" data-source-line="50" id="lnk39"><path d="M547.97,342.1 C569.21,330.39 601.79,314.51 632.5,308 C676.19,298.73 721.2923,305.5923 756.2323,314.1523" fill="none" id="UC_AddBudget-to-UC_Validate" style="stroke:#181818;stroke-width:1;stroke-dasharray:7,7;"/><polygon fill="#181818" points="762.06,315.58,754.2703,309.5533,757.2036,314.3902,752.3667,317.3235,762.06,315.58" style="stroke:#181818;stroke-width:1;"/><text fill="#000000" font-family="sans-serif" font-size="13" lengthAdjust="spacing" textLength="55.6563" x="633.5" y="300.4951">&#171;include&#187;</text></g><!--link UC_EditTx to UC_Warn--><g class="link" data-entity-1="ent0010" data-entity-2="ent0020" data-link-type="dependency" data-source-line="51" id="lnk40"><path d="M585.49,262.14 C628.06,256.66 679.1491,250.0763 724.2691,244.2663" fill="none" id="UC_EditTx-to-UC_Warn" style="stroke:#181818;stroke-width:1;stroke-dasharray:7,7;"/><polygon fill="#181818" points="730.22,243.5,720.7828,240.6822,725.2609,244.1386,721.8046,248.6167,730.22,243.5" style="stroke:#181818;stroke-width:1;"/><text fill="#000000" font-family="sans-serif" font-size="13" lengthAdjust="spacing" textLength="53.4917" x="634.5" y="245.4951">&#171;extend&#187;</text></g><?plantuml-src ZLBBJiCm4BpxArQzmmSW5AayX91077WTqH8lYTNKZco75W7_ZX-rupH5S8cyixCJUtOwUhDW5MZHj1Quq5HReIGpAo5xrBY67kiLDdHlFpe2tqRPT5GGiBPAnpPkoAWrCHOmM3mQqWj00uCx9739rq865Fs9iImAYribwGDkKRe_kibF1dwqHkDwDwhPpJsUluIYx3u9si05clPLeUQ9be6IkkGSpWRUa4qqXqHWd_QWKHeCbXJS0frSK1XRJfXyMTTus9RKIoxi8N6FJvaNr96bGzpOsTFTzaeVlaHiJUdt-4xWFBUjiyvYedeue2KtBWMk57PPCnIpBInVrJ1QwukISjUJXAj1SCeglYWfvwsBWtjpI-jC2WMRigXUxHO9brldSRvNQCqt-eITuEZSl9RzCB8JF76cLPka_OnQ2jaakY_PjykuJoyS7NrLCTxCVrrTZVaiaJ6A9JecRmyjCpOHZbageRY54ebcJHJ36YPJmNMM9HE-Y-0Cpt6RJwHabQzCpJ5BXxfvbCrU3SV7rTukuGHEJuMiku5JLVq-alVyJxxVQE3IrfBaZihArVmj6ptxLUu7?></g></svg>